<mxfile host="app.diagrams.net" modified="2022-03-05T17:37:25.822Z" agent="5.0 (Windows NT 10.0; Win64; x64) AppleWebKit/537.36 (KHTML, like Gecko) Chrome/98.0.4758.102 Safari/537.36" etag="U2u3PSS568uneIeVp8wL" version="16.6.1" type="github">
  <diagram id="hjXsOXnCz5DZUv0r8Lvu" name="Page-1">
    <mxGraphModel dx="1422" dy="762" grid="1" gridSize="10" guides="1" tooltips="1" connect="1" arrows="1" fold="1" page="1" pageScale="1" pageWidth="1654" pageHeight="2336" math="0" shadow="0">
      <root>
        <mxCell id="0" />
        <mxCell id="1" parent="0" />
        <mxCell id="YkDLoqTf-xVgrHszZ3nV-10" value="&lt;b&gt;Google &lt;/b&gt;Cloud Platform" style="fillColor=#F6F6F6;strokeColor=none;shadow=0;gradientColor=none;fontSize=14;align=left;spacing=10;fontColor=#717171;9E9E9E;verticalAlign=top;spacingTop=-4;fontStyle=0;spacingLeft=40;html=1;" parent="1" vertex="1">
          <mxGeometry x="350" y="70" width="1160" height="910" as="geometry" />
        </mxCell>
        <mxCell id="YkDLoqTf-xVgrHszZ3nV-11" value="" style="shape=mxgraph.gcp2.google_cloud_platform;fillColor=#F6F6F6;strokeColor=none;shadow=0;gradientColor=none;" parent="YkDLoqTf-xVgrHszZ3nV-10" vertex="1">
          <mxGeometry width="23" height="20" relative="1" as="geometry">
            <mxPoint x="20" y="10" as="offset" />
          </mxGeometry>
        </mxCell>
        <mxCell id="YkDLoqTf-xVgrHszZ3nV-13" value="Lab Project&amp;nbsp;" style="sketch=0;points=[[0,0,0],[0.25,0,0],[0.5,0,0],[0.75,0,0],[1,0,0],[1,0.25,0],[1,0.5,0],[1,0.75,0],[1,1,0],[0.75,1,0],[0.5,1,0],[0.25,1,0],[0,1,0],[0,0.75,0],[0,0.5,0],[0,0.25,0]];rounded=1;absoluteArcSize=1;arcSize=0;html=1;strokeColor=default;gradientColor=none;shadow=0;dashed=0;fontSize=12;fontColor=#9E9E9E;align=left;verticalAlign=top;spacing=10;spacingTop=-4;fillColor=#F6F6F6;" parent="YkDLoqTf-xVgrHszZ3nV-10" vertex="1">
          <mxGeometry x="40" y="50" width="1090" height="838.8" as="geometry" />
        </mxCell>
        <mxCell id="YkDLoqTf-xVgrHszZ3nV-14" value="Region - us-east1" style="sketch=0;points=[[0,0,0],[0.25,0,0],[0.5,0,0],[0.75,0,0],[1,0,0],[1,0.25,0],[1,0.5,0],[1,0.75,0],[1,1,0],[0.75,1,0],[0.5,1,0],[0.25,1,0],[0,1,0],[0,0.75,0],[0,0.5,0],[0,0.25,0]];rounded=1;absoluteArcSize=1;arcSize=2;html=1;strokeColor=none;gradientColor=none;shadow=0;dashed=0;fontSize=12;fontColor=#9E9E9E;align=left;verticalAlign=top;spacing=10;spacingTop=-4;fillColor=#E3F2FD;" parent="YkDLoqTf-xVgrHszZ3nV-13" vertex="1">
          <mxGeometry width="1070" height="350" relative="1" as="geometry">
            <mxPoint x="10" y="50" as="offset" />
          </mxGeometry>
        </mxCell>
        <mxCell id="YkDLoqTf-xVgrHszZ3nV-15" value="Zone B" style="sketch=0;points=[[0,0,0],[0.25,0,0],[0.5,0,0],[0.75,0,0],[1,0,0],[1,0.25,0],[1,0.5,0],[1,0.75,0],[1,1,0],[0.75,1,0],[0.5,1,0],[0.25,1,0],[0,1,0],[0,0.75,0],[0,0.5,0],[0,0.25,0]];rounded=1;absoluteArcSize=1;arcSize=2;html=1;strokeColor=none;gradientColor=none;shadow=0;dashed=0;fontSize=12;fontColor=#9E9E9E;align=left;verticalAlign=top;spacing=10;spacingTop=-4;fillColor=#FFF3E0;" parent="YkDLoqTf-xVgrHszZ3nV-14" vertex="1">
          <mxGeometry width="1060" height="570" relative="1" as="geometry">
            <mxPoint x="10" y="50" as="offset" />
          </mxGeometry>
        </mxCell>
        <mxCell id="YkDLoqTf-xVgrHszZ3nV-16" value="Network AA - 10.0.1.0.0/24" style="sketch=0;points=[[0,0,0],[0.25,0,0],[0.5,0,0],[0.75,0,0],[1,0,0],[1,0.25,0],[1,0.5,0],[1,0.75,0],[1,1,0],[0.75,1,0],[0.5,1,0],[0.25,1,0],[0,1,0],[0,0.75,0],[0,0.5,0],[0,0.25,0]];rounded=1;absoluteArcSize=1;arcSize=2;html=1;strokeColor=none;gradientColor=none;shadow=0;dashed=0;fontSize=12;fontColor=#9E9E9E;align=left;verticalAlign=top;spacing=10;spacingTop=-4;fillColor=#EDE7F6;" parent="YkDLoqTf-xVgrHszZ3nV-15" vertex="1">
          <mxGeometry width="370" height="110" relative="1" as="geometry">
            <mxPoint x="90" y="117" as="offset" />
          </mxGeometry>
        </mxCell>
        <mxCell id="YkDLoqTf-xVgrHszZ3nV-28" value="Network AB - 10.0.20.0/24" style="sketch=0;points=[[0,0,0],[0.25,0,0],[0.5,0,0],[0.75,0,0],[1,0,0],[1,0.25,0],[1,0.5,0],[1,0.75,0],[1,1,0],[0.75,1,0],[0.5,1,0],[0.25,1,0],[0,1,0],[0,0.75,0],[0,0.5,0],[0,0.25,0]];rounded=1;absoluteArcSize=1;arcSize=2;html=1;strokeColor=none;gradientColor=none;shadow=0;dashed=0;fontSize=12;fontColor=#9E9E9E;align=left;verticalAlign=top;spacing=10;spacingTop=-4;fillColor=#EDE7F6;" parent="YkDLoqTf-xVgrHszZ3nV-15" vertex="1">
          <mxGeometry x="108.97196261682242" y="346.07142857142856" width="366.5420560747664" height="83.12839285714286" as="geometry" />
        </mxCell>
        <mxCell id="YkDLoqTf-xVgrHszZ3nV-3" value="" style="strokeColor=#dddddd;shadow=1;strokeWidth=1;rounded=1;absoluteArcSize=1;arcSize=2;" parent="YkDLoqTf-xVgrHszZ3nV-15" vertex="1">
          <mxGeometry x="59.4392523364486" y="47.5" width="326.9158878504673" height="59.375" as="geometry" />
        </mxCell>
        <mxCell id="YkDLoqTf-xVgrHszZ3nV-4" value="&lt;font color=&quot;#000000&quot;&gt;VPC-ORG-A&lt;/font&gt;&lt;br&gt;Virtual Private Cloud" style="sketch=0;dashed=0;connectable=0;html=1;fillColor=#5184F3;strokeColor=none;shape=mxgraph.gcp2.hexIcon;prIcon=virtual_private_cloud;part=1;labelPosition=right;verticalLabelPosition=middle;align=left;verticalAlign=middle;spacingLeft=5;fontColor=#999999;fontSize=12;" parent="YkDLoqTf-xVgrHszZ3nV-3" vertex="1">
          <mxGeometry y="0.5" width="44" height="39" relative="1" as="geometry">
            <mxPoint x="5" y="-19.5" as="offset" />
          </mxGeometry>
        </mxCell>
        <mxCell id="YkDLoqTf-xVgrHszZ3nV-38" value="" style="editableCssRules=.*;shape=image;verticalLabelPosition=bottom;labelBackgroundColor=#ffffff;verticalAlign=top;aspect=fixed;imageAspect=0;image=data:image/svg+xml,PHN2ZyB4bWxucz0iaHR0cDovL3d3dy53My5vcmcvMjAwMC9zdmciIHhtbG5zOnY9Imh0dHBzOi8vdmVjdGEuaW8vbmFubyIgd2lkdGg9IjIwIiBoZWlnaHQ9IjIwIiB2aWV3Qm94PSIwIDAgMjAgMjAiPiYjeGE7CTxzdHlsZSB0eXBlPSJ0ZXh0L2NzcyI+JiN4YTsJLnN0MHtmaWxsOiM0Mjg1ZjQ7fSYjeGE7CS5zdDF7ZmlsbDojNjY5ZGY2O30mI3hhOwkuc3Qye2ZpbGw6I2FlY2JmYTt9JiN4YTsJPC9zdHlsZT4mI3hhOwk8cGF0aCBjbGFzcz0ic3QyIiBkPSJNNyA3aDZ2Nkg3eiIvPiYjeGE7CTxwYXRoIGNsYXNzPSJzdDEiIGQ9Ik05IDBoMnY0SDl6TTUgMGgydjRINXptOCAwaDJ2NGgtMnoiLz4mI3hhOwk8cGF0aCBjbGFzcz0ic3QwIiBkPSJNOSAxNmgydjRIOXptLTQgMGgydjRINXptOCAwaDJ2NGgtMnptMy01VjloNHYyem0wIDR2LTJoNHYyem0wLThWNWg0djJ6Ii8+JiN4YTsJPHBhdGggY2xhc3M9InN0MSIgZD0iTTAgMTFWOWg0djJ6bTAgNHYtMmg0djJ6bTAtOFY1aDR2MnoiLz4mI3hhOwk8cGF0aCBjbGFzcz0ic3QyIiBkPSJNMyAzdjE0aDE0VjN6bTEyIDEySDVWNWgxMHoiLz4mI3hhOwk8cGF0aCBjbGFzcz0ic3QxIiBkPSJNMTAgMTBsLTMgM2g2eiIvPiYjeGE7CTxwYXRoIGNsYXNzPSJzdDAiIGQ9Ik0xMyA3bC0zIDMgMyAzeiIvPiYjeGE7PC9zdmc+;strokeColor=default;fillColor=none;" parent="YkDLoqTf-xVgrHszZ3nV-15" vertex="1">
          <mxGeometry x="118.88210705182668" y="166.25218894009214" width="24.960377277229856" height="24.960377277229856" as="geometry" />
        </mxCell>
        <mxCell id="YkDLoqTf-xVgrHszZ3nV-37" value="" style="editableCssRules=.*;shape=image;verticalLabelPosition=bottom;labelBackgroundColor=#ffffff;verticalAlign=top;aspect=fixed;imageAspect=0;image=data:image/svg+xml,PHN2ZyB4bWxucz0iaHR0cDovL3d3dy53My5vcmcvMjAwMC9zdmciIHhtbG5zOnY9Imh0dHBzOi8vdmVjdGEuaW8vbmFubyIgd2lkdGg9IjIwIiBoZWlnaHQ9IjIwIiB2aWV3Qm94PSIwIDAgMjAgMjAiPiYjeGE7CTxzdHlsZSB0eXBlPSJ0ZXh0L2NzcyI+JiN4YTsJLnN0MHtmaWxsOiM0Mjg1ZjQ7fSYjeGE7CS5zdDF7ZmlsbDojNjY5ZGY2O30mI3hhOwkuc3Qye2ZpbGw6I2FlY2JmYTt9JiN4YTsJPC9zdHlsZT4mI3hhOwk8cGF0aCBjbGFzcz0ic3QyIiBkPSJNNyA3aDZ2Nkg3eiIvPiYjeGE7CTxwYXRoIGNsYXNzPSJzdDEiIGQ9Ik05IDBoMnY0SDl6TTUgMGgydjRINXptOCAwaDJ2NGgtMnoiLz4mI3hhOwk8cGF0aCBjbGFzcz0ic3QwIiBkPSJNOSAxNmgydjRIOXptLTQgMGgydjRINXptOCAwaDJ2NGgtMnptMy01VjloNHYyem0wIDR2LTJoNHYyem0wLThWNWg0djJ6Ii8+JiN4YTsJPHBhdGggY2xhc3M9InN0MSIgZD0iTTAgMTFWOWg0djJ6bTAgNHYtMmg0djJ6bTAtOFY1aDR2MnoiLz4mI3hhOwk8cGF0aCBjbGFzcz0ic3QyIiBkPSJNMyAzdjE0aDE0VjN6bTEyIDEySDVWNWgxMHoiLz4mI3hhOwk8cGF0aCBjbGFzcz0ic3QxIiBkPSJNMTAgMTBsLTMgM2g2eiIvPiYjeGE7CTxwYXRoIGNsYXNzPSJzdDAiIGQ9Ik0xMyA3bC0zIDMgMyAzeiIvPiYjeGE7PC9zdmc+;strokeColor=default;fillColor=none;" parent="YkDLoqTf-xVgrHszZ3nV-15" vertex="1">
          <mxGeometry x="128.78864910790145" y="386.783689516129" width="24.960377277229856" height="24.960377277229856" as="geometry" />
        </mxCell>
        <mxCell id="YkDLoqTf-xVgrHszZ3nV-33" value="" style="editableCssRules=.*;shape=image;verticalLabelPosition=bottom;labelBackgroundColor=#ffffff;verticalAlign=top;aspect=fixed;imageAspect=0;image=data:image/svg+xml,PHN2ZyB4bWxucz0iaHR0cDovL3d3dy53My5vcmcvMjAwMC9zdmciIHhtbG5zOnY9Imh0dHBzOi8vdmVjdGEuaW8vbmFubyIgd2lkdGg9IjIwIiBoZWlnaHQ9IjIwIiB2aWV3Qm94PSIwIDAgMjAgMjAiPiYjeGE7CTxzdHlsZSB0eXBlPSJ0ZXh0L2NzcyI+JiN4YTsJLnN0MHtmaWxsOiM0Mjg1ZjQ7fSYjeGE7CS5zdDF7ZmlsbDojNjY5ZGY2O30mI3hhOwkuc3Qye2ZpbGw6I2FlY2JmYTt9JiN4YTsJPC9zdHlsZT4mI3hhOwk8cGF0aCBjbGFzcz0ic3QyIiBkPSJNNyA3aDZ2Nkg3eiIvPiYjeGE7CTxwYXRoIGNsYXNzPSJzdDEiIGQ9Ik05IDBoMnY0SDl6TTUgMGgydjRINXptOCAwaDJ2NGgtMnoiLz4mI3hhOwk8cGF0aCBjbGFzcz0ic3QwIiBkPSJNOSAxNmgydjRIOXptLTQgMGgydjRINXptOCAwaDJ2NGgtMnptMy01VjloNHYyem0wIDR2LTJoNHYyem0wLThWNWg0djJ6Ii8+JiN4YTsJPHBhdGggY2xhc3M9InN0MSIgZD0iTTAgMTFWOWg0djJ6bTAgNHYtMmg0djJ6bTAtOFY1aDR2MnoiLz4mI3hhOwk8cGF0aCBjbGFzcz0ic3QyIiBkPSJNMyAzdjE0aDE0VjN6bTEyIDEySDVWNWgxMHoiLz4mI3hhOwk8cGF0aCBjbGFzcz0ic3QxIiBkPSJNMTAgMTBsLTMgM2g2eiIvPiYjeGE7CTxwYXRoIGNsYXNzPSJzdDAiIGQ9Ik0xMyA3bC0zIDMgMyAzeiIvPiYjeGE7PC9zdmc+;strokeColor=default;fillColor=none;" parent="YkDLoqTf-xVgrHszZ3nV-15" vertex="1">
          <mxGeometry x="345.6392523364486" y="361.1357142857143" width="24.96448598130841" height="24.96448598130841" as="geometry" />
        </mxCell>
        <mxCell id="YkDLoqTf-xVgrHszZ3nV-5" value="" style="strokeColor=#dddddd;shadow=1;strokeWidth=1;rounded=1;absoluteArcSize=1;arcSize=2;" parent="YkDLoqTf-xVgrHszZ3nV-15" vertex="1">
          <mxGeometry x="662.4504672897197" y="47.5" width="317.0093457943925" height="59.375" as="geometry" />
        </mxCell>
        <mxCell id="YkDLoqTf-xVgrHszZ3nV-6" value="&lt;font color=&quot;#000000&quot;&gt;VPC-ORG-B&lt;/font&gt;&lt;br&gt;Virtual Private Cloud" style="sketch=0;dashed=0;connectable=0;html=1;fillColor=#5184F3;strokeColor=none;shape=mxgraph.gcp2.hexIcon;prIcon=virtual_private_cloud;part=1;labelPosition=right;verticalLabelPosition=middle;align=left;verticalAlign=middle;spacingLeft=5;fontColor=#999999;fontSize=12;" parent="YkDLoqTf-xVgrHszZ3nV-5" vertex="1">
          <mxGeometry y="0.5" width="44" height="39" relative="1" as="geometry">
            <mxPoint x="5" y="-19.5" as="offset" />
          </mxGeometry>
        </mxCell>
        <mxCell id="YkDLoqTf-xVgrHszZ3nV-29" value="&amp;nbsp; &amp;nbsp; &amp;nbsp; &amp;nbsp; &amp;nbsp; &amp;nbsp; &amp;nbsp; &amp;nbsp; &amp;nbsp; &amp;nbsp; &amp;nbsp; &amp;nbsp; &amp;nbsp; &amp;nbsp; &amp;nbsp; &amp;nbsp; &amp;nbsp; &amp;nbsp; &amp;nbsp; &amp;nbsp; &amp;nbsp; &amp;nbsp; &amp;nbsp;Network BA - 10.1.10.0/24" style="sketch=0;points=[[0,0,0],[0.25,0,0],[0.5,0,0],[0.75,0,0],[1,0,0],[1,0.25,0],[1,0.5,0],[1,0.75,0],[1,1,0],[0.75,1,0],[0.5,1,0],[0.25,1,0],[0,1,0],[0,0.75,0],[0,0.5,0],[0,0.25,0]];rounded=1;absoluteArcSize=1;arcSize=2;html=1;strokeColor=none;gradientColor=none;shadow=0;dashed=0;fontSize=12;fontColor=#9E9E9E;align=left;verticalAlign=top;spacing=10;spacingTop=-4;fillColor=#EDE7F6;" parent="YkDLoqTf-xVgrHszZ3nV-15" vertex="1">
          <mxGeometry x="703.3644859813085" y="118.75339285714286" width="307.10280373831773" height="105.17517857142856" as="geometry" />
        </mxCell>
        <mxCell id="YkDLoqTf-xVgrHszZ3nV-36" value="" style="editableCssRules=.*;shape=image;verticalLabelPosition=bottom;labelBackgroundColor=#ffffff;verticalAlign=top;aspect=fixed;imageAspect=0;image=data:image/svg+xml,PHN2ZyB4bWxucz0iaHR0cDovL3d3dy53My5vcmcvMjAwMC9zdmciIHhtbG5zOnY9Imh0dHBzOi8vdmVjdGEuaW8vbmFubyIgd2lkdGg9IjIwIiBoZWlnaHQ9IjIwIiB2aWV3Qm94PSIwIDAgMjAgMjAiPiYjeGE7CTxzdHlsZSB0eXBlPSJ0ZXh0L2NzcyI+JiN4YTsJLnN0MHtmaWxsOiM0Mjg1ZjQ7fSYjeGE7CS5zdDF7ZmlsbDojNjY5ZGY2O30mI3hhOwkuc3Qye2ZpbGw6I2FlY2JmYTt9JiN4YTsJPC9zdHlsZT4mI3hhOwk8cGF0aCBjbGFzcz0ic3QyIiBkPSJNNyA3aDZ2Nkg3eiIvPiYjeGE7CTxwYXRoIGNsYXNzPSJzdDEiIGQ9Ik05IDBoMnY0SDl6TTUgMGgydjRINXptOCAwaDJ2NGgtMnoiLz4mI3hhOwk8cGF0aCBjbGFzcz0ic3QwIiBkPSJNOSAxNmgydjRIOXptLTQgMGgydjRINXptOCAwaDJ2NGgtMnptMy01VjloNHYyem0wIDR2LTJoNHYyem0wLThWNWg0djJ6Ii8+JiN4YTsJPHBhdGggY2xhc3M9InN0MSIgZD0iTTAgMTFWOWg0djJ6bTAgNHYtMmg0djJ6bTAtOFY1aDR2MnoiLz4mI3hhOwk8cGF0aCBjbGFzcz0ic3QyIiBkPSJNMyAzdjE0aDE0VjN6bTEyIDEySDVWNWgxMHoiLz4mI3hhOwk8cGF0aCBjbGFzcz0ic3QxIiBkPSJNMTAgMTBsLTMgM2g2eiIvPiYjeGE7CTxwYXRoIGNsYXNzPSJzdDAiIGQ9Ik0xMyA3bC0zIDMgMyAzeiIvPiYjeGE7PC9zdmc+;strokeColor=default;fillColor=none;" parent="YkDLoqTf-xVgrHszZ3nV-15" vertex="1">
          <mxGeometry x="939.7841121495327" y="148.7835714285714" width="24.033271028037383" height="24.033271028037383" as="geometry" />
        </mxCell>
        <mxCell id="YkDLoqTf-xVgrHszZ3nV-62" value="Network BB - 10.1.20.0/24" style="sketch=0;points=[[0,0,0],[0.25,0,0],[0.5,0,0],[0.75,0,0],[1,0,0],[1,0.25,0],[1,0.5,0],[1,0.75,0],[1,1,0],[0.75,1,0],[0.5,1,0],[0.25,1,0],[0,1,0],[0,0.75,0],[0,0.5,0],[0,0.25,0]];rounded=1;absoluteArcSize=1;arcSize=2;html=1;strokeColor=none;gradientColor=none;shadow=0;dashed=0;fontSize=12;fontColor=#9E9E9E;align=left;verticalAlign=top;spacing=10;spacingTop=-4;fillColor=#EDE7F6;" parent="YkDLoqTf-xVgrHszZ3nV-15" vertex="1">
          <mxGeometry x="703.3644859813085" y="334.09125" width="317.0093457943925" height="93.48" as="geometry" />
        </mxCell>
        <mxCell id="YkDLoqTf-xVgrHszZ3nV-35" value="" style="editableCssRules=.*;shape=image;verticalLabelPosition=bottom;labelBackgroundColor=#ffffff;verticalAlign=top;aspect=fixed;imageAspect=0;image=data:image/svg+xml,PHN2ZyB4bWxucz0iaHR0cDovL3d3dy53My5vcmcvMjAwMC9zdmciIHhtbG5zOnY9Imh0dHBzOi8vdmVjdGEuaW8vbmFubyIgd2lkdGg9IjIwIiBoZWlnaHQ9IjIwIiB2aWV3Qm94PSIwIDAgMjAgMjAiPiYjeGE7CTxzdHlsZSB0eXBlPSJ0ZXh0L2NzcyI+JiN4YTsJLnN0MHtmaWxsOiM0Mjg1ZjQ7fSYjeGE7CS5zdDF7ZmlsbDojNjY5ZGY2O30mI3hhOwkuc3Qye2ZpbGw6I2FlY2JmYTt9JiN4YTsJPC9zdHlsZT4mI3hhOwk8cGF0aCBjbGFzcz0ic3QyIiBkPSJNNyA3aDZ2Nkg3eiIvPiYjeGE7CTxwYXRoIGNsYXNzPSJzdDEiIGQ9Ik05IDBoMnY0SDl6TTUgMGgydjRINXptOCAwaDJ2NGgtMnoiLz4mI3hhOwk8cGF0aCBjbGFzcz0ic3QwIiBkPSJNOSAxNmgydjRIOXptLTQgMGgydjRINXptOCAwaDJ2NGgtMnptMy01VjloNHYyem0wIDR2LTJoNHYyem0wLThWNWg0djJ6Ii8+JiN4YTsJPHBhdGggY2xhc3M9InN0MSIgZD0iTTAgMTFWOWg0djJ6bTAgNHYtMmg0djJ6bTAtOFY1aDR2MnoiLz4mI3hhOwk8cGF0aCBjbGFzcz0ic3QyIiBkPSJNMyAzdjE0aDE0VjN6bTEyIDEySDVWNWgxMHoiLz4mI3hhOwk8cGF0aCBjbGFzcz0ic3QxIiBkPSJNMTAgMTBsLTMgM2g2eiIvPiYjeGE7CTxwYXRoIGNsYXNzPSJzdDAiIGQ9Ik0xMyA3bC0zIDMgMyAzeiIvPiYjeGE7PC9zdmc+;strokeColor=default;fillColor=none;" parent="YkDLoqTf-xVgrHszZ3nV-15" vertex="1">
          <mxGeometry x="941.1214953271028" y="366.4353571428572" width="22.69588785046729" height="22.69588785046729" as="geometry" />
        </mxCell>
        <mxCell id="YkDLoqTf-xVgrHszZ3nV-65" value="" style="endArrow=block;startArrow=block;endFill=1;startFill=1;html=1;rounded=0;entryX=0.175;entryY=0.5;entryDx=0;entryDy=0;entryPerimeter=0;exitX=0.825;exitY=0.5;exitDx=0;exitDy=0;exitPerimeter=0;" parent="YkDLoqTf-xVgrHszZ3nV-15" source="YkDLoqTf-xVgrHszZ3nV-127" target="YkDLoqTf-xVgrHszZ3nV-128" edge="1">
          <mxGeometry width="160" relative="1" as="geometry">
            <mxPoint x="485.42056074766356" y="150" as="sourcePoint" />
            <mxPoint x="604.2990654205607" y="172.27062500000002" as="targetPoint" />
            <Array as="points" />
          </mxGeometry>
        </mxCell>
        <mxCell id="YkDLoqTf-xVgrHszZ3nV-66" value="Zone D" style="sketch=0;points=[[0,0,0],[0.25,0,0],[0.5,0,0],[0.75,0,0],[1,0,0],[1,0.25,0],[1,0.5,0],[1,0.75,0],[1,1,0],[0.75,1,0],[0.5,1,0],[0.25,1,0],[0,1,0],[0,0.75,0],[0,0.5,0],[0,0.25,0]];rounded=1;absoluteArcSize=1;arcSize=2;html=1;strokeColor=#36393d;shadow=0;dashed=0;fontSize=12;align=left;verticalAlign=top;spacing=10;spacingTop=-4;fillColor=#f9f7ed;" parent="YkDLoqTf-xVgrHszZ3nV-15" vertex="1">
          <mxGeometry x="19.813084112149532" y="468.21" width="554.7663551401869" height="91.79" as="geometry" />
        </mxCell>
        <mxCell id="YkDLoqTf-xVgrHszZ3nV-68" value="Network AB - 10.0.20.0/24" style="sketch=0;points=[[0,0,0],[0.25,0,0],[0.5,0,0],[0.75,0,0],[1,0,0],[1,0.25,0],[1,0.5,0],[1,0.75,0],[1,1,0],[0.75,1,0],[0.5,1,0],[0.25,1,0],[0,1,0],[0,0.75,0],[0,0.5,0],[0,0.25,0]];rounded=1;absoluteArcSize=1;arcSize=2;html=1;strokeColor=none;gradientColor=none;shadow=0;dashed=0;fontSize=12;fontColor=#9E9E9E;align=left;verticalAlign=top;spacing=10;spacingTop=-4;fillColor=#EDE7F6;" parent="YkDLoqTf-xVgrHszZ3nV-66" vertex="1">
          <mxGeometry x="83.74" y="11.955993259318005" width="371.96093457943925" height="60.83544210943697" as="geometry" />
        </mxCell>
        <mxCell id="YkDLoqTf-xVgrHszZ3nV-75" value="" style="editableCssRules=.*;shape=image;verticalLabelPosition=bottom;labelBackgroundColor=#ffffff;verticalAlign=top;aspect=fixed;imageAspect=0;image=data:image/svg+xml,PHN2ZyB4bWxucz0iaHR0cDovL3d3dy53My5vcmcvMjAwMC9zdmciIHhtbG5zOnY9Imh0dHBzOi8vdmVjdGEuaW8vbmFubyIgd2lkdGg9IjIwIiBoZWlnaHQ9IjIwIiBmaWxsPSIjNDI4NWY0IiB2aWV3Qm94PSIwIDAgMjAgMjAiPiYjeGE7CTxzdHlsZSB0eXBlPSJ0ZXh0L2NzcyI+JiN4YTsJLnN0MHtmaWxsOiM0Mjg1ZjQ7fSYjeGE7CTwvc3R5bGU+JiN4YTsJPHBhdGggY2xhc3M9InN0MCIgZD0iTTAgMGg4Ljg5djIuMjJIMHptMCAxNy43OGg4Ljg5VjIwSDB6bTAtOC44OWg4Ljg5djIuMjJIMHpNMTEuMTEgMEgyMHYyLjIyaC04Ljg5em0wIDE3Ljc4SDIwVjIwaC04Ljg5em0wLTguODlIMjB2Mi4yMmgtOC44OXpNNS41NSA0LjQ0aDguODl2Mi4yMkg1LjU1em0wIDguODloOC44OXYyLjIySDUuNTV6TTAgNC40NGgzLjMzdjIuMjJIMHptMCA4Ljg5aDMuMzN2Mi4yMkgwem0xNi42Ny04Ljg5SDIwdjIuMjJoLTMuMzN6bTAgOC44OUgyMHYyLjIyaC0zLjMzeiIvPiYjeGE7PC9zdmc+;strokeColor=default;fillColor=none;" parent="YkDLoqTf-xVgrHszZ3nV-66" vertex="1">
          <mxGeometry x="130.84254885301613" y="76.98373563918759" width="3.411387625732342" height="3.411387625732342" as="geometry" />
        </mxCell>
        <mxCell id="YkDLoqTf-xVgrHszZ3nV-105" value="" style="editableCssRules=.*;shape=image;verticalLabelPosition=bottom;labelBackgroundColor=#ffffff;verticalAlign=top;aspect=fixed;imageAspect=0;image=data:image/svg+xml,PHN2ZyB4bWxucz0iaHR0cDovL3d3dy53My5vcmcvMjAwMC9zdmciIHhtbG5zOnY9Imh0dHBzOi8vdmVjdGEuaW8vbmFubyIgd2lkdGg9IjIwIiBoZWlnaHQ9IjIwIiB2aWV3Qm94PSIwIDAgMjAgMjAiPiYjeGE7CTxzdHlsZSB0eXBlPSJ0ZXh0L2NzcyI+JiN4YTsJLnN0MHtmaWxsOiM0Mjg1ZjQ7fSYjeGE7CS5zdDF7ZmlsbDojNjY5ZGY2O30mI3hhOwkuc3Qye2ZpbGw6I2FlY2JmYTt9JiN4YTsJPC9zdHlsZT4mI3hhOwk8cGF0aCBjbGFzcz0ic3QyIiBkPSJNNyA3aDZ2Nkg3eiIvPiYjeGE7CTxwYXRoIGNsYXNzPSJzdDEiIGQ9Ik05IDBoMnY0SDl6TTUgMGgydjRINXptOCAwaDJ2NGgtMnoiLz4mI3hhOwk8cGF0aCBjbGFzcz0ic3QwIiBkPSJNOSAxNmgydjRIOXptLTQgMGgydjRINXptOCAwaDJ2NGgtMnptMy01VjloNHYyem0wIDR2LTJoNHYyem0wLThWNWg0djJ6Ii8+JiN4YTsJPHBhdGggY2xhc3M9InN0MSIgZD0iTTAgMTFWOWg0djJ6bTAgNHYtMmg0djJ6bTAtOFY1aDR2MnoiLz4mI3hhOwk8cGF0aCBjbGFzcz0ic3QyIiBkPSJNMyAzdjE0aDE0VjN6bTEyIDEySDVWNWgxMHoiLz4mI3hhOwk8cGF0aCBjbGFzcz0ic3QxIiBkPSJNMTAgMTBsLTMgM2g2eiIvPiYjeGE7CTxwYXRoIGNsYXNzPSJzdDAiIGQ9Ik0xMyA3bC0zIDMgMyAzeiIvPiYjeGE7PC9zdmc+;strokeColor=default;fillColor=none;" parent="YkDLoqTf-xVgrHszZ3nV-66" vertex="1">
          <mxGeometry x="326.91588785046724" y="18.197858842188662" width="22.31650065747053" height="22.31650065747053" as="geometry" />
        </mxCell>
        <mxCell id="YkDLoqTf-xVgrHszZ3nV-108" value="&lt;a href=&quot;https://console.cloud.google.com/compute/instancesDetail/zones/us-east1-d/instances/web-server-group-zdc4?project=sonic-cat-338704&quot; style=&quot;box-sizing: border-box ; border-width: 0px 0px 1px ; border-bottom-style: solid ; border-bottom-color: rgb(51 , 103 , 214) ; font-family: &amp;#34;roboto&amp;#34; ; font-size: 13px ; margin: 0px ; outline: 0px ; padding: 0px ; vertical-align: baseline ; color: rgb(51 , 103 , 214) ; cursor: pointer ; text-align: left ; background-color: rgba(0 , 0 , 0 , 0.04)&quot;&gt;web-server-group-zdc4&lt;/a&gt;" style="text;html=1;resizable=0;autosize=1;align=center;verticalAlign=middle;points=[];fillColor=none;strokeColor=none;rounded=0;" parent="YkDLoqTf-xVgrHszZ3nV-66" vertex="1">
          <mxGeometry x="270.0523364485981" y="45.494647105471856" width="140" height="20" as="geometry" />
        </mxCell>
        <mxCell id="YkDLoqTf-xVgrHszZ3nV-126" value="Cloud&#xa;Firewall Rules" style="sketch=0;html=1;fillColor=#5184F3;strokeColor=none;verticalAlign=top;labelPosition=center;verticalLabelPosition=bottom;align=center;spacingTop=-6;fontSize=11;fontStyle=1;fontColor=#999999;shape=mxgraph.gcp2.hexIcon;prIcon=cloud_firewall_rules" parent="YkDLoqTf-xVgrHszZ3nV-66" vertex="1">
          <mxGeometry x="425.9813084112149" y="25.534107142857067" width="49.53271028037383" height="40.71428571428571" as="geometry" />
        </mxCell>
        <mxCell id="YkDLoqTf-xVgrHszZ3nV-102" value="" style="strokeColor=#dddddd;shadow=1;strokeWidth=1;rounded=1;absoluteArcSize=1;arcSize=2;fillColor=none;" parent="YkDLoqTf-xVgrHszZ3nV-15" vertex="1">
          <mxGeometry x="306.8551401869159" y="154.73000000000002" width="102.53271028037383" height="58.66" as="geometry" />
        </mxCell>
        <mxCell id="YkDLoqTf-xVgrHszZ3nV-103" value="Cloud &#xa;DNS" style="sketch=0;dashed=0;connectable=0;html=1;fillColor=#5184F3;strokeColor=none;shape=mxgraph.gcp2.hexIcon;prIcon=cloud_dns;part=1;labelPosition=right;verticalLabelPosition=middle;align=left;verticalAlign=middle;spacingLeft=5;fontColor=#999999;fontSize=12;" parent="YkDLoqTf-xVgrHszZ3nV-102" vertex="1">
          <mxGeometry y="0.5" width="50" height="39.5" relative="1" as="geometry">
            <mxPoint x="5" y="-19.5" as="offset" />
          </mxGeometry>
        </mxCell>
        <mxCell id="YkDLoqTf-xVgrHszZ3nV-107" value="&lt;a href=&quot;https://console.cloud.google.com/compute/instancesDetail/zones/us-east1-b/instances/web-server-group-ml54?project=sonic-cat-338704&quot; style=&quot;box-sizing: border-box ; border-width: 0px 0px 1px ; border-bottom-style: solid ; border-bottom-color: rgb(51 , 103 , 214) ; font-family: &amp;#34;roboto&amp;#34; ; font-size: 13px ; margin: 0px ; outline: 0px ; padding: 0px ; vertical-align: baseline ; color: rgb(51 , 103 , 214) ; cursor: pointer ; text-align: left ; background-color: rgba(0 , 0 , 0 , 0.04)&quot;&gt;web-server-group-ml54&lt;/a&gt;" style="text;html=1;resizable=0;autosize=1;align=center;verticalAlign=middle;points=[];fillColor=none;strokeColor=none;rounded=0;" parent="YkDLoqTf-xVgrHszZ3nV-15" vertex="1">
          <mxGeometry x="288.77570093457945" y="396.96428571428567" width="140" height="20" as="geometry" />
        </mxCell>
        <mxCell id="YkDLoqTf-xVgrHszZ3nV-109" value="&lt;a href=&quot;https://console.cloud.google.com/compute/instancesDetail/zones/us-east1-b/instances/vm-ab-1?project=sonic-cat-338704&quot; style=&quot;box-sizing: border-box ; border-width: 0px 0px 1px ; border-bottom-style: solid ; border-bottom-color: rgb(51 , 103 , 214) ; font-family: &amp;#34;roboto&amp;#34; ; font-size: 13px ; margin: 0px ; outline: 0px ; padding: 0px ; vertical-align: baseline ; color: rgb(51 , 103 , 214) ; cursor: pointer ; text-align: left ; background-color: rgba(0 , 0 , 0 , 0.04)&quot;&gt;vm-ab-1&lt;/a&gt;" style="text;html=1;resizable=0;autosize=1;align=center;verticalAlign=middle;points=[];fillColor=none;strokeColor=none;rounded=0;" parent="YkDLoqTf-xVgrHszZ3nV-15" vertex="1">
          <mxGeometry x="111.5476635514019" y="408.8426785714285" width="60" height="20" as="geometry" />
        </mxCell>
        <mxCell id="YkDLoqTf-xVgrHszZ3nV-110" value="&lt;a href=&quot;https://console.cloud.google.com/compute/instancesDetail/zones/us-east1-b/instances/vm-aa1?project=sonic-cat-338704&quot; style=&quot;box-sizing: border-box ; border-width: 0px 0px 1px ; border-bottom-style: solid ; border-bottom-color: rgb(51 , 103 , 214) ; font-family: &amp;#34;roboto&amp;#34; ; font-size: 13px ; margin: 0px ; outline: 0px ; padding: 0px ; vertical-align: baseline ; color: rgb(51 , 103 , 214) ; cursor: pointer ; text-align: left ; background-color: rgba(0 , 0 , 0 , 0.04)&quot;&gt;vm-aa1&lt;/a&gt;" style="text;html=1;resizable=0;autosize=1;align=center;verticalAlign=middle;points=[];fillColor=none;strokeColor=none;rounded=0;" parent="YkDLoqTf-xVgrHszZ3nV-15" vertex="1">
          <mxGeometry x="106.5943925233645" y="193.39285714285714" width="50" height="20" as="geometry" />
        </mxCell>
        <mxCell id="YkDLoqTf-xVgrHszZ3nV-114" value="&lt;a href=&quot;https://console.cloud.google.com/compute/instancesDetail/zones/us-east1-b/instances/vm-ba-1?project=sonic-cat-338704&quot; style=&quot;box-sizing: border-box ; border-width: 0px 0px 1px ; border-bottom-style: solid ; border-bottom-color: rgb(51 , 103 , 214) ; font-family: &amp;#34;roboto&amp;#34; ; font-size: 13px ; margin: 0px ; outline: 0px ; padding: 0px ; vertical-align: baseline ; color: rgb(51 , 103 , 214) ; cursor: pointer ; text-align: left ; background-color: rgba(0 , 0 , 0 , 0.04)&quot;&gt;vm-ba-1&lt;/a&gt;" style="text;html=1;resizable=0;autosize=1;align=center;verticalAlign=middle;points=[];fillColor=none;strokeColor=none;rounded=0;" parent="YkDLoqTf-xVgrHszZ3nV-15" vertex="1">
          <mxGeometry x="922.7547663551401" y="181.33571428571426" width="60" height="20" as="geometry" />
        </mxCell>
        <mxCell id="YkDLoqTf-xVgrHszZ3nV-115" value="&lt;a href=&quot;https://console.cloud.google.com/compute/instancesDetail/zones/us-east1-b/instances/vm-bb-1?project=sonic-cat-338704&quot; style=&quot;box-sizing: border-box ; border-width: 0px 0px 1px ; border-bottom-style: solid ; border-bottom-color: rgb(51 , 103 , 214) ; font-family: &amp;#34;roboto&amp;#34; ; font-size: 13px ; margin: 0px ; outline: 0px ; padding: 0px ; vertical-align: baseline ; color: rgb(51 , 103 , 214) ; cursor: pointer ; text-align: left ; background-color: rgba(0 , 0 , 0 , 0.04)&quot;&gt;vm-bb-1&lt;/a&gt;" style="text;html=1;resizable=0;autosize=1;align=center;verticalAlign=middle;points=[];fillColor=none;strokeColor=none;rounded=0;" parent="YkDLoqTf-xVgrHszZ3nV-15" vertex="1">
          <mxGeometry x="922.7448598130842" y="396.96428571428567" width="60" height="20" as="geometry" />
        </mxCell>
        <mxCell id="YkDLoqTf-xVgrHszZ3nV-122" value="Cloud&#xa;Firewall Rules" style="sketch=0;html=1;fillColor=#5184F3;strokeColor=none;verticalAlign=top;labelPosition=center;verticalLabelPosition=bottom;align=center;spacingTop=-6;fontSize=11;fontStyle=1;fontColor=#999999;shape=mxgraph.gcp2.hexIcon;prIcon=cloud_firewall_rules" parent="YkDLoqTf-xVgrHszZ3nV-15" vertex="1">
          <mxGeometry x="445.7943925233645" y="398.66410714285706" width="49.532710280373834" height="40.71428571428571" as="geometry" />
        </mxCell>
        <mxCell id="YkDLoqTf-xVgrHszZ3nV-125" value="Cloud&#xa;Firewall Rules" style="sketch=0;html=1;fillColor=#5184F3;strokeColor=none;verticalAlign=top;labelPosition=center;verticalLabelPosition=bottom;align=center;spacingTop=-6;fontSize=11;fontStyle=1;fontColor=#999999;shape=mxgraph.gcp2.hexIcon;prIcon=cloud_firewall_rules" parent="YkDLoqTf-xVgrHszZ3nV-15" vertex="1">
          <mxGeometry x="425.98130841121497" y="202.81821428571428" width="49.532710280373834" height="40.71428571428571" as="geometry" />
        </mxCell>
        <mxCell id="YkDLoqTf-xVgrHszZ3nV-124" value="Cloud&#xa;Firewall Rules" style="sketch=0;html=1;fillColor=#5184F3;strokeColor=none;verticalAlign=top;labelPosition=center;verticalLabelPosition=bottom;align=center;spacingTop=-6;fontSize=11;fontStyle=1;fontColor=#999999;shape=mxgraph.gcp2.hexIcon;prIcon=cloud_firewall_rules" parent="YkDLoqTf-xVgrHszZ3nV-15" vertex="1">
          <mxGeometry x="683.5514018691589" y="193.39285714285714" width="49.532710280373834" height="40.71428571428571" as="geometry" />
        </mxCell>
        <mxCell id="YkDLoqTf-xVgrHszZ3nV-123" value="Cloud&#xa;Firewall Rules" style="sketch=0;html=1;fillColor=#5184F3;strokeColor=none;verticalAlign=top;labelPosition=center;verticalLabelPosition=bottom;align=center;spacingTop=-6;fontSize=11;fontStyle=1;fontColor=#999999;shape=mxgraph.gcp2.hexIcon;prIcon=cloud_firewall_rules" parent="YkDLoqTf-xVgrHszZ3nV-15" vertex="1">
          <mxGeometry x="689.3467289719625" y="398.66410714285706" width="49.532710280373834" height="40.71428571428571" as="geometry" />
        </mxCell>
        <mxCell id="YkDLoqTf-xVgrHszZ3nV-127" value="Cloud VPN" style="sketch=0;html=1;fillColor=#5184F3;strokeColor=none;verticalAlign=top;labelPosition=center;verticalLabelPosition=bottom;align=center;spacingTop=-6;fontSize=11;fontStyle=1;fontColor=#999999;shape=mxgraph.gcp2.hexIcon;prIcon=cloud_vpn" parent="YkDLoqTf-xVgrHszZ3nV-15" vertex="1">
          <mxGeometry x="418.05607476635515" y="114.54000000000002" width="65.38317757009345" height="58.5" as="geometry" />
        </mxCell>
        <mxCell id="YkDLoqTf-xVgrHszZ3nV-128" value="Cloud VPN" style="sketch=0;html=1;fillColor=#5184F3;strokeColor=none;verticalAlign=top;labelPosition=center;verticalLabelPosition=bottom;align=center;spacingTop=-6;fontSize=11;fontStyle=1;fontColor=#999999;shape=mxgraph.gcp2.hexIcon;prIcon=cloud_vpn" parent="YkDLoqTf-xVgrHszZ3nV-15" vertex="1">
          <mxGeometry x="675.626168224299" y="114.53999999999999" width="65.38317757009345" height="58.5" as="geometry" />
        </mxCell>
        <mxCell id="YkDLoqTf-xVgrHszZ3nV-129" value="Cloud Load&#xa;Balancing" style="sketch=0;html=1;fillColor=#5184F3;strokeColor=none;verticalAlign=top;labelPosition=center;verticalLabelPosition=bottom;align=center;spacingTop=-6;fontSize=11;fontStyle=1;fontColor=#999999;shape=mxgraph.gcp2.hexIcon;prIcon=cloud_load_balancing" parent="YkDLoqTf-xVgrHszZ3nV-15" vertex="1">
          <mxGeometry x="445.7943925233645" y="313.78" width="49.532710280373834" height="47.36" as="geometry" />
        </mxCell>
        <mxCell id="YkDLoqTf-xVgrHszZ3nV-132" value="" style="curved=1;endArrow=classic;html=1;rounded=0;entryX=1;entryY=0.5;entryDx=0;entryDy=0;exitX=0.25;exitY=0.33;exitDx=0;exitDy=0;exitPerimeter=0;" parent="YkDLoqTf-xVgrHszZ3nV-15" source="YkDLoqTf-xVgrHszZ3nV-129" target="YkDLoqTf-xVgrHszZ3nV-33" edge="1">
          <mxGeometry width="50" height="50" relative="1" as="geometry">
            <mxPoint x="406.1682242990654" y="370" as="sourcePoint" />
            <mxPoint x="455.70093457943926" y="320" as="targetPoint" />
            <Array as="points">
              <mxPoint x="455.70093457943926" y="370" />
              <mxPoint x="406.1682242990654" y="320" />
            </Array>
          </mxGeometry>
        </mxCell>
        <mxCell id="YkDLoqTf-xVgrHszZ3nV-133" value="" style="curved=1;endArrow=classic;html=1;rounded=0;entryX=1;entryY=0.5;entryDx=0;entryDy=0;" parent="YkDLoqTf-xVgrHszZ3nV-15" target="YkDLoqTf-xVgrHszZ3nV-105" edge="1">
          <mxGeometry width="50" height="50" relative="1" as="geometry">
            <mxPoint x="425.98130841121497" y="340" as="sourcePoint" />
            <mxPoint x="455.70093457943926" y="320" as="targetPoint" />
            <Array as="points">
              <mxPoint x="406.1682242990654" y="320" />
              <mxPoint x="406.1682242990654" y="380" />
            </Array>
          </mxGeometry>
        </mxCell>
        <mxCell id="YkDLoqTf-xVgrHszZ3nV-134" value="ricardo-webserver&lt;br&gt;" style="text;html=1;resizable=0;autosize=1;align=center;verticalAlign=middle;points=[];fillColor=none;strokeColor=none;rounded=0;" parent="YkDLoqTf-xVgrHszZ3nV-15" vertex="1">
          <mxGeometry x="188.22429906542055" y="193.39" width="110" height="20" as="geometry" />
        </mxCell>
        <mxCell id="YkDLoqTf-xVgrHszZ3nV-141" value="" style="editableCssRules=.*;shape=image;verticalLabelPosition=bottom;labelBackgroundColor=#ffffff;verticalAlign=top;aspect=fixed;imageAspect=0;image=data:image/svg+xml,PHN2ZyB4bWxucz0iaHR0cDovL3d3dy53My5vcmcvMjAwMC9zdmciIHhtbG5zOnY9Imh0dHBzOi8vdmVjdGEuaW8vbmFubyIgd2lkdGg9IjIwIiBoZWlnaHQ9IjIwIiB2aWV3Qm94PSIwIDAgMjAgMjAiPiYjeGE7CTxzdHlsZSB0eXBlPSJ0ZXh0L2NzcyI+JiN4YTsJLnN0MHtmaWxsOiM0Mjg1ZjQ7fSYjeGE7CS5zdDF7ZmlsbDojNjY5ZGY2O30mI3hhOwkuc3Qye2ZpbGw6I2FlY2JmYTt9JiN4YTsJPC9zdHlsZT4mI3hhOwk8cGF0aCBjbGFzcz0ic3QyIiBkPSJNNyA3aDZ2Nkg3eiIvPiYjeGE7CTxwYXRoIGNsYXNzPSJzdDEiIGQ9Ik05IDBoMnY0SDl6TTUgMGgydjRINXptOCAwaDJ2NGgtMnoiLz4mI3hhOwk8cGF0aCBjbGFzcz0ic3QwIiBkPSJNOSAxNmgydjRIOXptLTQgMGgydjRINXptOCAwaDJ2NGgtMnptMy01VjloNHYyem0wIDR2LTJoNHYyem0wLThWNWg0djJ6Ii8+JiN4YTsJPHBhdGggY2xhc3M9InN0MSIgZD0iTTAgMTFWOWg0djJ6bTAgNHYtMmg0djJ6bTAtOFY1aDR2MnoiLz4mI3hhOwk8cGF0aCBjbGFzcz0ic3QyIiBkPSJNMyAzdjE0aDE0VjN6bTEyIDEySDVWNWgxMHoiLz4mI3hhOwk8cGF0aCBjbGFzcz0ic3QxIiBkPSJNMTAgMTBsLTMgM2g2eiIvPiYjeGE7CTxwYXRoIGNsYXNzPSJzdDAiIGQ9Ik0xMyA3bC0zIDMgMyAzeiIvPiYjeGE7PC9zdmc+;strokeColor=default;fillColor=none;" parent="YkDLoqTf-xVgrHszZ3nV-15" vertex="1">
          <mxGeometry x="227.85406966864912" y="166.25218894009214" width="24.960377277229856" height="24.960377277229856" as="geometry" />
        </mxCell>
        <mxCell id="YkDLoqTf-xVgrHszZ3nV-63" value="" style="editableCssRules=.*;shape=image;verticalLabelPosition=bottom;labelBackgroundColor=#ffffff;verticalAlign=top;aspect=fixed;imageAspect=0;image=data:image/svg+xml,PHN2ZyB4bWxucz0iaHR0cDovL3d3dy53My5vcmcvMjAwMC9zdmciIHhtbG5zOnY9Imh0dHBzOi8vdmVjdGEuaW8vbmFubyIgd2lkdGg9IjQyNCIgaGVpZ2h0PSI0MjQiIHZpZXdCb3g9IjAgMCA0MjQgNDI0Ij4mI3hhOwk8c3R5bGUgdHlwZT0idGV4dC9jc3MiPiYjeGE7CS5zdDB7ZmlsbDojNDI4NWY0O30mI3hhOwk8L3N0eWxlPiYjeGE7CTxwYXRoIGNsYXNzPSJzdDAiIGQ9Ik00MjQgMHY0MjRIMFYwek0yMTIgOTcuODQ2Yy0zNy44ODQgMC03MC4xNjQgMjMuOTktODIuNDc4IDU3LjYwOGgwbC0zLjQwMy4wMDFjLTQyLjYzNCAwLTc3LjE5NiAzNC41NjItNzcuMTk2IDc3LjE5NnMzNC41NjIgNzcuMTk2IDc3LjE5NiA3Ny4xOTZoMCAxNzEuNzYzYzQyLjYzNCAwIDc3LjE5Ni0zNC41NjIgNzcuMTk2LTc3LjE5NnMtMzQuNTYyLTc3LjE5Ni03Ny4xOTYtNzcuMTk2aDBsLTMuNDAzLS4wMDFDMjgyLjE2NCAxMjEuODM3IDI0OS44ODQgOTcuODQ2IDIxMiA5Ny44NDZ6IiBmaWxsLXJ1bGU9ImV2ZW5vZGQiLz4mI3hhOzwvc3ZnPg==;strokeColor=default;fillColor=none;" parent="YkDLoqTf-xVgrHszZ3nV-14" vertex="1">
          <mxGeometry x="535" y="-12.307692307692308" width="24.615384615384617" height="24.615384615384617" as="geometry" />
        </mxCell>
        <mxCell id="YkDLoqTf-xVgrHszZ3nV-143" value="" style="shape=image;verticalLabelPosition=bottom;labelBackgroundColor=default;verticalAlign=top;aspect=fixed;imageAspect=0;image=data:image/png,iVBORw0KGgoAAAANSUhEUgAAANMAAAEeCAYAAAAQBiAHAAAgAElEQVR4nOydd5ycVb3/38956tSd7dkUICGQXoBAUKQIhKIhdAFBBVHAetV7rw1RsbdrRQER8HoFaUIuSO8gYpSQYCAJhPRkd5Ot0596zu+PZ2ayQZHcnwk1H17zYjcz8+yZZ873fPvnqymlFLuxG7vxL0O81gvYjd14s8B4rRfwZkNE2PhZ1f4bCU3qaJqGpmnx72iN1wLIiNrzUHvJ9tcPaDwnXnIUKgWRDDGMv/9a6waI9o8uuhs7BdpuM2/nwvXLDWERQqALfbvntX9iDCil0DT9ZZ9TSiG0+P1KQhRF8b8Jga4L0LYJ5civVbxU6nZjl2C3MO10yL//p5ogAISh3xC2usCNVEFhEAFs9xptpJoKo1glvZyG0bYJzm5t9Opit5m3kxF44XaCEm/kbWadab3kDUohaxpGKYVh2v/0+r7vo+s6uq5vs/PkCAE2xD8UIqUUYRhimua/+hF342WwWzPtbPyTu6mkJNJUY5ML7Z+ZfBBFEinldiabY28zA6WU+H6s6UzTRAhBFG3TgkKI3Sbeq4jdwrSTUal6Da1U10x1raOUQrO2GQOSbUqlrkQ0YkGqQ8SuUAPlYgnLsnDsl6q4GC/1uOp+la7ru829XYzdwrST4b/Mv9cFZ2NvP57nUSgUGB4eZnh4mGKxSLVaJQgC8vlSw0w0DAPTNLFtG9M0MQyDcV3tZLNZWltbaWpqIpFIYJomliXQNYgqFWzbjs1AYu0VRVEtSPGPgxu7sXOw22fayaj4AeVyma1bt7JhwwbWrFnD2rVr2bx5M/l8nr6CRxRFhGFIEAQNzVGHhtkw7eLontbwkYQQEFUagmEYBul0ms7OTsaOHUtbWxtzp06ko6ODsWPH0tLSsv17d2OX4q2nmSREEqRUCEMDEbs5dRdeCyJMs3aCK+LEDhJqp3roeRhOAhBU/AhPQtkLWb7iBRYveYanly5hc0833Zt7CYIAw7YxDIMgDOMAgGPjeR6e5yGEwHEcTNPE932q1SrZXJZqpdIwydLpJFt7emlpaUHTNKqhiwwjhDCwDRMZKoIgxNINEokUZbdEMumQy6Zpb2th3wkT2H/2LA7YbxZ77DGWpIg1pK6B0GqfkRD8IP7Fdmp3QjRuQX2HKA2IooaGq2u8uilbqVRIpVK77rt7neMtJ0zBSGEh3iye7zXMKh0BSuGHAUKIRgJUKUW16mElHTZv6eO5FSt49rkVLF6yjGXPPsfWgUEU0NTaUdM4sXhGUUQQhkB8Ldcrk06nSSQSBEFAtVpFStkw6QIZNYTMq5RJJpP09W8hk0ojpSTTlKVcqhKGIbadwDSsmiB6hGGIbhBrIw10TWHoGknHIZVIYFkGB+8/h7lzD2TO/gfQlEmBkmSSCUxDAJJKubzNJNS212oKkC8Rpt3+2Da85YRJIQlr5pXQNCzb3i4C5/tVQGCYNpoQREDFU2zu6aWvr49rbriBlStXsnbduoYQgCCRSNDU1ERvXwEpZUMgdF1H1qIMQgj86jCapiGljDe/rjf8HqUUffkyaApDExQKw0wYvyeajAh8n8HBQQzNJpRRrCWEAZpAGQZOIkEqlaJcyMcBEAVSRUSBjwxDoigAqUglHQzDoCXXxNSpk5l31NG84+0Hk8vlqJSLdDVlGveiUqkQRRGppINo+Ft/by6GYbg7cshbUpgCYFsZD6pm54WSaqlMoiUFCCIEW4cKLF22nAcfeZzHn1jE6rVriBIO6XQax7IIggC3WkaGfuwDeT52srUWELAQSlKpVKhWSgghSCQcRFCmubmZ0aNHM2HCBKZNm8akSZPI5XJIKfnARz+FW66gCUhaJh86/wPMPfBAAq/Kpk2beHbJclavXcuLa9ZSqJQxE0mkEAwV8wwM5WnL5mqfNBZooeJ8k23bJJIOhfxAI5SuwoihoSESCZujjz6a+fPnM3OP0Yxqb6OpJlQNfaMi8vk8TbmWxmFRR11D/aMyprcS3nLCRE2YQCMIImSosBt+AkQCli5bxt33P8ijf/wzK1atplB2SaabyDW3kverEEmqbhnf9bBti6ZsGqGgUi2Rax5DoTBMpVhCaIqkbZNwLBKOhW3bfOCMU5g0aRKTJk2iuTmHYcQb1g9iTXDgMSfF2gVF2jH59jcu5aR3H40AXD/EkAZ+pFi/cQP3P/wwf7jnXla88DyaaZFrbcGreERhrAk1TcMLA3zfRwiDRCKBJSTDw8NIKWlubcGyLEqlCmEYkkgk6LAFxxxzDCeeMJ999h6PLjR0Yo3WuINBgJSyEdyolzS91fGWE6YodGPPWwmEbiKJFVNP7yCrVq/lymuvpru3hy19A0glMCybQEEUSqQmCGu1d4lEgnQ6TRQpisUinudhGAZDA0M0NzeTy2SQkYeQEfvuM4GTTzyB4445Fq9UoLW1FdPY3seougH9/f2cdP6nqFRK6ErhVYt86fP/wVmnn4iQYIhtRlZ93dUQnl76N27+/W088NCDBFKj6rmAwEkm0U2LMIgIVbz5E5rEtm1c32N4uADCIJtrQkkYHh6mJZMhPzSIbeocdOABnHbSAo447FBac0nCUOGMWHcYhkRR1EgYv9XxlhOmoFrBdJKgQQj0DpRYtPhpbr39Dzz08MMkMlmqVQ+lFKZtIWVsqimlYr9IhBxy6KHMOWgu+WKJhx/5I395egl+ENLS0kZz2qG3txtdSeYedABnnHoKRx1+KK3NWQTbzCbXdalUKmQyGUzTJIoiNm3axDtOPR/PrZC0LEK3yNe//CXOOv1kZFAl6cSlRmEYNrSN4zigYHi4RG9vL9/6xS9YtWo1q9euJYgiEsk0ummDiLXIRe89g0yuiS1btvLoY39k+coXMCybVDpDGIZUI4GKAjQlMYUiYVtM3mc87zr2WI585+E0OxodHR3b7mcQNEqUXmr+vdXwlhMmIgWaxmC+xG133sXv77iTZ59fRaDp2MkEpYqHqOV2VBQShD7tLa28/eC5vO1tb+O9xx1BoVjkgYce5drfXMeSZc+RzrWSyjZTqlTxS/3MnXMAJ590IscedQSdLRl0IAyrREFIFClS6XS8FqUapQ8yiujr62Pe+z7N4MAWTE1Di1x++N1vcsKxR+KWy6RSCcKwgmHU6veUBrJWBKsERBGupXP/Q49x/Q038bdnn6PseUilIRFomk46cjnzzDM5+5z309zawlNPP8Nd9z3IokWL2LhpMyrdRuBVMXRByjYIqiXKhWGyKZuuri4ufO/JzJkzhylTpqBpGtGI6N5uYXoDClM96Wnb8aaqm1i6rhMbOGBK0AJAk6CD0gUSiVCCGxfezTXXX8fKdevR7SRRCGE1wDZsypU8XV2d+NUyrbkUZ512IsfPeycdrVlSSYdhX+cXV13Lr3/3ewaKFbJNzcgoIPKqOIbGufOPYsGCBcyaNQuAcjkOb2ua1ojejdyEjdYKIdi4cSNHn/0R8oVhDBOEDPnGl7/EmSfOx5Ayzgv9k3o+gCoROjq9A0Ncf9PN3LLwDtZv2IzhpLASDkoFeOUKC+Ydx2c/9SnGj23B0GDlimWsW/M8V972AMueW47vBeRybQwXyhRLLo6drLWHVBi/5zhOfve7Of2k+ezR0YT0fHSlwNCJ6kEIJZFxATyaJjDqy34TR9DfcMLkeV5DiOoIw7ghT9d1XA0sNHTFtpC3BluHC6xat4Yf/+hyXlizmmoUokyTni19RH5AR3M7Sdsh7ZjsPXE8p518Moe+42ASjknSMtCQFPKDfOm7P+OJRX9lY/dWUk3NFItFhgf6OWTu/nzg7LM5+chDaG5uRtd1giAgCAISiUQjD1OvathVwhQQ4vkhluUggYf/9FeuvOpq/vzXxXFoXgdNCRxN58AZs/nJ979LW5NDwtbx/TLSTvHk4qXc8Ye7uP/BR9iwsYf2ji6S6Sybe7oxHRPp+0Rehbn7z+aTF13AvMMPiUuZfJ+iV8Y0bZKJZENuKhUXgYaTsHcL0+sV9bKbkTVnJa9Myk6hAZ4bgaHT2z/MdTffzNXXXkPFkyTTKYYKQyAUozo6UUGAY5jMnD6DT3/4PNrb2xk1uqMhixJ4cc06fnv9dVx13W04ySSGEYfGE7bOQfvN4r3vOZl5RxxGvfx0pC9RX6sQYpcLE4S1ig6BQiCBJc8u5/obb+K+ex9gq4xoa26jd3Mvqupz2Ny5XPaj72MqnzGj2+MkdqgwDI3+fIXf3nAz1914Iz29W8k05XDRqFbK5FIpIs+lWspzzJHv5GMfuYj9Zk6h/onDyEcQm8vbbqRqVJK8GfGGTQxUKhWA7bRUGIak7URcvWCYeEpyx+33cPmvrmHZihdoyrWQG9XMps0byWWyZJM2kVfliHe8jQs++EGmT56EFXqgizivUiqTyGTp7hviimt/w4233IxhtyJ0g3K5jKPD0YcexccvPJ+pe49HI8TzIqIo2m5d9VDySzXqroFCAwKvQn/fIKNGj2HO9Kl0tlxAVy7HD2+6hUqlgmlZGE6SZS+s4sKPf4qf/uB7eCHYGthRiB8o2tJJPnnhB3jPaSdxy8LbuPGW37NuyzDZbJbBgX5UJGlpbeP+Pz7J4ueWM2/ePD5x7lnsNW4chm4R+D7VSpF0OgPIN7VWAtC/+tWvfvW1XsT/FXEkK64wEEIQBAGeF5cEIQRCN3hmxfNc/NWvc+W1v8ZXGh1do3E9n6HCEJlkAhX4zJk1nR9951t84Kwz6WprQRChVUq1mICGnUiRr3pcdsWv+P3CP2AmMqSaWujf0ktTwuGc95zMRz74ASZPGIdGROR7mHaiESpWShEEcV7LsqxtvA+1WraRzrqmaRQKBX5z6514novQQVOSIw8/jOmT90UoFa/rFcp2Qq+KMAwMwySVTKALHaFBUybLgXP2I9nczKMPP0yutRXbSVAsl+nu7qGnu4dp02fT3uSg6QaGqVPMD6OkorkpzX6zZ3PcvKOQUtG9YR0yjMi15BgcGCaQEs1O8NTSv/Hi8r8hNcHkSZPQDR3LtCgXihiaQDPEDmjWNy7ecGbePypdGRlRKgVwxa+u4rc33MhgqUQilaVUrFAqVTCFQSbrMHfOAXz8wxdw8P5TIAJUiGHAwNAgrU3NNcYSg3zF43s//TnX33wbJT8kkUpTHCwwbnQnp59wHBeedzYdLRlQMi6AtW3Qtil713UxTbOxtmq1iuM4u9bMUw2vf9s6qlUs20YIgYfgkSf/zPkf/SQimaFYKBP4Pq3pNG874AAuu/SLtLS0IKyaOabFhbFBGGJZBgGw4oW1/PzyK7jvoYdxUlkwTAYKBZxEkqgwyJhRXRx91JGcedrJTNt3PDpxHAgZm91vVrwhNVNdkFzXbbQolEolXnzxRS75zo955Ikn6R0aQnccvCCgVCrQ1tTMzClT+NTHL+T97zmdaXvvhRHFJrxQgNBIJpLkC1UM02G47HL9Lbfyu1tupRpCuinHxs3dtGfSnHPmqZz/vjMZ1ZqD0ENFEbphEUUQhMG2FvRahLEOz/MaGmpXaSalxad/FEG16gFgOwk0TVAtV3FMjYzjMHHffbjj7rvJtrSQyWaQwNr1aykMbGWfKVPI5bIEvsRzXSzLxBCC0lCBpGkwqq2F+cfNY7/Z+7Nm7VpWvfgiujCRCppybazb2M3Spc+wcVM3mUyOsWPHYRjgeRLDfPNqpjeczzQyl1EvaQF4/PHHufLKK1m8ZpCyX0WzDGyp8DyXjrZ2Tpk/n3POPIspe3WOOCkBT4IV1+eVK2WcTAYp4PFFf+W/f/s71q7bRLKpmVC4jNtjD86efzxnnHIqXe3NoEJK+Tzp1lbAQBNga0YjyACxvxSGIZZlkU6n2dWGQBDFmsQwNZKpxIj7BolUEob76WxrYcG7jsPTDS759rcpDJZoyzVTLkfctPA2xo0fz3vPOJPWphSWlUAFoEUhmWwWCMHz0AyDw992AJOm/JibbruDW26/nTXrNrBp6yBjxu1F6FW4/+HHWLdmLevfdzannjSftpb0Lv3srzVed5pJIZFRiJQRQsRxKSUDNBmCJhH4EAWUqi4imaYQwFXX3cR3fnIZa3v7KCqLzlFd6EpR6h/i4Bmz+NoXPs95Z51KcyqNXctxDheHsBMGmqniyJPQwY+wTZ3nlq/iy9/8Acs39NIyZjylcoFsQufQg2bxk0u/QGtTsrZagZWMC2Mh9q9HcuJBHK5/abnNrtRMuogtqXq1Rf3V9bcpxyQKJY5hMrFrLDndYt0LL9LT3U0inSZAZ8lzz9I1ZjRTJk8iVJJAhgjHxA3jQIrh2CAEYRDQlLI5eL9pTN5jFLqbZ8P69WhKUvUDnFwLQ67Lo395koHCEPtOn0prMon0PTQkEKJcF82wCDUYdiHxhjvet+F1p3PdarXRRQqCKAzRhA563G4QlT0wbFLpLMNFl29853t8+3vfxw0ChGnSkUuzfvULSK/KRz78Qb7/nW9yxDsORFdg1nZXPl8kl20CoOpWMUyTwA+xkklCJfjmd3/Amg0b6ejooL93M44h2GfPPfjmVy95Te/NzoCGhtB1yuUy6bTDOeecwxFHHIau66STDqmmHMOFMtf8+rf86S9PI4TAtkwKQwMkLX27iGS9jQTggAMO4DOf+QwXf/4/IfSolvKo0KNUzCMl3P/gQ3zowx/jzvseQrNs0A28ShXNcUCT+H6E9QZ3p153msk0YzOpbs4JoVM/Y6NIoltpBgYK9PQX+O6Pf8Y1//NbDMfBkxFSKIZ6ujl07oF84qMX8b6zTmPcqGYIFabQqPNBRpHEsgw04goFx0kidIMggh9efjW/ueEWnFSaYrFIW0uOjKVx5U9/wISujm2tGy+DHWmS25Wa6ZXg+z6GYWAIA6EJDFNjj/ETyBcLPPvsswgrhR9G9A/007O5m3cdfxwJQ0fJANM0QIv7s+rNlEKIhhmbzWYZN3YsJ8w/njWr19C9qZvOUaPwXQ8/CNnSP0hvdy8hgqlTJ2NZDlEUEoUhjmVg6W/s2PnrTjOBxHVdXNeNW6YRuGGEGyrQTYIQNvYM8uGPfZKbb7ud0eP2QjMtsrkmpFKcdcp8PvXxD3POqe+mNeMgfR/L0AAJoUukIJVKENVO1ISTQiGINLj34Uf4/mVXsNfkKfQNDdPakkOXPl/70ueZMXEC5fzga3pndgYkMX+e0HX8IGR4sMA+e43lkx/7KHvtOYat/X20tXeQSudY8uxyrv71bymUKyRTSaRbAmI/0Pe3UccIIfA8Dykl7c1pxo/u4qqf/YizTlvAQM9mLENHCIPOrrE8s2I13//pFVx+7Q1UIsCw4k5kJdnWHvPGxOtOmKIwJJGwa1wCcQZfEyZK1wmB2+5+iC989eusWr+ZkPiLtIRG3+bNnHfOe7n0kos57OC56MS0V5ZlEEcaIlDghQEKKJVKhG6AbSWQwLKVa/nv392ISCQpuR7pdBJCn9NOPIETjzuawnA/2Wzm5Zb9hoFtJSiXqwBYpkHCsRDAPnuM4d//7ROM7mwn8D2GCnnSuVZ+8vPL+euSZwANYccBDcuK6zzqAiSEwK6H3ssVko5Na1OKS7/wWb7wmU9iaZKEbbFp/QbcMKJvuMAvrr6W7/zo5+SrIXYyTblchHC3MO1U6CPyEPlSEUWcWikUq9x6+z1868c/YcW6tRTcCp2dnWzZvBk99Pnxt7/BhWedSWdLCwnLpEauRRSGBG6t/NWwMC2TcqVMU1MOo2b3BRHccMvvefKpp9FNg8HBfjraWxjX1cEln/s3VCixLIe/Z6V74yFUkmxTE2EQgFIkkw6gqFRLvPuoo7no3LMp9vdCJCmWKwSYXHH1b1i7sReEQaVG9mJZFlat23hkhNJOxRE7TYGhQj7+offz6yt+TkvSIW3r+H6cexsuVrjp9j/ww19cycat/STTTWC8sdlmX3fCVIfrughhxNHrEO689z6uvOpqNvb1sqUwxOgxYygWC+yz9558/+tf430nnciEznakColkhOv5VCouumFhJpKg6VQqHgq21cwZFkh44P5Hue+hR/AR9Pf10tXZRnM2yZcu/jwasfZzEmlKxepreEd2DsrlMgCGYVAqFACJjkIoiUDyvtNO5NCD5zB6VCf9g0O0dnbx4GN/4s4HHqVY3Z5dti5UURTFLfyuSwSUqwGDAwNYpoGQIXNnTeeqy3/MnFnTaM5l8AOPVDZDyfW55n+u5+e/vJpN/QNEb/DD6nUnTKHn4bkujuOQSiaouAG33LqQG264iWf+toxUcxNtnR2s3biOvfbag69c/EVOPH4ehqaBW40rEITAsR0SySQKKFd8fF828i6WaTHY1wcKtvb2cd0Nv2Pjpk04qST7TBjP5k0bOGnBAubuP526zx9JSGfe+GZeJp0hknH9YLqpCSKJBmSSSXzp0pZJ8rGLPkzSsWhubmblqhdJZJq48ZbbWLbyBVKpFEopPC9mQxpJluk4Dn4ETtKkpbUVQh9NU+hC0pFr4rIf/YBpkyfSkmuip6eHqudjJlIs/MNd/PSyyyl6L0fh+cbAqy5MdaYe2NY6MfJnQ5fYjokrYdBX3HTXA/zg8mt45sV1pNpH0WJZ9K9fwzsP3I8ffeMS5h12IH7kUg0qkLDRAaMWc6s/UkkLy455hi0ZJ2ztRBORDjfd+wB3P76IdPtYqoGBO7SVU44/mtMWHF/L1UQILUCjDFr176ZT/N20itc5dMAQOrpZI5/Q4xSEjkFaJNFDn3fO2Z8LznoPpl+hOWmDgNWbe/jhlVdTlRComKDF0AEVEoc1wJeQ0GvGsAaYDmgmIOhsbWFMa45r/uvrvH363qTwac6k0E2DDX3D3PHIn/ncN3+AC+TLFVBQGS40Ks63FAZw/9GEkdcRXnVherlOzAazjWEynC8ihOC+++7jV7/6FYVCgcJwHsswWb/6RU5dcBJf/Ox/MnPqvgjAMUxs02pE6P4ZAjc+/TQh2NKX579/+1tGjx5Nf98WbFOjs72Dk046iVFtLbGJ6cclObpuQBTtjFvw+oYwKRQKnHjSCUyfMplMMoWuxdG6NWvWcNdd9yEEBKEETdT8UQhDib4Du6m9rZP/+t73+ehFH6GcH6ZSLjGqs4OBgQEef/xxLrn0UhKpJMVyhWRTtnH9tmxrLRz1+sVrZuaNpIaq55ViGGSa2rjr/ge55te/YeXKFwgCj/F7jqOYH+CE447jovPO5W37T8cAZKAwNB2hCULvlYVJCQUC7JTFZVdcyYaNm/E8D8c0EEpyzNFHMu+wQ+J+qGo19gmkBASBfEPVBP9/oymXoy2X4fwPnoehKzKpBGEYsrV/kOtuuJlNPQMIQwAi9kf/DyVSQRiQTjmcdcbpnPCuY9GlxCuVSDgWvb1bufmOP/DjX/4SK51kqFTBTDiEfoCuQH+dB/tedWGqtyWM7Dyt9/sEQUCIybIXVvGDH/+Mp5f8jdGjR+NVq8gwYP9ZM/nCv3+aQ+bMQAfK+QpENQEKI+xE8uX/cA2mY9M/XGT5i+v53S230jF6DOVKkZRjsve4Ls4+84zaJAqFZZgYiLiIM5II7Q1c67KD8KtxkKVSLHPMkYdw6NvnUi2XyOViPr7Fzyzj9jvviX3RWjCjXC5jGmKHNpPQDCoVjwnjOvnKxV/g7PeciiAmrRk3bhwVCT++4lf89rY7SGaSlNwAwzSp5Avo4vV9/191YaqzmdYRRRGWZcVZecNg6YpVfP6SS1m9fiPpbBN+GJKwLVqas1x6ycXsO2HP2BdSkM0msSyTSrFIsVDaoY8jgUiDn115FRg2rhfEJTJRyBknncDee4yhXCyhaxqOaTSu6QcRuvFqNPe9trBsG8KIbCYFQcS/feRCTEPD1HWUJvClxsI/3MXAcAVNxPcnmXzlQ6wOITQyydi3bc86fPyCDzH/2HlUS2WKhTKGmcQNJN/5rx/x2F+WIGyTIFAks9kaH/rrF6+JmVcvp3kpenp6+PlV1/LkX5aghEWmqZn+/n5mzZ7Bd7/9TWZP2weNl/gtGiTTaRKZ9A51ckbAC+vW8ugTT2Akk5RcF9/3mT19KqcseDc6IH0PI740+eFhQGCaNq/D4OfOh24yMDAASBImTNt3PGecegoDA31IDRLJFCtfeJGFd9yFEnGNn1argNiR8IsM44MwcH3cYpnRrRku/txn+dAHz2dgYIjIVzRl26hUA/7jCxfz/OoNSEOrBUte3/f/NVndyBaFekBi3bp1XHfdddx934N0jtmDIFSUK9WY7DGZYnRXJ4VSGWFoRDLAD1z8wCWQIUpo6JZJtAMO6kBhkFtu/T2+VGwZGMBKJEmn05zz3jNpyybw3Aqtrc2gQIZRY6rDyw1uftNBg0wmbnjUNEUQ+Jz7/nOYMGECSoLSLUKlcdvtt7Nu/QYUNd9pB8d7GkZM6OnYFtl0CiJF0rGZNnUqbW1tiEhHKIGGQe/AABdfeil9+TzdvVte942Fr4kwjTTz6nVdixYt4tprr0XpBn4QksxkGS4WaG5uZenSpZz3/g+w6vkXAIkfepiWhWlZ+GFIxYuThXIHWqI3d3fz4MMP4wU+QSjxw4BZM2byzsMPIwoibMMEBX19vQ1SlCiK/bq3Qvgh9COshA0oKsUCjmnQ2dnGySefTBRF+KHEcRxWrFjB8uXLSaUSlMvlOMIXvLIZphTohmiM6unp3sTXvnopX/ziF3Fdj6Zklu5NPei6Tq6phaeXLuHSb3yTjq5OQrk7mrcdQsBKJIhqP5cVPPDXp/nqz39JKdVKuRrGY180RUcuTaVaYEuxwjMbBzjnP7/Gl77yA5Y9swYlBTIUWFikTAdDghlJioEkBEIZ4LklYrYeSSUMKUdw7Y33UHANNJFkVEsbWrXM+08/ibaUhaWFcUmLJmjvGIWdiPm1dV3Dts03Ox8IAIZlgmZQdUOSmRZkpEiheP+73snsjgRZK00h75Jp6eTK3/yO1d29OLU6SnPEDQrDkCgI4wBR5McPGaCpOHW0bqjC1+fSEPIAACAASURBVK/4NfMv/BS/f+zP2Ll2KtUAz6igLEUy10LvQBlPJnn40cV8+wc/RzMEhcCtWSAhPZvWEhfHSsoV96UOwKuOVz9p67voSBSKshfQPzDMZb/4JX6oqAYh+0wYj1st41XLhH5AYWiYlqYs48aOprdnM/97z/38+yVf4RfXXE8llAhbUCq7BIEPQpCotUUbQsd2YmHo7+vDNgzWrV7N4sWL45GXbhWhKQ6acyCzZ88mCKI3NQ3VjmLkcGmgQZrZ1dXF0UcfTbFawEk59A8M0D80yGOPPwGA73qgBG6ligyjuD3D0AkVSM0A3QJhMlgMufG2+7jgIx/n51dcyfDwMEpG+G6ZMaM72LDqeY476nDWrX6BlGPT0doCmuDu+x5k4V0P45gOgYwtiq6xYyGKCIOAZNL5v0TodwledWGytLh7VkcjUoorr/41S55bTjWQKHRWP7+SU088gWuuuoKvfOkLzJw2hcJgH/mBPtqbc2wpV9k0kOfzX/sGbz/qGG66/R6sjINmx92akYTBwaFaRUXcxFH3exYuXMiadevjiX6mDjLg9FNPZFR7ljB8Y5ey7CzUK1Femlw3TZP58+eTzSVwkialaol8qcydd9+LlBB6EgKFkzTjiYwQ12EZBqEQrOkZ5ME/LeYTn7+Ez176TZ57YS1do/cgcD3yA1tJ6BphtcinLzqfT13wIc494xSUG4fctw4NsHZTL1dcex3dfQMIYVCquoBGEG1rUHytC1Be/cC9AUQhUjd47IlFXPXr35Br66Ti+0TKp6stx1mnnczb5kyj6k5jj9Gd3HzbQu64+16qlRLNnXuypbeb0RP2xkrYfOzf/4Pv/eRHfPyiCzn+mHm0NWVoaWlGR+J7VSqVCslMlp6tW3no0UdxUnEYN2mZjGpv4dij34mSkEgkkL6HsF7fuYxdjbpmGsmgFIYhhmEwadIkDj10LnfefRdOJkUkYNmK53li0RIO238/0CHwK5iWQ0RMrzGYL7N02XIW3n4X9z/4AP3FgDFjuygOD/H8ipW0N2fZe/QY9pk4nncddwznn3UqEYJZ0yfTvWkjT/x5MY7jkMzmWPL8Kn5+5S/5ysVfIJtpxvddLMvCROD7IeZr/N29Bn9dECnFytXr+O5//QhhJRjMD6PrOtlUgos/9WlmT50Sk56EPofNPYAZ06cyccLeLH7mb9zx0ON0dnaSLwwz0OfSNW4PiuUqX/3W97jupls548QFzJw+jQNnT0O3U2TsFAq4/c77GBguYlspZBASBT4nHH8s2YROebiAncviBREJ65XW/+bGP6ovrLenG4bBqQuO47577sTMpKhWPaquz+333MsRB+8HEfjKQENQcH3uuf9hbll4O08/8yxVL8R2knSMbWdwaJBMwiLZ3oahQk5697F85KIL6GhpQiOEMCRrW3z6oxewatV/ottZBkpVNMPktjvu4qCDDubEY96JF4SN3qow9N+awoRh8sOfXcHS515g8vTprHp+JSlbcNzxR3LaifNxrNj+zKVtPK9KSyrBxy84lw3dW5k+cwbXX/87+vMDdI4azdBgnmK5RDqdZdXGHr79w5+y55jRHHLwgbzruGOZNGkS6bTNg4/9iXIIg6U8Gdsi7Zi859QT0RSka9Xk2us8j/FqYiQ3Yb1vCeAdB8xkxr4TWLFuM1U/QNcN/rjoKdZvKZA2BMMy5P4Hb+eWWxeyfEU8riaZbUIzfIYKRTS3SNIy0YIq8w4/jC/8x6cZO7oNTUGpVIwHq6XTVMpFDp6zP5/5xEV8/7IrqVarJNJNVKo+v/zVNRy430zGtbcCksD3/0+J412FV50DolANefTPi/mvn11BMtdC1fNIOxZzZk7m4x8+jwmjR1EqlLAtHVCUhodj5lZNYNk2h+w/g9MWvJvmbIZlzzxL1XVp6xgNhoPrSzKZJnr7Bnhq8RL+8vRinnluBc8sX8Mjf/oLpWpAxa2STSU4+vBDOGPBuzE1ia4LUBq6YbwqdvdryQGxI2sbSepZR32quolE0wSPPLEIN1II06ZcrSBUxOKn/8pnvvx1Hn3iLwzmS+i2TdXzGBgYIJIRLc1NJGzJ0Ye9g29/+Utc+P4z0MKQcrFAKp2oNRw6oDRMywQZMW36dJ5avIR8qUzFrZJMpln94oskbJs5+89CF4LA9zFNCylfW7/pVT+K3Ujxla99k3SuBXSDzZs341gGp528gINmTQcgk03HzKRKkWttQQjw3CqOaZAwFGNaMnziwx/k+t9cy3nnnouh6+TzRTTd4sV1G7FTWZpa21m9biP/+4e7ueGWWwnRcUNFMpXCNE2OOXoenucDElQcEXqtHdjXA4QQ2+UBPS+umm+Yf77LCccfh6FppFIpNNMiVIrf3HA9l199NdhJPAXVSKI0gZVwyOVy7DluLDOnT+Pyn/2IS7/8OebMnIImFU1NWdraWgGoVipEErxa2ZBhCAwiPvXJj9LRliPwq3hhnPtbuHAhzz27ojYrOAEKXuvRUDtdM3lR3C4utBrvAhIpFb4EKTS+/8vfcP+jj6NbDkGlStY2OPnYo/jYuR/ANvW4R12D+GiuPRCYhomuUWv+MzB0g87WHIcdOJuj37Y/nUkod6+iSvxcT98AbaPGEAmBkiHFwW5SVkSp6rHnuHGksmmcVBrTdpAoLEtDaApUrZtUyZpwqcZDKVmbT/aP/QrP81CGUZtC0WCeIJCSQEoiwBACpbZFy/wg1gKu51MslfntrfcTeAFCQi6T4ZCD57LX+L2wTAOpaVDL07xc0ktrTJyQ2w1T2/aC+gDPlzyUJIpCROjX7rMCNAw9rmxQWjwn7m/rt3D7vQ+wes1aNqx5kfZcBtsx6R0cItHSDr6LDKpIr0rK1mm2LY6ZezBf/fSnufCMM5k8fixZ24lPcU2j0X2JhmlaiKjme2g6Ssb3sKuzg3RC8PA9/4tndmIl0hQ9lxfXruW4449DQ8MUgvLwEFYiwWuFne4z6bpAU/UvDEBDEwIdwaLFS7nnnntoaWlhcGCIbCZD0khx3nnn1WzyVy5JqXd31ok8TNNkypQpTJ48mfe+973ccOdDPPnXp3h2uaK7ZxOGbSFFTNxfzA+SScbZ+5XLn+X6665j8sQJHDBrJgfO2Y999tmHvUZ3gbZtr0ZBhFTxkDJDN+JNoCDw/e1I+Q3TxLEd/DBAewkXujHiZxlFSCkb5Td2zWlOOBbJhI2wQGkhYeQT+TFZTMax0AHfq2LY228WKWXjoZTCNq1YiNTLHdViO767Ol0X2jb+jfphoAAvgmefW8EDDzzEXxc/xaqNm6iUXbzAJ0JDoigVyyQSiXh4SLVK2rJo7ezguGPmseBd72b21L3RFRTzVXZoy9UjiiKuRFfAlClTWLBgAf/9v38mO6qDUBksWbqUR//4BPPe8Q7QFamm5le+9i7EThemuH0hAk2LTSddB2Hghoqbb72N51e9SFNTE80tOYb7+/jEf3yGSRPHYcj6Wf4KC671QNWHidX7ojRNo7Ozk89c8D5WzTucNd1beOIvT3PTrbfRN9CPF/i4fkSuycbUBVEU4QaKZS+sY/mq9Vx/212YpskBM6YxefJkDp57EDOmTSLtGBjo1MjCqJSKJJNJTNvCtLeF/uob2mrUj8UbQsltk8/RNHRdQ2gaqAilVGOaYLlcpr9vC55fAS1C0yKi0ENGQXzEKImtGeDHyem6oAhqWq4uOLW/84+gwhBpGighkMJECC2e3gmEUVwOVEVnc08vS5cu5fEn/sTiJU/Tt3UA03bIZrPkyyG+L8k2NdemLioC1yORTlAtlzhy9mzOPvss5h54EK25JFLCQN8QuVyWdG4HtIYGCrWNgbbmK07ZdxJnnXEmDzz5PDLyqVRKOIbOT39xOQfOmoWZzuLYb7JontawQ+LfUAIFPPDwYzz+5F9oammmMDRMLp1i37334tz3nUUUKixDjHjfy8Ot8UMAjcHKUbRtYxp6wL7jRzNh/B7svffe/P62W8lms1QrHolkGrdUxDRthK7j+hHlShkpdLLZHE3JNPf/cRGPLlrM/9x4M5m0w5jOTmZOncSBc/Zn34kTGT9mFEITSBR+TTvVp6/rhkHoxoy0Wk3otZH1ggqU2hZm1oTArIV2M9kszc3NBJGLbihM3UQR4ZYreFUf27LifvCRcqIUSNnQdlJKtBrjan2gQd0kjaKIUEbUv3LN0FDAUNln5cqVLFmyhDVr1vDnFWsolUoUyqV4dI+moyXSuGFIoX+AjJMmCKr0be2ntbWVoeFBUqkETZkM/Z7HR84/j8MPPRgZQlDxcBI2He3NuH6VkhuRcV6Bb1yDeNwHjXVbIjb195s5i9NPms9Vv/oVViJJrjXHU4uXcvud93DRue8l9BWG9do5vrtEmISug4owTBOJTgRcf9PN9A8VMFNZMpkMQwP9XPLZb5Iw47GZsSC88nJGViePNFUa//eHUURIYbNx/Vo8t4JhJXADH6nBvMMPpad3Cxu7e0BqpDva0EyHYqnC2jXracqYKD/AC3yG8nm6u7v527PPcuvtd2DbNp25LOPGjWPatGlMmjSJsWPH0tzcDJaGZYBpJ/5OMUgZr1VKie1YCMOAl5wdYSjxAkXSSVCtsZxamh7Pe3Ks2ovF9sJU8y2FYTYiSeGI5yPiYX1hqPD9kCAIeGrxs6xfv55ly5bx/PPPs3Xr1sZsK03TKKiYbSgeiiDidIGMp3qoSBJ5VfYc00U6nWbmzJncde9dhGGIW6ki0Hjq6ac4+KADcCwTVfPFkDGDrrEDZjwaKE1DUwqEhq4JpJIITZC2E5x96gLuun0hBc9ncChPR9c4fnn1rzn1hBPoyL22hDe7xMyLf9AAgRdELFr6HIv++jSGlaRvcIjRba1MnDKRY48+gtDzse24OdD3/UYS7uUwMmRbDzHXfZe4O9ZGEwYCk0ce+yO2k2Tzlq2kUiks3eBzn/43kskkQ/kCj/3pSe6+535WPL+KlGUzbuI4tvb3xJS9SqEJDSUMqpGkmC8RhsP09Gxh6YpV3HHfQw2N1NLSQkdHB7lcjhmT9iGbzdLe3k5nZydtbW20tLSQSVnxRD/iAen1zR/JuE0nEgKsJJZhkHcDIj8g0ZRFT6TwtJgnvVjwSGVjzaOIKSmCINZ0YRgSRREbt/RRLBbZunUrmzZtYuPGjWzcuJHu7m7y+TzYznY+FtSFPYi1PGF8r0yDarVKNT+MZejsMXo0o7o6OPSAA9h/vzm0dbTT2tlJf18P99x3P4ZlkUxnWPbi82wZHmbPjnYMw4qnwKMI/RCpa698YGpxvk/V9pJh1Oiya+H6yePH8OEPnsOXv/0DjHQOpZv09PXzq2v/h4v//aM7vE93BXaRkRn7CQroHxji+htuwo8kmqaj6zqJhM2FHz6fpKlj1r0RJRA70Jbs+z66rjceL0WpOIQwHTwEixYvwfVDXNelra2NqdMms8+eY5FSMaq9hRmT9uKj551Fd08fjz32R55ctIhnVpZxvXjKhhdGhLUeHk1YCFOii9g/a0TjpKR7oMimvjxSSh5+/PEG9VXdua8PItB1nZmTp2IYBplMBtu20XWd5uZmbNumUChQLrioQMM0bapuyOK/LafkxuZkFEVs3Rq3hpTLZQqFAsPDwwwPD1MqxWaZ62+b9TuSNUkphcRisH+osb5tQRINTbfQDQ0nknjFIUIUo7tGsf8Rb+Pggw5k+tRpdHS2kSakua0DpcUHw9z9Z3P//feTymQxbYc/P7uMNb3djOlsx9AFuAFS17AcZ4equqOaFqpTBzQ+Qy3oqMuQ95xyEv99020MVAL6+wcZ097JTbfcwpknLWDixLE78Fd2DXa6MCmliMIAYehommBgYIB7772XpqZ2BssV2js6aG1t5fBD31Y7nWPBGxwYoqWWb/hnqGuuOglL/VHfrEYiizB0Vq3pprtnC/l8kfb2dizLYp+9J6JkgGWajeY/GUXsMaqdc844kXPOOJHBaoV16zey+JllLHr6GVasWktP/xAVPwSlUfLc7TZrXaiFboAOoYpbS6p+SFT1GsnZunDdde+DjRGiURThui6JRALDMCgUCmiGhWXF9NDd3d387513Ub6pTKlSJpfL4XnVhjDXE6kjQ/VKs4jkNoKakc9LKUllstv5UfV7l0ylSCQSHDZzGvtOnMicA/Zj0j57k007GHXrUgGyCtJF03RKJZ8Z06bQ3t6OmcyyqacXza7SOzgYpwEkIIy48FVB4Afo9o41Eara+gzDaJiZAAhFKuFwxhnv4Xs/u5JMNkfZddGrJR54+BEmTjxnh66/K7DTx3BGbohmGUgBQ17I5770FR549EmKlYBEIkOr7OGqq65i/9n7YQodTUG1VCJRo9X9V9PI0veITJsrr7+Fb/34MpxEkmq+gBV5LLzpRvabOuEVrzFyCkesDbayatUqNmzYwL1/+Rt9fX309PSQz+e3m/YeRRGRlWoERSCOtNWjjRBP9qvWWI8sy2oQ4Ou6jud5mEkTpRTlQpGkE4ebRS0v5bseynS2W+tLeftCt9QQ3DpJTb2iwTAMlFckm0rT0dbOuDFj2Hv8BKZOnsK0yVMYO2YMTel/3obiVyWWE0tXxQ8INMH8089ixdoNaJZDTpjMmT2Da6/4YTwLS8V+rQrDOCjzr5LSKA/Pi3BxOPbk09kymCdSkvzQIPvNmsHvrrqMTMIh7ZhABFGERIvbQIS+S+vndn6eyYqdawmsWLGCZ59bHpPrmzphUOXth76dUR2d6CNOU03X46MvjGjMffn/hDBN/EixYsVKoiiiUCiQMAz2HDuKjraWHbpGfYwmxDZ7V1dX7A/NmMGp73sfbgBbt/bR29vLpk2bWLNmDatXr2bLli30DZcaA6vrQQcZettC58kMoZLoUQi+gprZamgglSQ/OEQmkyGVSCI0hRZKotBH6AYJ0wAjnoNbF9goipAjqNJSloYWBQgVkbBtWjq62HPPPZk4cSJdXV3Mnrpv7NO1ttGUcbYLEIodOFYta9tpJxTYls60qZN5fu06dKERBAF9fX0MDhbpas2AJlCBXxOknVCioERMUupJjpt3NNf8zw2Yjo1pmvT39/PAAw9y1umnEKkwLsESAoEWr+Nf/+v/FLtMUH0Jd913Pz1b+wgjjXQiRehHnPDu+YwZMwaofYnatmhcGIVxn9G/BEG+UGDp0qXouk7VrZBNm+w3cyYtuaYdu0LNhKqbc0LEDDzJZJJiEGFpGnuObmfCmHY4YEbjfZGCYsmnWCwyMDDAli1b2Lp1K/39/QwPD1OpVOgZGKBUKjUSp+VyuWEyVioVnCiNITRCP8CtlGhuyuKY2ZhPBA1MgWVZZDIZcrkcLS0ttLS0kM1msW2biWPHkMvl6OjooLm5Gccxt4suRmEc5KnfZU2B7/mEYYhSikwm9Uq3l3p0QNNi5txD334IC++8Nyar9F16enpYtXoNrblZ2Hqcv7LqyeR/NXItJQgdTUpOO/UU7rz3PoYLRRzHYWAoz8233sZ7Tj8FFSlk4JJMJIhHvCnULu6V3vnCFIb4ms5AscgDDz5CKp2lu7ubplSSifvsxcEHHYShCWQUoUTNwaxXa++E4qpIKtau30hP71Z03SLpJFAqYv/9ZtXmNP1zjJyZWzfzgiCI/SIhSI8Qds/3GtPfTdPE0Q0SGYuOTCsTulrRZuz7d9f3gVDGA9eCIGgIVhRFDA8Pc/r5nySfL2EAnS2tXHj+ucw78kjamnMYuo4yasGdlxDo1x9mEGBZ5stv2saInTihrJTCcQx2eCtoEIRRbKKLmE5lv9kzSTs2gYpLporlKkufWcYhB81CKQ3dqkcgxb+8ncMgwDBMTA322bOTo444lBtuvrWRz1v67AoWLV7G2w+YEXdfoyGjCKHvGK/fv4Kdfv24VEbjT39+ivWbepFaHM0KfY93zXsnbbmWmAfgJZtBaaBb//pIEak0lq98nkjJRqjdEDrTpkzeIaaokf4ObJtJC/EJ61WLREEVjRDH0kknbZKOiakT9+IoGdf1yTCeNxQGqMAn8lyCagUTsDVJ2hQ0J21Gt+XYc1Q74zpbGd2WoynbHB82YURheIhcJsOYzlZyKZ2EDgldkdAVKVMjY+lkLJ20KUgZGkkdLEsHJNJzqRbyVAt5IrfaWBdh1CjH0zSB0HWiMMSvDUx4JShqFS5I6oP+xnR2MKarCy0K0XQTYZgsW7asVrQaohtxRffOqCSOc5j/j733Dpb0Os87fyd8qeNNkxMwg0EmMkGQoEACTCJFMYgiJYor0qZ3S1JpS7Kt4LK19q6rHEq1JXlr17uiVZJNmWXJpEiRshlEURQBRgQSgRgiDDA5z80dv3TO2T9Od88dAAYwc8NMUfep6ro9c/v29/XX5/3OOe/7vM/j6Vca+OB7f5o40pR5ThDFGBSf/cJfYoEw9oyLc5r2qyvIsuLBJEN/4f77F7+EDiNmZudo1OpMjTd459vu8y8yBrGUMCoFr45M9MowDn745I9QKqCX9inKnM2bNnDFzu2vimExTBkPWRWjzzVIcQ95eC9zBjhXYjEDlXyBCCQq0gSJX+oId85UQEs1+umMZbHdwuBojo8Nsn4hwwSY0v51epC4MWVJWRSURUGR5yPPJfDfQ1Kvk9TrqCgCYzBZdv6eVAzfVyMDjXgVUlqlKVHKlzOUEtiyIA4Ut9z4GoR1SB2gg5DnDh7k7Ixv+nT4m9xKQAaRX+phyXodbr5+L7e+5kaMKXBSUK2N8Y0Hvs3BY2cGezQ5GmerzY1YlZnvh/ue5vuPPe5F0oTPIt39+rvYvWMzDNgOSmufLjXlyCd2JTaI7W6PJ596itIy8g666aabvELpqwzX4ZJptMFfUuSUKsA5QZ6XpGlOlhWUpcU5X6R2QuGkwgpJ6Xxwl9aRl4Z+lnuDZk9AA+u8EIl1ZP2UfrdHgQWtiJOEvMywOArribUI69P5pb8ZaaUJdECgA8IgJNABpXMUxpAVBXnpi89ICUGAShJAQinIM0OaluSFwyBBBshXpVhrfYAMEh5K+HvG6157O8qdK1XMzi2wf/9+pJYUhUGpF8mHXhyEJwvjLGHgb0Q/87730Gg0KAtD4QRnZmb5+jcewAGlNQRhiLGrrwa7KsH08MMP0263ybKCjRs3kuc5P3H3689ljYbPhrUiGHzwVxbefyXMLbQ4duwY1lqazSZSSq699hq/wngVLhbDGWmY0h7ulYYzk0OCUARhTBRXCKMEpUMQCuM8hccATkqQXlJ4SPkJonhAlwGEL1AiBUhBXElIqhXipIrF0U37zLcWcc6gFSNSrdTK1/CUxOGwznq/JWuwzqK0RgcBYRQRhCFCKoz1rR5pVgymQ0EYBURxiAr8zFEC2au5mymJw5KmXpNcKT+gr75qr0/NW19Yz/OcI8eOA16L3DKYUJYLJzGmABw60PR7be677z7Gx8ex1tLp99Aq5OGHH8bYc0s8W66+ENhFBdNQsB088XSIsizJJHzqc39BtdFEOEt3YY5rr9zBu972JkzeAgkyDkeExigIB55KEF+gMPuwcW3p8wd/uA8bJfTLFEeOydvcc9ftBMKCfeULupQc+lIQL/NQQuKJTIoAhUa+6DHM3A1rP0EQjNzLjTG+n8g50qLL+IYJemXuOXYvMRKHxdtR4VjKF52TFJ6uFAaKOArO+6XPEA6uPVB9FeugwGmE00RhDWP8bCyBHZvH2Lt9gkymuEhROssPH38S6WC82aDTbqHk8qPJiQIrFRCAC4iTOrVY8+Y3vIFGqNBRBRWGfO97D7L/meeIgwRbCnpdO6A2rR4u6t1HXkoveC6l5NEnnqTb79Hr9Yh0gHBw++23IpGE4co2bi2lEw2fHz12bNTz5Ixl4+TUID3KpW/F/DHCC284YRiyadMmlJAjvuTJ06dICz8TR9FKmR5468/hMrMc3E/f+MY34heswhfCheDh7z/il4XW0mi8Alt9BXBRo2vphdFan7c0+ptvfIt2NyUrCqQSVJOIt9x734pv/kZUkyXnAfCjp58a3eltWbL7iiup1WqDZrn1vvSVgnhBe3ulUmHv3r3owUxpnePwkSPMLSwAg8TOihzZJxSGy7fS5JgC3n7vXWycmECIAXsl0HztG/cPer2Fb9he5a//gj/f8AIuTR8PN+x5nvPIEz8kLUqiKKLIUrZv28RNN14LWNL+yhksLz3+8JzSNOXA4UM+zY7AFCVX7d5DNal4w7L1WFpRLM12aqW5/vrrEc5f+yiKmJ6b5dSZMxgG++QV2DS5QZpquBIJtcYZgwTuuuNWcAUqUAipefLpZzh84rRPpwNZ/5VT/8vBRd8sllL4h0XOU6dOcfjYGdLci7vbPOO2m25krFZBAnm5chmVl6IUnj59mpmFeb+XQCCs46rduwmGhdb1YFoZvCCRMxzge/fuhcJgihIdBuTWcOzEccrSIRDn9CmWgcI4HL4+VqYFYSgJlEQBb3/LvUjl95F5aejlJY88+gTDgphaiRN4GSxr5l063QI8/vjjzLTa5IP0aL1W4Q13vnZEXRl2yC4HS9nQw38Pg/nQoUPkZYEZfLlxELJ7xy4Csa6Jt5J4YTJkeGPbvHkz1Upl5AQplOS5wwexwxvfCnDzlt5Eh+nuUAu67Ravvf1mNm+YwtqSfpGjo5hvfe/BQUHEouPVbWu/6GXecAAPG/OKouA73/kOuRGEcUKaply5aye33PyaAYc19/ysZWK4vFsaTEMcPnwYpBgxsWtJhW1btvrXIyjdpfZJ+PGAecHMNPwO6vU6V+7cRag0vSxFKMnzBw6c+45WYGIY3hSdtURx4lkdWOIwYKJe5+abbhycEyA1j/zgURa7g+2Fu8wYEEtbC+D8/crTTz+NUJo4qZJlGdu3b2XLQHXTp9OXv8564cw0vFM555iZmQH8clLi9cOHXqyWFw+CdVwcXmqJbZ1FScWuHTuJ43h0kz19+vS5lnuKeQAAIABJREFU1csKXH85MJ3LsgyEoBjsw6MowLmS6667Bh1IUBLj4NiJ4ywMkiArU+h6mXO70D+IVAQWRJaDtVTiKiVwZLrL/rN9pChwJkXYjHe+7T6MKej1U5qNScwK8GqjMCLtZWgpwFmCwGtM5ELw6HNHMLliY3OKotfi6is2s3kiwhUFykki/QqM6HW8MgSElcT/HDRqBkoTCL9v2XvNNtqdeSYmN5EVIQeOzJAWclQsXi4CfwrElQQkBNXqYPmokSLknptuYXOtgUlz+kWBro3xlb/9lmd5vBoNimXgwhexQ/LC4KcZTJ0Hjxwmz/ORSlCtVmPz5s2eXza46Cu1a1FKjUiTw5kqK6DVao0SI0EQMD4+TqCD81Lo61hdbNq4EaUUxphRhnehtbhmx58cbzI5OUkQ+CbLLMs4cuQopWHV64wX9+5iqAM36EoFnnjiCYqiQDq/f9q8cRO7r7xyxCGDc1mf5SIIBsExaJIDWFxcZHZ2dtTOEIYhW7Zs8af7EvurdawOdu7cSagD8jxHa02WZZw6deplVWhXEps2TLFr+3avDoynNj399NP004zVVgNf3swkACEwFp7ctw+LQwqBKw3bt29n09SEZyMMXrr8bpbBsnf4Nks6YhcWFmi32yNajtaarVu3jv7OLUnlr2P1sG3jZsIgoMyLEVXq+KmTnn+5ygkAgCSSXLFrB0I4sA4lNUePnWB+sX35FW2HsMPuCS1ZaHU5cvwYKvBaB1oqrtq92+sOleWIIb0SE9N58bCE0jI/Pz9SLjLGIKVk06ZNmAEfb2kKfR2rh2a9Ti2pgLEjvuDps2d8H9QazEwC2LVjO3rQahKGId1+j5Onz2BWOZYvfHRJXhThx0+eoN1u+zWpdVSimL17rhqY2p9jiK8ExJJZaWkwzc3NjZR2hoGzadOmUSZpSDBdx+oiCkImxycGdC4DSjI9PU2BO1/ddrXgYM+Vu6hWYoRkoJKl2P/cAcrLLZiGEkxLPRSOHj1KaQd9P0VJpVJh926vAjTi8a1QMEk5aBo152YcgNnZ2RE/cJiA2Lhx43oArTFCrZiamkIrRZqmOOeYnZ8ny/NV7nMdwrL7yisYHx9HSun16IXi6f37V/34F3WrsC9Yr52ZmT5PMScMQzZNbcBZUIPp1g2dGVYAS6lMxhiMdbTb7fMSDFprGo3GSwpVrmP1oDWMN5sopcjzHGMM3W73PKbMqsIYJiea1Os1pJTe5sc5Tpw4serLzAsOJgEEUqN1SJYXWGD/c4corMYFMdr22DxRYcumMQQGRElR9BCBxK0AazsvDSqQOGO9FkBUAyk4ePIMqYowRYmwju1bt/myxmCvpgfCk+tYXUTSUatJolgQVAOsEhw8fJgkqSLXwvVV+9b6m2+4nv7CAlNjYxhTcPj4UfLLLZjgBTYpQLvdPs+rqNlsnie/O2IrrMBoXqoctBRDCtEQw4Li+jJvbSEQxHF8HjPFGEO5Bp2uQyilRtJnw+xumqa0Wu1VPe7FLfMGyyytNf2sZHZ21tuPSK/ptnHjRkItR9oOK5lFk4PZbSSSIbw1ylB/bohk0BC4Hkxrj0ajMVLFHTYKpq9C+WilIBBs3LiRKIpGJIJ+v8/s7OyqHndZo1wKSa/XGxVLh31NGzduPP91wxlqBRL9o9gYzXqe8tVqtQb/FgMxxfp5x17H2mFiYmK0f3XO+1j1er01PYcNGzagtR65g5RleY6jt0q4qJG2VCeh1+vRarVGetrGGKampgC/dgVgYJu5ohBipBBqLaOC7fC8Go3Gyh5vHa8aQ3ET8De3oWvHWmJiwkthjyQMnBvdcFcLF0knOjfD9Ho9siwjDMMRlWdy0rtZvFQ37IpBnOvctNbR6XTOm4WGM9MI6+yHNUOz2RzV+oYahP1+f8XoZK/2HIY3VqW8Pvvi4upyBC+8zvSCQdnr9ShL36Y+lAoe3hWWvnYlg2m0hFiylEjTdGSxAl6T4AUnvmLHX8f/GMYaKpXKqOY31GxfqiS1mhiOiXq9PpJqG9Ka5ubmVvXYF90cCH4Zl+f5wLJRjYKpWn1xq8NK8eLcEmnlpe85nM6HCF6ouroeTGsCa61XDxowToZF9Bcq5K4WhseI4/g8UzxjDJ1OZ1WPfcGJf6UUtjRIrdBKMz/vneg6nQ5RFJFElno18t0jOgYLZZr7rkgL9tX4lrwMrMsBR2EdMlL0raGXZ8SVhE7WxTlDpRojxDnH7qJIR8H1woLzWqMoHGEokEqRF867r0tBmhkcGgJFP89oBjGuMEjrxfGzvCSOgjVdKl0MQhlQpCVBJaKX5yip0FrQ76TIQmLDVdZhUL6/LVCOsXrC9PQ0caVCagTd4jJ3wbAvYGO3+zn3f/cRTpw4Q+gkUajp97sEUUgv66NeVqf7lREnyUAE1R8zyw0zix1abe+u54QklHDgyDG++eAjxIM7o3MCpCQtVk4h6WJgzblZczibDo3OWq0W1pREUYBAESYJTz93kAcefJQ87RMGatQ/drmiltR5+sAhhJEU3QyrFFEQ8KPnDtBoNOj0V7fWY7I+MozJrMJJTRAlo6Vme3F1ExAX5Rw4nJksjs9/6av89j//l/StxgUhZdpj88ZNlGmf9vwCznnrGB2FRNWYvLu8eoORESZLsUWKM74JsT4+ztETZ6jVx4hqNeZnZ5hq1HBlRrfVJgxjjNCEUUxRrO6X+UoQvJjetNRSNKrXvdVMq42WklB7z9v+YG/6qhzJLiF6RUo9qZFlhjioEAQBC+05nCvQcYBeZVXVUErQmqQ2xtnpObIsY6zZQNqC9733p/m9/+03V+3YFzUznXPpti+amaqNSU5NzxJJTVCrE4YBRsJcZ4G0tH7ptwwULkbGAdVa0weUcCwsdqnWG6AkrXYXKTXGCdKsREY1wlqTVi8jzQRBuHyFpOVAST3KciqlRqZnMpBEUUR7cYZqtUoURWzatImTJ0+z2M3QOkLKhJz8FY5waeG0I3WC8foEi9Pz2KBkcmwDp1vTRPUqZW91bwaB1nR6fRb684xNTGDm5j07x/RpLcyv6rFXnCyV5zlZliG1A2GRUlAKXwVHCjDLuzM5Fb1o3+CcF7AXwmKMhfOC3C2pxssR7elSwaklYvKD8xwmbpaaBYhBba4oCoQYsJ+twAWX98xkpME4MyqUSilHhVNvHLe6tCKbZfT6KU7oEdFW6AC5xGdrtXBRwTTMmi11/B6O7zLrsGfXDmye0V1s4dIeSjo2V6uElYiit7wUqZEWk+WYfo4zJdVqldrkOIeOnqRaazIxXmdhbpYkCqgEVXrtDrLoUgskQagx5tKyyAUCEZxzjAeJC/0MZU1OWKmRDzxxz5w6RT0JmZjwyzxjDFJf3oyOTga1OKDTb1Ed9+npVneBihLovKQSrbJ2nRXUKw3iapMzZ2cxeYaqxGgiv3pZRSzrkwnEOfcFJ7DOsXG8yj/81f+Fa3dfSSIDkjik222jw4BOv0u4TCFKISVSgFae7ZBmJWfmFvnt3/nfmZ5v0ctSYi15/3t+ine//T6SQcGuLC1OCGRwabl6pnQjEq6fdQRaa9I0pd1u8w9+63fopn1vEh1rfvHDH+Yn3/oWbyoWBaT52tRrLhahiti3/3n+ze/9PmcWFlAoGo0a//BXfpm7X3s7hV3dZaowBVZq2qnhX/3u/8nzB48ihGNhsU23t7r8wGXfJpYWSgGKfoebrt3Da67ZSzDoHnSFQQwELpa7/3QUo+5dBxg0s50UrbwkshMC4RxbN05xx2uuQwPWFAP7RrkmrdMvh7L0PT/gOYXDdqs8t0xPT1Op1jztRVi67TZXbN/Ca66+AlsYwoGX0uUMMfBESss+1nvd0c067N21g5v2Xrnari4ICgwBi1lBv9Oi321TrddJkoQNmza+8hssAxclQjkUQi9Nyfj4+EjaK8syrEtIc8/k7mc5SIuIBFmR4eTL+xu9mgcu8L5AVuLSEu0g1iF5mqFDRRjGOOud/UYDz7uPwTKPvRIPrbzntzXexAznvDppKHE2x+UlcRBinMUpQeG8GZxWXifwUp//Kz0KV+KkpbfYIXABkYgIUIRJQIlZ9eMPGRDIgE6/oNoc8wkfk6HM6pZFLjiYlvLftNKEYTjiXw31F16K1LhSrRBCnHuvpe+ptT4vq/jC/qZ1rA2GxNZhh/OQ+TDcDqzF8QHSNBslQYbGci/ia64wLrzT9gVBUalURvpow2AacqCWvnZle5oGs8yS5sM4js9L0/dX0L5mHa8eUvq2nOHNrSxLnHO+UW8FWnBeEUsaVpe2XyilRpzR1cLFjfAlM0ClUiGKolFzoFJq1IS1VH9hxe9KQ+NjfMNgrVY7jzfYbl/a4uzfVQjEqCUHGMmuDZs11woLCwvnWZ4KIUa686uFixrhS0mLlUrFO10P7kBKqZGAvh6mcQcM4hXFUOprEFP1en1AG/Ln9ZK9K+tk1zXB3NzciOA6VIp6EYt/Dc4Bzi3/pZSr3uO2rBFunaVSqTA5OXnexTt79uz5rxu1SiznaJz/HkveU6lzzYDDu9H6zHTpsLTVQUrP7HipToLVxNmzZynLEq01WuuR9vxq4qKCaZgOL8uSJNJMTk6OmgPzPOfs2bPkxbmBv7K9TOe3Xzjns2PVavW8PdqwTfo86uH6zLQmWFxcHH3nSiniOF4Ro7tXC+ssZ8+eJU3TUR0vSZJR0+pq4aKCabjxHw7Uer0+omrkec7i4iJFUb5o4K9EQm/4Jb0wQIeF0OGxhrShdX3xtcdQfHK4vAqCgEDLNWsfMcbQbrdHrizDgF5tx/WLU3TFYkxBFHoH7b1XXYEix2U9ShVyeq7NqbOzOCHASYIgxg307JaLUCts6ZBagYCs6CGBPds2k9gcqRUGx/GTJ+imBUJKhhWn8jJvX/hxQAHMzPSwRqOMIuv02LFtGw6HYw3kvkoIdMATP3qKZGyMmYUFpNTs2raD4HKTRwZeZPS7ecPG80iaeZ5zZmYaIRkJ53sLmpVJjUopRrOjUgqBnx3lkhnTGDPq+X+h2+A6Vg/GwmK7PVL2VUpRrVZRa5EWB1CK2blF2u2Ob2kZaOdt27ZtRQyqXw4XpegqBspAw6rzrl27CAemYjLQ9Ho9Dh48CHCu93+FBrJzg4O+QOBycnLyPB8may1nzpw5b2mxHkyrjzR3zM3NUQ6CSWvN1MTEgL2yFisDycFDh5mfn8daSxAECGe47uqrV9md6WKWecbXEpbuRbZv3eazadaCFPSylOcOPI+37h06ba/uQJ6cnBz1+g/P7fTp0wzJuOtYG/TSPgutQQJCChReR/ElzFNWBwIOHDpCt5firG9kdc5w9d49rDbh/qLViYYNn844xhoVdm3fMThxR2kNzx88iAOk1oOZRKzI1TwvJpcwHsbHx0cZRfAZx1OnTgGMCojryYjVx9zCAv08w0lPK5JSsmXTZj8E1iCcHHDk2HHKwfYiz3OqSYWtmzehLrdgGl4QMWSEW4sUcOMNN4B1WOcQWnH8+HHOzMz5ohkDv7NVzOaMjY2dp5U2dD6Ac8vS9Rlq9XHs9EmMtegwIMsygiBgx9ZtnKMZry76meXwkWMDzQ+BsSU7d2xjvFlfdeOGizM7c8MB6n9K4KabbvL6ZMILhpw+e4aDhw7hxDll15XiZpmha9WgORGg2ayPisfg2wBOnjwJrM9Ia4nDhw9TWr9fyvOcJEnYsmUL1qyMc+Qr4cz0DEeOHycbdPSGYch1111HEkewyg5NFz/xDS6MGrjBXbFj50gieSj9dfr0aay1pAMG90p9FGPMqAA7nG2CAQti2PJdliXz8/OUplwzzbZ1wOkzZ0a1HWstcRwz1myu2fWfnfdG4cPGyyiK2LVrp293WWWD8AsPJpeDsIMON0lR+CDZvnMrGzduJFCCrCxobtnC5772dfoqIEgSoCRrz1HAsh7dskDGAZ3SUApJr7S+XclabrluD+Q5cSWhCAIeenY/faVZpKBQloJs2cdf7oOBa4dUvtGvKC1CSvLCgFBkhUComPZCH2EVlUoNA2RSkgt5yc+/yLxHcZ4Wo+fDR9bP2ff8MUqlaC3M06gIJhoRSIfRklYpln/9rD+WKSz9bjo6dnuxAw6+9v3HOdPPGN84hc1zXNrhja9/LQZYbcWCC++0VYPNvLUIJen3uoSySijgTa9/LX/wZ3+ODhTtxRbHjh7l6NGjXL9zJwJJpdZY9kwvlEQBofSiWbFWCBxCSrZsmILBrKS0H6CnpqfZPNZEObCFQYfLPIHlnv8L/h1ovwsNtEQrQaUeEZeSWFsi6TBlTpGXaAxCCbS6tB9AhP7711qOmkSLPCcIQ4JAcebsNFJqqjVJ4Bx79+wmCRUaUIPvbnkn4H8oJUgqnqLkrKVa9az0Z59+BpeXzLTOkkQxu3ZsZcPEJAKHKXJUsHoaFBf8zm6QgiiKjFBpmmMDAqOEO2+5lk99PiEINEXZp7vQ4vlnn+fGnTvJ+jlRFCOWudjTAM4iyxKhFMq5Uf/37u3bvaJPntNoVgiV5uD+A+y5+y6U8zJba1PreBmIwY1oiSXOIJODKXNOnTlBqCTC5FgJWbdDICAZOh9e6vMHsBaJL/jZosCWBYSafrfNs8/tp8wykkBCnnHt3isJpUXhQDkvz7QCMEWOGlDITJGho4i56TM8+djjJEHI/MwsG5rjvPaW25gaa6BhJGSzWrjgZV6vKHAwUGa1/ssVJVBww9VX0KhU6Cy2yHp9ut0eD373IUoDeeEo09zbYi7nMUoNnns+tOTctWMn4xsmkMGgMS0v+cHDP0ABpm/oTM8t//jLfTBQwbV2KJw++r+yLNm4aYJqPSZOIiKtkAhirX3bfWEu/fkLKEyJwT8vnSWqVkDA84cOMjE+xcZNm4jjGOEMV191FRpHmaVgyhU5PgJyU4KANO0jA19+eej7j3DqxEmqSYVqnBAozZ233Y4tz2WfVxMXPDMJ4ecWpTV5t0NRFISRJqjE7L36am644QYeeOAbiAG96KlnnqWTlow3EpRlxbKjKqqMLqwIPE9vw5btTI6N016YJ89zhJScOjONAXSsqIUTy2w6WT4cIAdrzfO+WxkidUxRFCwuLOCKgloYkuUlpYNAQGlAB5c2ve8AHcb+PgAIFeGQOAdPP3uAmdmzaCEwWY9QKDZv3YqTGh1VBrPq8s7fOj+b67DiV0kqQihffrn/m98dUcmSJCEMQ+64446RgI3Nc+QqSo1d8DuHgzMrTUlYqRIK4dPfwJm5Wa69/hp+9PQ+Wt0W6IAjJ07w0GOP8eY3vJasU1CrL08I0FrfvzRUuRHDgAIIFXEYeGXUTkqoA6YXF3ju+Ax7tk4RqMEm9hLDL5D8z7KEQEPpwOqYJIjoqpBqpcF4vYZKqnRKqIZQ6mCVk7uvDIO/HxUWytJ7MEXAYidltpsSKkUUBSSNKpunJqk0pygAg8Q5uWwiTDczVGIFWpIDufTj8cz0AifnFgnjiE6viwoDmuNjNCbGEXJwE4tWd5l3wVrjJZZ2p0UtqaGVxjh4+sARvv/DH3LgyFGeff4Ijz7+GDPzc4Shpsxz7r7zTm7Yew3SOjrp8rQZhl5QQgjSNB01fg01KB5/6hlm5uY4OzMNCsYaDe689VbGG4MkxCVOkQ/HUhAEGGPIsswviYRgfn6e+x95lLm5OWqVhDzPee3tt7Nj29aRzkayihvoV4tqtUqr1cI5rwE4bMbct28fx+dnwUm0VGiteddP/iRFlqOUotfrUYuXr6qa5zmVSgWlFN1ul2q1yszMDF/+8peJx6Yoy5IgCtm2ZSsfeN+72DrRZMfmCe689SbCYPU6fi84mAwlvTSlFtewwKc/9yX+5L9+mn3796OiePAaRz9LqTWqKCFpz84TIAmlwC4znZbnOdVqFSklrVaLKIqIoohOp+MFXUqDDgO6WUqlWfWCGnlBoBR52idexYv5auAKM6p/lGXpAyRJCIKAdrtNWKvT7XaZmppiemaGWr1KVhYjz+BglWslrwjrqNVqL3ntjTGIcFDOcZJ+ljPWHGdmfoHx8UlPQE6X50TRqNU5ffo09XodIQTdbpdms4mU0qtihSFmIIkdKs3M6WNsnRrjpuv28Ou/+su86Q1vXpnr8BK4cBcMZ8nyAhFFPHv0BP/gV36VTppz7OgppiY3kHcXiZKYucUFgjBGhQG28AMhCsJL7o+0jh9vtNIejVqDSIa0FtpEUYSxGUjLlbt38Lv/7J/wuttvRZS+0D9EVuboQKOWsam+qDVDEAQUwL59+zhx4gRBUqVarQ6YwoowrrAxThBCUVhDt+X1GBwCa9egQWwdf2cxNT6GMY5erzeazbXWpHmPEydO8Pzzz/O622/FGEMg1ZK61fITOxcVTFL6WtMzzzzDwsICTRVQqdTo91LanT6dfk4cx/6EgwCcIAg1UglKsz4zrWP10F2cA6cpCksYJVgMYRAQuZCsn3Pw4EEKA+EweAbZICmX31a/rN1st9sdrV2H7nd7rr2WuZlZKmHAwuwcoRCgNQ5Hr9MmCddWP20df7cgpKLWqNPpF1SqDRYWWiOFWYm3mQnUsPg/KJOKQY/epQgmM2AcSCkZGxtjsdsf9a48//zzaOe4+a67yKY2Egcag0GEkn6WElzqQs86fqxR9FqElSrff/Ip+lnOYrvD2NgYURgTBCFRFJ33+qWp+tKWKHnxCbKL9meyMJIjNsaM6Pa1SHPHa17D7/+bf8tkNSRS0M1L4or2hNTyos91Het4RcQazi50+c1/8X/w1MHDBNNzhDqgPTdPlvaW9LsNusaXSJMsVyj1woPJGKQeOJdbO6r1WGMJtGR+9gz9zk42j4UMjbVjWxIgKG1JVUcv8+brWMfyoaTj6JGDHDlyDJSmVqlSRhHNmk+SGceAq3n+38llrpouOJh6vR6VRhMJI6H+pFKj1/WWhxumxtFA3iv9Ji8QRJEGLIE061PTOlYXVjLRqFGtVtFaUjqvS9HpdKhNTI1eJgdNrgCmLLES5DL72i84mCq1c0VPZzWhrtPrnnPASFNH4RxE2vsxCYt3GNMo682ivbiGl1tJs5QgqpEB8+0eD33nEbIso93rUpgSHUdESUzp/CxYt5e3wtBCVjI+0aTMc9qL89STmB3bt3LV7t1s27JpNFun3S5xJcEVBSKMcAJ6GVSXOXEvFX8ERhLB4J1B4iQhL3KUGGpjDBqEAFeWMFh1ZHlGURjq1XP63EVhMIEi7RaMVQJwBWR9kBrCmCFvJ+33KW1BkiRIJZbUFi2OCAW0F2dp1Bv++FkJYULa7RHXB0KRZrAGGy69nMMZgw00RdojjkLAUXS6BEkNlCbPHWEk6KclcVRBC40MAvI8pz4xRjvv4qxCDoeQ8IRjFUiEk8uugK49N2VEdvUM4Diq0C0K/stnPstnP/8F9u8/6rODYYDSmsKUXqBD+BbkIL+8Z7ZCKN/rg0BJKPMMZ0pec8N13Hffffz9n/t5GrX4PCvOMPQRFK3AClgIMTLEBs5Tvk2SxBPtncMKiUGSZiVzc3MDxdMG07Nz1CsJ1aRKEPrhvzi/QL1aIwgCWp2csVoIWM6cOMnGjRsQYYyxknYvoyhyxsbqaBIsUDoz6sbu9lNqSUSv26fRGAdbgJSUArSSRA3fCNlPC9I0HXl/+WsUEkee0BpEMVnWIwoCgloVk5c4KwjDS0sCXvNgsnbYX+gZqsbBl77yVT77+S/w4COPMTa+mSzPkaZAhVBaQ1E4wiSmUmv6OsJlDCED2v0+pihp1qsIHTK30ObBx59kvptx5bYd/PQ734IMAnAGoSQ4h3UCsUKJzqGFitYaKSXW2tFM1U0zkjjCAUfPTPOlL/81D3//UQ4cPMSho0fYuX0LW7Zs4U13v4H73vQTXLNntxe8d5Zee56xagOFpdftsmn7DkDyzIEj/Oln/4IDh47yxNP7SHt9tIQ9u6/grffex1vfci/X7LmSalKHHKpJAlgQksXFRWpjEzx3/Biz8y2+8N++zL59+zhw4ADOOSYmJtizZw/33nsv99xzD5umxkiUJIwrmCxFhQqlNa1un3pYWyupy5fEmgfTkA4/dKs4efo0n/nsZ3li3zNcdc115EbS7/fp9/sUpQElCaIYU1pmpmcve7dxm2cEYQRSkRaWer3O1NaEbrfL88dO8eef+zx33nkHG8abKCkI4hgQmNKg5Ao1zhkzEsrX2tdWzmkyRDx3+Bhf/upf87m//CJP7HuWSmOM8YkpVG0Dzx49xfNHTvHDfU/zla9+jXe/46187Od/jkY9wVqLUpZ+u0ul3iAz8Ad/+Mf8yZ99hpnFDlFcRdZCWrYHeYE5fJIjn/ozvvLVr/Pen3o3H3j/+9jcHNYZJdYZolqTVmH4/F99jb/8yleYOdum3+8jhCaOY860+hz41oN8/buP0Pz3/4Hf+Y1f5e333ctErYKOYsCCktTrtRED/1JhzQ8t8Ov4ssyJ4gqldRw6dpzpmXkq4xs5fXZ6sHnUGBwhgiROKMuSdrtNEF3eRV+TFtQaTQyOVqvF9Nz8aGao1ms8/INHmW93GB9r+s4eMdD5E25FKnDDWWmI4U1LKeUL68AX/vuX+dNPf5Z+Ydm1Zy/tfs6Z+UXyrGTz5i0oAd3Feb71vYc4evgwi3PzfOwjH2bH9q1gU5J6lbNz8/zHT32a/+cTf8RCL2XbzivJsoKFuRa2NNSTGlYGnDo7zaGDx0j7BTPzLf75r/0SC4uLTEw2ESrA4fgnv/VPeeK553n40cdpVCdGJhDzbW/nmiQJUaWCEYr/9w//mCNHj/OxX/gQWybGsUVBEAxbOyyXsmFtzYMpz3PCIERrSWFK5hZaFCXUxydY7Hap1avU63W08CzgPM1QAxvHyUaDftlb61O+IFSSkDzrYS00alWCKKbT6ZGXBVGY0GvPgVRY5wYSABZrCrQOVoQC/EKO2YjShQ+s/+sTf8IXvvzX7D94iHqxT5VRAAAgAElEQVRjgrpQCCFp1KrIhubQoQNMTYxTr1bZsn0X3W6Xz3z+iwRJjX/0a79EKBW9NOdPP/t5Pvlf/5xkfJIrrtvGmTNnOH36JBObN0MQYa2ll2Y0xyfZsGEDJ2dm+MNPfpJrdm7ip9/zbozwQ//3/t3/zVe+9rd0DWzZugub25FufLfbpSzLgWxYydzcAmdO90m/8Jds37aJj7z/feggoNvvUUlq58z1LhHWfmYajRiJQLDYbtPp9ZnasJlSaqTt0mnNIRyMN5okYw3KokBY3ztTt5e+n+flECYxaZ4xfXaW+dYCtcYYYRBSFLCwOEczqWClIneWGIV1XhddKktRFoQrUIcb7o+GFpjD5wcPHuQzn/8iWZaz56pr6ff7tObnkYEmiiL6ecGVO7ahtabf7RGGIUljnCOnTvE333qEu970Nt548xX8YN9TPPDdhzg73yJIqsztf5Yyz9izexfHT5xlamqKqBLQarWYX1wgCryRuAgln/jkH3PnT7yBbZs38sijj/NH/+mTxJUGeeZI4jrtzlk6Cz7JNCSqGme9ybOzxPVxTpyZ5m++/gC33Hg9N+69mjAM6XQ7VKq15Qu2LANrPjKDMPSZmLiCUMJbeFqDKXJ6RU49zOj32lxz1V7+3kc/xrve/g6iIKS94PWrw0vctv1KyLFIqfnb+x/gk3/yKZ597nkqjSZJkpBlGc75DJ4xBhsolJBY/ODJ04ywtrxgWur4MTSlA5iZmeHJJ5+kk6ZMnz3rBfXHx1Fa0O/2kCanFmkWF+ap1+ssLi4ShiFbtmxFBjHPHznG/d95iNffvJsv/9XX+OFTz1BpjFEYv49qjDXptubYMrmBVnuR1lxBEIc0GjXKsqRfpgA8f/gIX/jyF/nlj3+cv/zSF5nasInT0ws0mxs4Oz3HVKVKr9fDOUdtifm4xPltgVaU1vD9xx7lm9/8NjfsvRqtNJAv67qtBNY8mIw1RNGgVuUsWEcoJZm1xIEitzGT41uZPnGKm6+6kismq14Pqb5hjZTfl4sSh+bIts2cOn2CsakNZGVBlqdIJcnpoTFMhKFXJBISG8SURlBLlu+5mltBpAWm9INLaY1D0tiwiU9++gsszM8xtXGKkydO0a9XEabAZm3e++6f5NbXXM+TR47yp5/+LPVGHadCzk7PMrVhgrTT4Vtf+2t+/n3vYP+Bk76WU4mxeU4oLcJmuDLlnW+6jlvvuJ37v/1dvvPwDygKS1EU6KhCmuWUss79DzzEr33843zrb77DwePzVCc30G13GNc5sjpO3p7hZ9/zdm6+/moee+JxPv/lv0bXpyikpsi6bNm2nWd++DhPPXuQfmFJAklUjSnJUFw6hs3lvWZaxwVDqYEWvBDnJSLKkkGruU9QVKtV8jwn1ooPfPBn+Rf/9LeoJyEHTk7T65Z87YFv0u+XGASdbpdKFDGzOEu/3+fIkUOUeUGuc3QY4Kwjz1M+/PM/x7/8jX9MFIXc/vo3EH/ij/jqN+4nkhEiCAjCEKEUh48e4UfPPs/84gKNsTphtcJsfwFjc84cOczv/PY/5jd+5WOkWcp73vM+Wj3Dtx/9IUEcMd/q0Gm32bZ5C8eOHaMsSwhCX3xdoWzoxeLyzjOv44Ihl5A2hZReUgy/tGy1WgRB4JeTYQhO0O33mdywmXq1gpSaPdu3cNsttyDKYfJCkZsSEUrmOwtk/S6txQXiOPQDGQh0RD/NuOHGm4iiEAtctfsK9uy9euSV1Wq1mJ+bG5zHIt1+D6f8PL7Y7dAv+tTGG2yemOLKHTv9IqSEDROTbN+6A1FaZk6eJg4j0jRlw4YNnD59evS5rbWXfOGyHkw/higKM6JCD1UJhlm9UHszuqIoiKsV4kqV4ydOcejkNJ3McOToNM89+xxlWSKlJI5jgiigm3bRoSIKNOPNOnEUjVwikQInFQ89/AMKfJbu9GyXI8eOk2YFAsWGiXF27NhBr9dlcnKcRqNOrVaj3WuTlxk6CpBhQBIEPPHY4wBUqjEnz8xx4sQpJsbG2TQ56YVUhKTb6VCvVknCEIxDi+XSVJeP9WXejyGMMS+qXiql2L17NzM/epo4Dkmzkn4/oyxzvv3gQ0SfCHjtrbfy/e89zDe+9W10EGGM8X1qwtFpLXL9NbezdeMGtm/dwtFHHqM2MUUnzej1Umr1Jn/1tb8hQrLnqqt46PuP8J3vPkie53R6KXlZQKcNpuT6q68hCjWT402eOznDeLNOlgtmZs4S5yGf/exfkPW73HTTa7j/W9/k2w8+SF440Io4rBNIxcnjJ3jHT/wEgQJbOgKtsZi/WwyIdaw+lu6VpFIYC1EUcPfdd/O333uYpN7wqfCypDSWY8dP8Zk//zwPPPAAprAcPn6cnVfsIe116Xe6aAXNpMIb77yTyfE61193Dfd/90GUUoRBxPTcLDt37eDksaP8hz/+j7zuda9j/3MHQAquvfZ6Zubm6GcpvV6PRGruuu02No+Pc9dr7+Cxp4+Q9rvoAIR0TE1NkRUFn/rMZ5j4+tcxxlBtNMkX2z7L2O0S4GfMu+58nZ+NxECF0LlLmqS61DPjOlYBw8KtNV68xhhDoOGee+5h567t5GmKtZZ6rclYc4KtO3ZSGxtnemaBhX6fqNEgtSXD4aFxvPbmW3nXvfchgXe+853cctPNZFmGFd5MwVhLUquzY+duZuZaWOd1DQ8fPcr8/DzdbpcoDrjl2uu45667qFdqfPA972P3rp1k3R4mS2kkVX707FOoKGBi02ZSCy5OmOt2mWsvUgrji7g64M0/cQ+33Xab/7yDjeJaOBO+HNaD6ccMxp4r2r6QOX7N3p189KMfZWJigm63S7/f5/TZM7S7HQIdYpzAak1zYpxWp40TUEliqlHMHbfczB03XUc/7XPnbTdz7733kmUZRVFQqVTodnvegcRYDh48yNjkBJMbNpHnOVEUoZXPIL7zbW/n+qv3Qmm56cZrue2WW5iamMSWhjJPue6G62l1Oiz2eix0OqgwxEnF5IYp8rIg1AFJknDvvfeya9fW0ed29hLrCbIKwVQLK/Q7fYSC3OH7UZSi28tBDu6azg3W4pIgCHDOkee538wKzxaXcUgpJb18sKV1BdjMP7+cH2Zg4RsFWK2xUlLkFnKIynPtEXYo4r/CgsehHHaQSnQQAZI4CgiBCPjZ9/4UH/7AT7F5oorpzbFlaoww1Mx1epiwStax1MMGW5uTZPPzNELN3/uffoGf/9AHMUAc+n6kj3zo/Xzkgz9NIwIpSlSgsEpQRBV0Y4wz83MYZwm1pLc4y7W7tvJz7/5Jfu3jH4S0C1riBPzmr/8S73nL3dSCgIXFgul2itURQZhQrdaZn13AloALCHSNWp7yG//zx/jFn30v0TATPupPUuAyEm0RaQeRp6iiwFmDCALSFb3SL8aK75mKLEVJUAJsWdLu9wcB5O06jTnX3+JwI2JmHMfIOCHN2nQ7fZTz2STf92MxRYEaGKxdzijzHjKueW2MosRQEMcxkdRQ5MiBdahUfp0vkV4bw7lVd6QHmKjG/P2P/iJTU1P85//yaZ4/cJiJjZsYq9Y5OztDGCuOHnwOk6dcf+3VfOTnPsgHf+a9bJpqeKVW6bDAji0b+Y1f/zWu3H0V//lP/4ynnztAXEno9XLGqxUqSYjNM0osN1x7FR/8mffzM+9/H0iHjALyLEPGETu3beR//eVfYuuWbfy3L32RZw4cJR30L9VqNVyg6ff7aBzNJOZf//Pf5e6776aaBBSZT44EWlKkfZxzRNUErRVq4ISilaIwhrIsCIPlSzO/HFYhmPpoIdACdKwhrp73e78EEX5Gwi9BjDGUtoQ8JwpiemmLOAxAeHc9g8QIiVKa/NLP5i+LMK5hBAipESh63R5xXAEK8m6faOz8YuoQa2VTqYGNzTof+/CHuOGaq/n6A9/kscf3cfjoMWJRcOX2HWy76zZed8cd3HP3XezdcyVhIHClRUsGclglIJhq1PjFD32AO26+kW/c/00ee+wJDp06TdrrY8ucbTs38dY3f4h3vuMdXLPnSgRgTIEMNEEgWWj3qNcrbNs4xsc/8gvcsPdqvv/k4zz55JPs37+fLMuoVCrcdM31vOlNb+Kee+5h76YJarXEv5dwhKH33AqTBHCUhcUqz/qwThBEMWWWkw803Vf72q4oarUKUsH8QptmJaLTnmdichKQPmULKKl8e7U4V6kvy5K8NCSBAuuIooTTZ2eY7xaMVwNPueGc+8Xlin5h6eYl7VaPsbEJ6PQIlQZnCOo1MtMaXYdLAeFyuu0etUaT1992C3fddgszCy3SPGfTxilOHj2JUoqJ8THqlWjUMoMtkUozvTDLxNgEAuh1WygVcOeN13Pnjddz5PAJZL3ib5jWEgWK8UZjJFOwsDhHrTmBwa/MKpWYIi0JAs1YInnHm+7krrtupdvtjvxwh2OjUqkQhwptipFhXqAllMXIs1gpBSqgNA4nAiy+QTJ00O11iOPVdcFY8WBq9fpE1RphtYIKFBOTGwC/oOnlPepJxXui5jl2ILAeRRE20GC8w5yOK5Sl5Ytf+iseffRR6tUEU+ZeYyK7vOWVJxpV2t0+J87M0mt3UUJSliWmzKlWK5i+8Xsm41jKfhFCrElaVwpJo1HDGG8aIHXApjHPCUyLkt07/abeGkOeZd4eVCtwGpwbBJJDIKhXK4D0HEsn2bVzG7PtFo3quXYIZ0uyPCcKNWPNMUokeZkjEUQ6GHQaQ5FblJI044BmPDY6X+ssUiSDLUGJVIpyoNEo1aCVRamRzoX/G9BBiEWSFeVoJaBXqpX5f4AVD6ZO6kmNi52UeLzK0LCxnxXEyTkxliAI6GcpZVmOqPZCCDSe7ZylGfd/81sURYaUPvjyIqPZmFjpU15RCFtSFCVx0qTXS4mSKjhLt9dDBb5Bb6k+mxvo877U0m810Ov2qVSrKAVRFA2krn1TXd7r0i0KpqamUEqgVIA1xtuGCkFpDEoGpFlKnmY0m03/GZwl63XRWjPZbOCcI+13/T54wKLw2TbvaZvoEGPNeXakQSjJs4xuu0ej0UApNWoh8QIHAoSkLC15YahUfOu9U/73JdDpZug44tCx02TGogLP9ojjmFBJVpu6t+LB1JjawPGzM/y7f/8JAmmweZ+xsTHGJqd43V1v4OpNEzQb3gKkklQIgsD70NqCwljIS5zwvUvGeZc6HQZENf9/ve6lp9q/HPJ+hkWgdEC9HqBViI40VpTIQBLpxA/iQQJiGExrhaRaxzuAOpQKBpY7OWEY0mzWz32OvPRE2DhGDZz5hFIszi0yNtEkGTD/O50OQkkqNf+3psyRQpPE1dHHMsaN3gPjA0gLP8Okpe+b0loTxgFhNO7/yIEtDYXx5yaVQgqJ0JJIe0HTbr/goUd+wKEjR2l3eszNzTExMcFCp8OJU6cJg4huno+WgKZYXTGeFQ+mdi/nuUNHOHXiOJiUWHvtgZm5Ba69/jr+1T/6Va69+hq2bt8GQL1eJ0kSyhxySur1xNc9ggAlvEpYN00pTE69XvcBdxkjrtdH0oDtxQ5FWTI2OUZRFGRlxuZNzZEy0RBrGVCl85lWKYX3JlYKlaiRN3BW5H5ghyHB0ICZgRCOhLGxJq6EwliCQFKteZ8uAxSmIBm6wQvvLIgQKCWwDrLSkiiJzXJkoNFBgA4VxlmyIkUHIVg30gYPopBh/s0Yg1KK0nk70k4v5evfuJ8/+uP/xJNPPUVSqSF1SJG2iap1Wp2UyvgEcsAxHJrjrSYueBHZzTLKQYN1oxqzMHeWSGpq1SaFkZT9DnEYkSPIZMxcIZgvJdXN2zh4ZpqP/rN/zQ/PzJLhN6XbNozzix/+EIu9FiJJSE1BEEfkxlCWBlMYYhXSiOrIQnglzsv44XRMpyyZTTsEEwm1zU06po/ViqhS45c+8DMkGkoBfesQaBSKAkupzvlfr9ZDi/Mz8KPfCUBJojge9ECdgwKCgd6hk4CGIJKj0SMHr4lVgBvcAB2gtFzSEgJxIL2WYhzilBy8TiKFJgwqSDRSKaI4Rg+yvcOHVD6zG+DrSN//wcP8/v/3B+w7fJRowyZMtUZPgqlupJVrosY4Ji+o6gjlvIe5JsR254jwt640zRFSUxQGKQa6gcvAhYtQJhVA0O1lVKsJE80GC702aVFgjWNqfMxbLmalp7MM7DpsaShLiyXnO9/6DrdfvYexSFFNYt711rewb/8BPveVryIr1ZGQon2JqvYL7+qXG/rz80RaE8Ux1hha8/MYY9ixYwdXXXUVb7v3zWya8Pu+0pQopSjKgrzfJ643RhSgdbw0hDVkZcnXv/G3nD59GufEIDGV+b2VNiAdvV6HdLDCadRr1OoVKpUKu3fvHr3XiHa1pDt5Obhwt3W83Gy1knDHbf8/e28ebVl1nff+1lq7P/291XcUUFA0RV8g+kZBqLcsI0dWIquXMxTp2XpPURL72S/OGHnJSBxHGX6yY1uRUWM1lmQjEAgQAiRA9D0UVFEUVN/d9rS7X+v9sc85dasAydVc6kq+H6MGUFX3nH322XOtueb85vddwNlnPcqDjz6OMRkrly5jfHycbr9ciRQ4voftOIVMlJBYRvL4o0/g/c4nsC0FWnPmqSfy3/6fP+CqSy7iu7fefFAwDcwBBnitAJtLEGEyTCuyLINFNVavXs1b3/pWrr76apZWvP6EscYVAmE0jhAIy0IYjXqDChG/tLA9LEvyytbtuF6AbTlESUraN45AZHiuhVWqsHzpIvI0Yc/eXTSnUkZHRznvvPOGLzWoAB6rHt9hB9NgLkYAZ607ncsvvpAdO3awddt29u7eTr1ex8sklm0Txgm5ACUlURRhjGF0dAGdZosgsEFD0mqCFCweqfLR91/P9e9910HBdOgHnVkCnYuo2N6wj2T6tKk8z/u+tQryHJNl9Hq9PmetaAnkaYbt0jeEncfroR1GaGGzf3waoayi7ZDnuK5Lo1Gj1+6QxD0mx6bJRkZwLYWFZv1FF/Br734np5xyCsBQfm2mQGehC3jkJb/DfjKVUigK2dyq7/K+63+dlStX8sRTT7J58xbarS4oieN6bNryMuOTU/iVQtepVC4zPTFBefECujFUbXCqDUwak2cZyrKo/ZK7ZHR6HbTW2HZByHSd4hanaUqr2aFWrSEcRcmZ8TltB1sUbne2M7cXi+MNv1RIKFeqNfa1Qnrd9rBH12m2GKkErDlnHZ1WCyEE5cDDc23e9ra38e53vJ2qJYdN3kEGcax2qCP45op+QdjtEJQqLFs4yq+/8zp+/Z3XsX33XlYsW0KWw/6JNl/8y7/kltvvoJfkdLtdjICSkqw++SS6UUocC0aqFrguYaZBC/wZR4aBgOLAQ0cIiOO5rTXulAvheQO003y48jm2jV+rEc5QHY0T+quqQliSKDIk80emn4vcwESzA5ZNmhfPgud5oFOmm5O899qr+f3f/31Gqh6dMEYYEFpT6VOQ4GAJtJlaGW/4mSmJYxzXLfpAWQKysN/0/IATli0hTcGxoVoKSJOYXreLW65RrVapVutsf+V5nnr2Gf74v/wXwk6XKIpQjk1uMoQSeFIO0zw4EFCDDzvX07y9Y/splUoEQTAUnU/T9ICyqrGGfQ+tNVmWFURY1yWOY/J5N/qfi5FSmWa3y4YXNtLqRmDbCCHwg4A8S8i7HeqeiwOUhYXrHyiRJmEXFZSG6raHpnj2URJhD/vJHIoa6hSv37jLBMg+X8rqd6zLJYVrFQ1ZoQ1xL2QqN5x2+lq2bd3OTbfcSr02QrPTQUiJ6DsYaJW/qvgwc/t9o5gCR4qyLL7cQaAM8vBBLu5aLt1uF9u2hwE0SDniOEYcT7HsXwKoqIdRNkG5zoJynW7Yo9VqkboWaZKwcunSojeVgyOL40XS6+D4AY7lHODwwVAtFg7erY4Uh/3NWXah9e255eHvFazowQtmhdt1bvADlzCKsMua0aVL2TM2zv79Lfyg4F61o94BIf6syG9kBiAoTmavcRic4wt3NkzTJEI6Q3e6Qa+5l6QI2yEDsjgBivw1NyCdX+7z4huBzCljWRZRlqGTBEtK6pVqQZQ2OVPTY0jLIKQg1Tm2lORKFR1ndfAs7sw2y9HuSjAbGhBSFnwuIxht1KmUAybG9mOXynh9Q7R5zONIUalWiKKIKArJ8xzLslBKIYTAcW3Wrl170HkIDp48Ptrd5+fhmAdTlqVoI3Ach0svvoR7H3iYn/zsQUwSs2zlYprN5rF+y3n8E8KevTuwLIsgCKh4hfRyFEW4rku1WuXCCy8EihRukM4NgmpmWjcbOObBZNk2eV7kYqevXcN1117N9PQ0L2zezP6d21HW7A5ozeNXGyuWLCp02rUm6rZptVqUSiUuOGc9l19++bCPNLNwNbOYNZsQ5pi/Q0GWTDJN4Ac0exHPPL2BJ556kuc3bpov/c7jqNDuTA4rb4Mq6LJly7j66qu5eP15lGBYuFKqGEKN+1O2M/19ZwPHPJiSLOzL5Ya4h4yst9o9/BkG0/OYx+FCvkYxN9MHjLCD/uyb3S+ZQ9EwPxYFhl+EYx5MnbiN7/pIJAZDEqV0Oh0WjPZt4+d2ZXsevwRIkqSYEu4PHh5KARqMcMwsNgxGOGYTxzyYemkX13bptFvUKgfGjwtllLwYppnHPI4QcS/CDQ5kNybrj6ULUSi6WvaQG5llGW7fwv6N2J0OP5hMRhbHRTnSLiojSZaiLJskT/FnOfrnMY+fCwO6Ty62XfdAkPVTPm3ka5bKj0WwHX4wpVFhmS4krVYLZTso28aybDQw+5npPObx+uh2OpTL5df8s4mJCUZGRob9qZnaI8cChx1MYXsav1wt+klCoiybHHhh80skWYpnzxcY5nH8YCsLy7LI83woGVav11myZDGODQ5F+jdwoB+KthyDgDqCNE8TRSGO62OkZPfYBDfefAvf/8HNhFHCRLN91Bc1j3kcKVxp0e0WSknVahUpJSMjI7ztbW/jve99Lyc0Du5zGmOGO9XRls6P6CfzzCB8yZ79E/y3//EFbrn9Tnbv348flCnV5rYU1zx+tWFsSZgJRK5JWyHNZpPOhhfZtnuMp5/fzJ/+wWcYGTnwjA5IyXD0U9yHH0xaYwoyLo8/+Qx33XMfWlicevpZRElKu9c9qguaxzyOBlOdwmpUSEmKpjraYOGyJSAl9z/8IE88cSnXXHPN0I0eDjAj3nDWOEoWs/bAc89vYGxqisrIQiZbHfaPT7BgtP4LXmAe85g9VCoVlCpm7Hq93rC3FMcx09PTPPfcc1xzzTXDWbOZFbyjDaYj+mnVl13qRTG+XyLThm4YsXzFqqO6mHnM42gRhiGdTgdjDNVqFcdx6Ha7CCFYsWIF+/fvf1Xz9lAO35HiCNK8vBizAOLMYLslemlMxXdJey1sq8zk+F7WnLiCsb07MeQEpRKO5zPdaRPYAVEUoXWG57pYVlFRSeOENItRlcWvElSZ+SFnk0J/TJD3kP1p4UHz0LKs4cHWygtF2gG/TAhRqKIKwYIFCxhrtYfd+4GnrBAFC99xHMIwPKrLq8oKSZKQY5CWQGOIs6Jv6PoeaS9CKYUlFSYvbIHyzCD71a9Uxgcmnw3D4U8oHkrHd4vp4jzDmGLhlapY/Y0xuHbBRojjeDhlHATBsPpmRDHAZ1kWrusOWeFQyDnn8sAzMXguBuVtIQQ6HGdk4RJ275tENRYSpim+H2AryfTkBLI0QkxR1bNthdEZjmOhC0XOo7q3x5z1p0TO+nPP5nc+8RHqZQ9lGZCCNDd0uiGeVYy827Yi7PbodrtUq1Uq1RJxHKMQr7pZMPcnbAfotnsEQaHRJoQgSRKyLBuymGOdDFnPtm1j2zZZltHpdOj1ejjKGc7n5Hk+LOPato3jOMMU+0jR6hR+WaVScY1aazq9LmlaBFS9WiOKIpKwCPriu7KRFEo+vbRXnDf6ryelHAaflJLdY3vwPA/f94vSc2ZIsgNj+wMNctd1D1JvGoicLF92Au12uwgsY4r37i9OWmtsJQ5abOHgYMp1j1Yv4stf+xYvb9tNlmVkKsOxXCqVyuvclWODYx5MvdY0o+tO5epLL2JB7cAXP1QUpZg6HUygRnGO17eA63Rj6kE/aAaBNKCKDF9ojo/a5v15mYyhd6xSqpAatgXJjDuuKVweBu4MnbDHiHdwn870C0zHysAhmXErJYVjBObA95FFOZajGCQAmuL7MhQmkIdehjGFOtlAv9x2zjrwXoOFYMaK/1r1Ms2B1zV9NwwpX+39FoYpgffzaQGxgGYU8/0f3MGml7bh9aeXi/PT7C7Ix36eSWpsYSj7DgrIsxigMJ6yHSyjiVpNVFDGsm08JdBJhu1YOINv0PS1t4054KA9uLNzPJbIUnSeIy0Lp3LI7FaeYyPI8qzQywPiNEYohaUsGr73qs8nho/f4Ok+uvKtVFlh02IEqi+gT56TJRk6M7jKKiSAkCBAFUrjSFl4URD3G5yDyBL9S5NgEExNTxQpmu3gOYXYPqTD9zcosrwwBXAcZ3gfhn+uE6TlFPchzYreT58WFLgz0rDBszH478H9shTKQGtyim67Q6UxSpqm9OIQbxYGy2diFl5d921gilRAWcUNCHt9YXaTE/gu0haARmcpjlfYgziOzXSUzzgv0d/SD97O5zIcW5OTo5MUE5thilcqlQg8D5mn6DRD9B8iz3HJs4w8TYvGoUgL+5Q+tOp/9v4/ryWLcTiwyMnJydKc3Ehc1wOlsJRdmN5qQEAeh2iTYbt2f0XvD6KpfrZhdH9LKTIHQ/GdlctVbMvuLwKaPIlJ46QwGrMkAok0UPL8g7aeJI4LgzN7hg7GjLOmSVPiOMau9nfug/TSzfDfNoqq76KznDxNkebAhG0wy+M/xzyYHNcnSlKiKMYvuQhtkFJhshy0IYsjLL/Q4Y6TFMf3yYBnNmzmnnvu4Tt33H2QOrjZcLAAACAASURBVNEgLx6cn2abRn+0kPSGQT+Q+Fq1ahXXXXcdV199NeuWLMRViiQudmzHdVGWRRSGWHbhdnfoK8KBDetoDaUVEiUkynUBVdhVUmxGaarptNqMNmoo3+/HrSaLexiTY1v2gYfYFN62Usr+3gUZGmXZRBqyRGNbAs8poRwfyDFJSqJj3IEdZt8Y3LIsnD672yDp9RLCMMTzPEqlfnC5Lkq5ZBy82BQYOkQjdLFpupZNOSgdYDbYRbl8NnHMgykoV7AcF9vxSHMQaY7r2UjhgBBYXuFBkOQa6RXWms9v2cqff/lv+PHdd5P7wUEFiF+2IoRJsuEUqNaG6elpXt4+xqYtu7n1jnv58z/6PCedtBrH9ZmcnGbELVZ62ykMEWwOrLTD15xxL+yjrGa2p6epNEYwSOIcXnx5K5u2vMy2XXuYmJqkWq5w4qoTOOuMtZywfBm+LbGcMgM3+SzKkbZCWgojIKGQLN61by8TExPcedcjoDNq1TKnn3Iy5521jhVLRhB9I2x3xpknihOktJHKwhiYmppmbzdl06ZNvPTSSyRJYSO0bNkyzjzzTE5YsQDXiH7q+NqIuiHK9TFa47seqi+BLKRNtzu7hIJjHkx7xydYsmghliOwACmLVShKMzwDuQCQGMdBIBhv97jha9/k+7feSq3WIMmi1xSgnEmbn8tw7BK9Xo8oTCmVStRro/R6PSbGp2k1n+UrX/06n/vc56hWA1wvGIZNu9OjWi0hjXzt+cnBSV8c3c5cqS/A5PD8phe5+Ud3cttd97B563YypfCDMkZrkrDH4kaDt1x9JR98329w3pmngpFk3QirHGBEkfT1Us3zmzZy50/u5rY77uDJp59i6ZIzAI1OU6ROWbZ4AVddcSnvv/43WHfGKej+NITWIJWNbRc+UY8/8TR33303N9x8G+12e1jtjOOiFH/GGWewfv16/tO//jj0HeuFlHDQORu8kl+kqWlWlOjDsJ9+lhFydg/cxzyYfN/FdSxMWlSIhNCgDfWRSlHFE8Xh0u97+HQmJ7nnrrsoVUbpZAbfKtELe5QrpX4JVhCGIUkYUSqVCM3cDqbMdHAciSNdOpMtNIYFixfQizoIS/Dtn97Nhz/1KWqVgJJvkaPJ6Rtra37OmUj8o/ogrbxLoFwUEp32heilIE40llPsDj956EFu+MZ3uOm22ynV6ixYvJidO7dTLXtEuUDYDjsmpviH23/Co089z//x8Y/xvnddTS+DqohJUgO2x72PPsVffOlvePjRx0jilJPXrmeq3SJOQhypaDZb2CWf79z0Q+667wFuuOEGTlleRRow0y2cUpkEh2/fegff++4PePj+R6ktqtJshwipqPk1slTg2RZbt+9my5bvsumFl/jc732Gi85Zg6LQaeyFPQI/6FvGSdpRhlOvkCrQQuOXAtIwwkpn99k5bvKheZ4XZr9Z1lc+LRaXNE0REqIoIktSQOM5DiXfxXMsdDS3tcalUGR5kdoKUUaIoind6XRQjkJJhyQ5YCV6kKftMVg4XXVAykopNTzkC6vwFn55xy7+65/+Tx57+lkWLFmOVBbNVgelbNI0J0kzlLRRSpHkGTt27uKGr3+Nsufwtmsvpd2ZJCjX+clDj/BXf/VlHn/yGWzbZnR0lJdeeolSrYrWBrviU60LkAotNc9s2MQHPvgRvviFP+Syc9dj1aogJXfddx9f+9a32PTCy1iOw0SzxcLFi5B9NWDLKhV9uF7Rd3rs8cf58lduIPnNX+eqSy8E5PAcnWY5znGUz37D39kYgzAM/ZvSNO0HkwQhsWyF49okUYzv2uR5iqUMeZrSCrt49tE1LWcbqQnJEkOiQrq9BK9UQmQFe6BaLhPF7YKBkGmUMhjRbwMcIygEuc6wpDMMpDQtzjndOOWP//Of8MSzGyjVFlCpNti1ezdJHFMp+zi2h1EJCIURgtSkKGHx2DPP8JW/+yYXXXIRFa9Eqxvyl1/63zzw4CPYfpk4SnAWOJT8AMcpGBBxlJCkGfvGpxhpNDj59DNIteaGv/0W55xxNmXbY6rZ4ut/93fc9/CD2LLE0sZi4qiF43u0Wi327N5NrV7Htm0MBtf36E63uf2OO1hQDbjo/HOpeKp/FJBkSYRzHF1Ujk8YD0aItR6yAQYrTBiGeI5LrVLimquuZNXKZZQDjyQOyZMUR85t3T23LGl1Qrbt3MePfnwvcZ6TZhkShU4PoUjNQgNaQEHvkQzHtYWU5BoeeexR7nv4ERpLVhAnOdt37CIIAuqVKu2pScaaTeyKg0HiB1XSNEO6NjJ1eO7FTXz/9tv48Pveza03/5AHH3oMv1RmZNFiXt7yCs2paarVMp1eiGPbJH39hUQo9o5P4HVC4iRhur2dB554mivXX8Tf33ILP3v0UUq1GhW/QRxlZFozNT1NueSy+oTljIyM0On1iBNNq9NhwZLF7N25nUeffIoNG1/gonPPQsmiqOG6x3ehfcODaZDOyH6Le/Bgyf5hUkhFmsbYdom3v+0tXHHJhfgK0kxjWRJ7ruvuKejlmnvuf4R77n+QVivEEgrbtknjGOWoIQUHqRH9RM+YY7NDGZ2jBuYKaYpyHIQSxEnGbXfcjrAdwigmSXNKpRJ5mtHp9li1bBknn7CCLXu28srWbeAXbhGtThtyTSeK+ekDD/C+97ydn9z/AH6lQmZs9u8bo1wuE4YhthIsrFVZtGgJO3fvotntMTq6AM0InW6IkYIoz/jxT+7jwrMv4Id33Em726O2ZDl5ZOh0OjQWNZgaH2fZwjomjZnev4dtu/awdOVJeJ5Hqg1+qcymzZv50Y9/zLmnn47n2uhs9tWHfhGOW4JZBM/BTVghBEGpRLfdpDk9Scl38VVxJs90hItXVHDmMPIsIbAcbFswOTVOkoMdlPEtlyyKSUV/TLr/MQY9EzND9ONoYLQuXlP0z6X9M1luNA8/+ih5nrN/bIKVK1cz2hhhw1PPcPbpa/njP/g8p64+kY07tvA/v/jnPLPhRbxyFdd2SHWCQbJh4yZ27RvjoYcfR1kOBsX0+DhLFi4iJufM09fyX//4jzhh1Ync9+CDfOH/+yIvbH4JywuIkhRpWwR+nXvvfYhPfyzklZd3UAqqdFpddKwJvBK9Vo/LLrqIP/z8/8mqZQvZsGED/+PP/hcv79rHvokmoa+pVatM75nmyaeeGfKg0jTHPc7B9IY/mQMmtRD9nv4M+rsxhjAsDppJFKPztP8oaALHRjDXtyVQSiDRBL6LZUm8wEWbgv2ts/yAtegsVWltyyZP0v61FOcJAwglmWpO43kOge/SnJ5g366dLGhU+cD1v8Zbr76INasW8pYrLubay67ExqCTlFpQxbMdLGkzNT5Ft5cwNjVFs91FIyiXq8Nx76uvvpo1y5ZQ8+Htb76EKy+5ENcCSY7nWlTLAVoL9u0bY2qyRRTFeI5L1O3h2g6+7eApm6suuYzzzziZJfUq11x6CSetWAFJRr1UASWxHJtypcbU1BQg0bpg5uvj/Hi84cH0Wn2imU1JrTWVSokg8HGURZqlxUVqDSYHoef2rz43r9frkfbd1Itxgxynb5RdMKQPvgfHsiGdZVlBXh0MxvVFGS3XoTk1wepVKyj7HmG3Rcm1aE9MErUKdkCvFbJwpEEtKJP0evQ6XdqtFgCeG9CLIpYvW4lSNq1W56D3DTyfatmnMz0NOYzWqqA1Oo/J0pio10PnUK3WSaKUPNWQgxIW9Uqd1nQToQXLlixBAe3JJjZQKwXEYYhruRgkrU4HYSnCuKAYhWGIsgqa0vHEGx5MM+0+tNGvMgMztkeaC7IkQeickmUhkAjhgvAYsirn6i/bQSobmQscJEpLbNsml4aeyIezTbNH5rAIqg2SLANLkaYpJduGTocVfglPODSnpilXAkqjZXZ3Jrjt0fv59t13MWlg08u7+fLXvkkz7OKVfaK0g+u7TE1NsXDhQlY3fAhbkOX4QZ0okuSZTdIM+eH3buSBDS+Q+mV+9LMH+fb3f8DEZJNaucGixkKmxsZxLUU3jVlz7mp6IqHXbXPC4oWMT+xD+4JW1uPmH/2IOx96ira0+eYtd3D/U88wFYZ0dIQUglqlQhT18AMbv+ThlXxSnaDt4xtN8zZ1v6I4dIgyCALOP/98tveeZPvOneyfnKIxWqdSrrF1207+5L9/gb/8i79kYv8UzW6HxcuXMdVsIYSiWq6Q2TGj9RHq1Rrvesc7+cb3b6cbRyxbsZS416Hd0zyzeSMf+egnC5F8bUjSnMVLlzE53cIIOGHVanTa483XXEWawJWXXsIDDz3C+PgkuQHb9Ym7bX7y03t5+slHKXkOURQx2Wzj+QGO49CcbjIetqn7AW97y3UFU0JK0txgHWe14Ll9mp/HYWNA5jzU9FgpxZvf/GZ6vR61Wo3ly5dTLtUR0kEol16UsX3nfhJlIfyAXpaTC4EUiqnxSeqlCh/4jeupVWtcfNF6psf3sW/3dqTKme5M4tYrVJcsJEfRTTKanZBOFCOUjecH5AamWk1E1OZD//x6Kg5ce/VVOJZFGMdUqiM4XpnALxNUqqS5YHyqTSdMCcp1HD+gOd1m+ZIFSJ1R8jyuuPwy0jgCNK49e75L/1jMB9OvOAaCjADnnXceZ5+xjlqlQq/dod1u0+l1aXe65NpQqddxKxVaUUSr16VSqeC4NpYQrDv1VN5y1WWQ57zpgvW8861vYfnyRfS6TaIsJBM5eybGiDKD45WRlkO72yOMCxpYtVQmjWLefNnFXHzuOlzgmisv58ILzkcJQbtd6C3GSUiSJERZRpRq4syQ9u1hXM+mNT7B8sWLuOSi8zn9lDX4rtsfdxNk6fGtQMwH068YBs54ryUO0mg0+MPf/zynnbSa8b170EnMiqXLaNTqxHFKu9UliiKq5YBapUxzeor21CRXXXYxH/3gB6j3HYJGGxU+86nf4bx1pzG2ezvVwKVRq6C1Js0zJicnMcZwwspV1Cpl9u7ZSRb3uPD8c/jc730GhcZkCauXLuaTH/ltzj7tNHrT0zQnxlncqINOScII5dh4pQBpIE8jHAz7tm/lqksv5pMf/Qi1chlLiuEslG3/E+0zzWN2IPqN8EN/byBSf+7aVfyrj32IeqPCw48/yf69u3Adn2rg0Zpu4QcO7U6bVtSl5LmcfeF5fPIj/4JrrrigmMJQijTLOf+c0/nw+3+TNA7Ztms3zbFxaq5P4AakcYzWCWF7mjgJ8S245vKL+dCHPsQpp6wFdH/oT3PFxRfy2U//K5b+w83cde/P6E6PkSUZrh9QLhXN4InxfbhKsmjhKJ/42If5yAc/wDmnrRlygvMkxXF8OLbMrMPGfDD9CiKO46GVypBd0v9vkeVce/mbWLVyGV/55re45bY7yTKD75UQWYqJQhaVS6xYuZzrrnsz73jrtaxbswaBJmy38Ws1Op0W9UaD977zOtaefBLf+YebuPOen9LtRUw0pymVfbIEpEk467Q1XH3F5fzau9/NmhNPIIwyfM8CA1NT4zRGFvCOa6/g5BNP4oTlS/nxXT+k2Q7pJAnN6QmyLGPJwgbnrzuT9eefzYc+9BFGqwEK+uIs7vCzJonGcY9fsjUfTL+CSNMUrz/NmiTJ8GETQqAsSJOINSes5I9//9/y8Y9/nCeefJY9O/cRhiG+Jblg/XoWLR5h8bKF+EqR64S416VUDUjzjEajMWT7n7V2DWf8wef44L/4bV7c/DIvbH0Rx7KQEk5Yvoz1F5zHwkYNCYRxiO/59PrCKI3GCBhNHEasPXk5f/D5/4tPfvS3eOGll9mweSthkrFgwQJOXLWCU1cvZ8XihRggChNSnVIKis+lte5TEX/JSuNJlOAEBbEw1xHdcJLqyAL27B5jpDGKNl3yOMYTha4aUQqWAKXJZYqDR6fTolQuY4Sk3e2QJhluUCZqh1TqgomJCU46YTWPbNjI6LJVeI5Lt9VGCIHrzO34j02OZTls3TvGyhUnsPHFzThBCWnZ9Lo9qo5DhmI6y6g4FpKUPI6xXI8wLEQ9jxYzJa0GgTSEsLD791ABaxaNsuatV//8F5QObrk4iw2OJTO1ABWwdvUi1q5exLu5+PWvq09EtfzBtG2xiwR987KSA6Vly1i9bBlvv/Ly13yNTh5R8h2akx1KQQkMWEqQRymua0MKvmehTYJbsojSDCVsJvaMsXR0MUJmw0xQZwapinQzzXqFRslR7C+H/ZPOIbptrltQ7h3HwfM8Or0Q5br0Eqi6gOMSxxGO6xBnGWG7Ra1RBSBJYiqVCpZr0416eJUAZRk8v8zO3fv487/4K770139DmiQIbfoijHNby9xyHTKdMz3VIjfQGF2I5weESUqpYiHTsFDlsSwkHMSGsN3jX96d6ygpB5DU63WiMCTPDaVKgLIUcapxbcl0J2RycpqpqSm0UIzWFtJoNPD6YpdQEGryLCsUsQTHxDj6iF4hiiKk5w1FAjthOBQQEcpFC4uNW7ezsFKhXi7T7LXxtE9QLVOrFwdFnef4jksaF4Ny1dEaO3ePUSl5lKsjKIpy6VRzGkdZOI5TUFDU3C5A5logpUO5Porl2EjLZqrVJk4TKuUaOolRRuP0l0dLKlCFtJZ8LffjeRyEPErpRRHVeg038Ilz2DE2SaZzpLBwhWLf1BQjows5Ic+ZmJweOq7v6e4evo6UYPqquUpKpJAkOkPJN9hS5lDXAK01ruvT6XTIhOBnDz3Kxz/1afZu30nZ99BCs/KkVZx1ztn8h09/Ct9zKAceUimqpRLC5MRxiFfxaE62yDNdlHilolqr4/s+SZLQarXwKnPbTK3T7NBoNDBK02y3yfNCx8K2LCxbFn0RU2gQCXQhMmM5JElW0JDmtvjScYdlu5QpyLs/e+wJbr3zx9zxox8zMdUszk5JRqVR58VtW2ksWkQ3jCmXq5RrVRyhDjpXWbZNlh7Q9NNaH1Wz6IiCyfd9EhgO80mpCIKAyXAKJwhwLBstJfXFi6iUS+zes4enNmxk2+59hON7+X//43+kVq8StnuccerJrDvtdG6//35WnLqWxeUGcRwXbtoGcgydsFeME9jWrMs1HS2UY9OLo0LCSkhGRqogTKGvnkRcfOF6GpUy1lAyq+D05TpHOfM70y9EFCN9l91jk/z1V7/GTx98kDjV1Osj7N21l5FaFWM5LFm+gqBUQecT6DQjNQKhLIwxRH3RUxgQr4sV7I23lOkjTnOq1Wrh0uYV8lxKKVwp6UU9tm3fjjGGRtpA2DZ1f5RypcLNd/+Y697+Nj7wnneTJAm+Cfjt97+fZhjx2HPP0QgaJGlaDNA5NmlSBJZybCqVCnncO6oPPNvw/ArdbhepizGMNGozMTaO69msPeVUfvP697KgXu6L3RvSOMb2Aixr/rz0j4LvooEbb72F+x95hL1T05SCGkp6WMolMZKo3SNNUxARvl/CGEOWpIR5Tr1eJ0kSUiFw+gKpOs8RSqCOMi04/GDqyxVrrVm3bh2jo6P0koxer3B/UOSUAhfPt/G8ACMFSVis1Lt27sZrVLnxjtt533veTbVaBQ3vuPZa3HKNL375S7zy4ssEjoe0LaRSJFlKR+RoNFnSw8nm9kxTe2oS21ZUAxfHVggjqK5Ywrlnr+Paa6/lyksvQRjIkgTLsfti34Xn9tz+ZHMEEqY7He554H5wXVauPpHpiQ5RmFAvj9DKiwKVZTvoTBMEPmmaEumISqXCunXrKJcDkm6IY/l9x5Fi3vlQvcLDxeEHU5846bs269evZ82aNWzbtYfJiRau4xGHXYSSJHkh2h4mMa7lUq1WsaSiZdrsmRofjmqLvChlvvnySzj7vPPYvHEjURTR7nVJshTLc/ECn8xooiiidrT6wLOMZpJTb1RJ45jm1AQl12HZ0sWctHo1C0cbOP3vK45jLMcuBP37CEOozG29mOOOKE4plct0o5h2r4tQxeClsQxxN4KShee62ECr2cSYYn6sXC5z2mmncuaZZxbDMv2UTllWMYdGIWVtH0WGcAQ7kySJc5SlWFoJ+O//4Q/5yt9+jTvuvJPJ6T34Xh3XdQljAXmOiyQOo77slCTIFFVZwqQgLQWm0LUOfIulDqy6ZN0Rf5i5j2xIdynVAkAXWt0UvY/5QPrFyExR/BRJhpuDNhm1kRHG9o9TLdeoOdBtTdJLEkZH6nTbLRaNjHDR+vP57Gc/y4mLFwHg+DP7b4UGun+U5fHD/ukszjEYlCrSkrWnnMxnf/f3eP8HPkCapmza+DKN0RGa7S5/f+ONbHh+I8ouPJkmWpNIR5AbQzvO8UpFMCnPJ0MT5tncNzObx3GF5xVCmpbtDv2vAt8MCb4Xnn8Ob3vLdZTKAcJoTJ6zatUKFi9awOIFs2teftjBpByF1bcSSbMcjWHx6AiLRkdITM45687C6svnPvbY4zy34YXCzCrTGClYtHQ5sRbc99AjyCTFdx0yk+AEDt0komzP7dL3PI4vWtNNEq3ZNzaB4/nEeW/YK4qTkJFywPW/9lYsCVkOQmscu5CczrXpZwKzg8MOJj2zsaULdVWJVTgiGI0tFVGW41gKW0l0lhNGKVmuCYIyO3btZfOmzXSm2uzfsxeJRkrwqwGp0YTtzuu/+Tz+yaOsbEYWL2THrl2UR0bQFMUtpRS2VPhK4BakBhwFKEmaJBhdcAmdcnXWru2wg8mIwu1OConbd2UbVOoHYoB5HJGrEkpAmsWF5oGl0BgqQQlbSKbDHrHRWFbRSIs6IXGWUvbLx/LzzeNXDBMT47TTjDDNsNN86B3sWDa2VNhCFNJwmUZZEtA4UoDt4M4yXeuwg8my5NCDdCCCkoRhYf7ruiglqJd8emlKrVIiiWLKjQrSCZiabuEHNraShWepKnyCCs24wrWuF0fH/EPO41cHi5etpNPtIjJNmmn8oAxZoQalTDEcGUUZ3oAQbeQBM4RZnnc6gvKFxgw7Iv0y+YzKSBx3cd0SEsMF55/LwoULCDOGw2muAONaTLWaGCRGFBJfSkosZQ8PkvOYx2uh2wsJ07Qv7G/wPIckC5GmmCS++NIrcLy+2yCQ5xpLSeIowlYK6cxegevw0zwY+pAaDGhTqKxqg86yvtmxwbEtrrn6Sk477TQee3oDUdwlKJfRcQs38PFdG7uvOBOFCVmaYvIMM0/2nMfPQTdMsV0H17PoRSFRFJHGMY16nQsuOI9LL7uiCCIDShTm1pYq0r6hY+EsQZgjnKg6IKZYTHIOKexF/6tvGAwvvbKL7998E3fedRc7du0kt+bPRPM4cuRJIbzi+wV7IYoiRkZGeNe73sX111/PyctrAMhDGKsaTZZl+NbsVYsPO5iSJDk4eGZAa43IJFEUYbkOtiMxAiabHfaPjZGmKWE230eax5GjUrJpt9vkeY7neYVSrWWxdOlSyoGLTVFhNhjSNC0I0rIQApVCImZxuPyId6aZu5IxZjjGXPJLxVFqIETfz9oGbzLPP5vH0UABcZyTZRme5w7NFPMcoijGtU1RPX7d5v/sLeZHFEwD8XkhxKsZCwObzLzgTKGKVQHoC7zPbW7dPOY2TAbi9Wg/ef5qq9IZC32e55Qqs3fMOOxgGjgeHPp7B8yc9euOAJtiVviIL3Ye89BaogYV3zwnigrep+04B8yi6Y9V9I3eDsIs1reOOM2DItXLsoIdbtt2oao5eOH+v43OEabYzbIsw/fn2ZzzOHL8ooc1SYrnsRitOPjP0jTHmUWhysMOJq310BbmtXaoyLL60ksC1e9GCwpKlATmuL/zPOY4tCiKYFoX0gau3XdJNP3yt31wBKV58XjbfVH/2exiHn6fqT9ROxCEz7KMjRs38uCDD7JhwwaioEyepCgpcS0bk2uSKEZC4UI3e14q8/gnAOU6xfxSX8xHa02SJIUMnOui014h09w3Hi/mmE7jkksu4czT1s7qtR32zmRMDkIRphppS2749o389Ve+ythUiyhOcKWmUqmwd/8+RhoL6MURtu3S7XZxPQ8n/cXvMY95HCny3JDmGZZnFzJ0WUJ3usXZZ67jU5/8BO98++U4UqDjFM+xCXs9/JKHQRPnKZ468mPI4YtQJgmO6xOGIVte3Mndd9/N2NgYGcVuFcUpUkWkSU4vTkiSDMfxcFyXUqlM2Gwf8cXOYx6/COWST5glaGPIjEY5No7v8cq2rfz139zAqWsWc/raU4cV5pnV6KM1mD7sYBq8ueu6PPzwwzzyyCPkCCzXRSGwPB/btlm42MN1ix1JCkWadJmemsS2ZpfSMY9/2uiGXXIMvTQm62k8z8P3XUxu2LDxBZ588knWnnJqUZwwB879WZ711V2PHEfAGi9+xHMtJicn6fV61BctJs6L4asoSWm2O8UWGoboLMWpVPCtQmYpN/Nt23nMHgQZtXoVL3eJs7yQjctSyn4AWcrWrVsZ6pgaU2hAoI+JTvlhB5MQgiQrWLtJkhQ0DSlJo5gs1zRqI0xG+6mUAqYmJsmSCKvk43rFttoKk6O+6HnM4/XQaU7iuIpeEuMEJTzPo9lsY4vCGzkMQwR9v/Esw3qNdO9IcUT7Wp7naGGT5zm2bRNFEYPOUndyAt9RXHnxRegkJo5CSr5NEoeE3R7W/PDfPGYRFd8j0YYf33sv3eY0tcYoliic2C3XHZ6LsizDmlFZVlKRoY9K++qIgsl1XXKKaJZS0osiSrUROt0elZLDmaet5Q//3edZtqB8wIfc5IRhiBPMB9M8Zg8C2D02Se/3ezzw2GOUXI+eDNF5jmW5w2OKMQY1oLmlKcruSycfRefmsIMpDEM8v1Q0YvtbY5IkVJUiSRJ6cReR54xUSyggTxOkAGEJAv+A6OI85jEbMAhGKjWU0XSbLcqlGuQaYTTYB549MWNXSvvBdLQ47GDy+3P0GogzgbRKeL5F1O1Rcl20cOjlWcF+yPuDhMYAirw/59Rtd/Fdhe1YGAy6T5zPgcHMbp7PIJ4PFp0kmQAAHedJREFUmOeGOS9s/3oLW64LwqWnbKSErC9CSZaB7dDpJXgl56gHBF6LO3mANzn4//49NQC6EMYZnBlERJ6mKMsDbQGKJM0xjo2RYKOLs4Z0iFtt3HIZlKDTC9GOompJdJqS6hzXCwBJbjR5ZpD9BzZLYiwpENDXaYC0r6fqmP51ak3Wl8mWtj289gM8NQlpBkKBkhgpCgkwilnwngavsYCpNAO/SO+ipAPGLt7H6f9NrfGDAG0kSrzB1byjhoZqpQRoOu0mpXIVI6DZDdn00haee/LZIedvZoXFmGK8XZs5XsDQZjhDU/DDJAsWLOBNb3oTq1ctL54FM2Nl7OfwA4rW0eLQg/SrGP79TCZNU5Ik6c8EFQtkq9VB+oaSXQYEndY05VIVx3XIBfSyFNtSDLTu3WoFckOuDcKy8WyLJM2xHR+n+JgYDFJI5Ix4yA1YygE0GEizlChP0VJgWX5xnWrwdwoMvv84ifAcF2FMoSlNIUUUJzGWc4ix2xuMNzyYer2ISrnoNdmOB0IxNtXkezf/gB/ecRcbnt900BTv4KEzxqC1xvPtn/fyxx2+7QwHKIUQTE8X/kDnnHMOV1xxBZ/68IdYPFpBWtZB29iM0a+jwsxgGjyAg/tojEHncX+EO8CybXJgvB3TbHeQshC9H20oZJbhOyWwHYzWxHGPShCQaEO726FWqWJJq3CFFJDngl279oG0sKTE5BlSaBaONig5DgJNszWF71UKVSsDOsmQroMxgsArkwNhBp1Wr2ir9BcCpRSNRgPfk9huMSlrdCEwKftcvCzLsByH4+kQ/YYHk+cVq81AzSgHbrzpJr76je+wYeOLLFyxCrRGaI3ss38HD4Ixhiyf23ykXNrkElAKz/OoWR7tdptNL29n3+StnLb6RK5/7zuwVSFDZbIcYanCQnIWMNiRBouSsiyUJWmHEU888xx33v1THnzkcfbsmyA3Gi9wWbpkEZdfdCFv/2f/jHPXnYpSksB16DanCWojVCoVhGWRAfvGW7z40hbufeBBHn70EZ598WUsKSl5NicsX8olF53Pm6+8nAvOWUetWiNPGVK/u92QiuNgKYc4g4efeIybbv0xL774Ips3b6bT6VCpVDjjjDN461vfyhVXXMHKxXUCx0IpSa8bUrbsY+b8d7R4w6/Atg4ULaRls3d8jDvuupvde/azePkqolTPSE0g76c/A7a6metNXynQGtIootWN8DyPcm2ELMvYNz7FjTf/gKuuuZLFjXIxNZrFeLaFYxdnk2NxEIYD5yRxCLG4E+VMTI1x10/v49vfvZHnX3wJr1RF2R7TzTam02PzK9t55tkN3HjTzVxywXn8+8/9HisWL6ZUrqExKKvY0Xbum+Dvb7qZv/vuP7Bj526ktLCqddI8ox2lPLvpRZ57fgN333MP733Pu3jPu97NqsVLMKmm0+lRqdVAwLMvvMyd997DN/7uO4SpLEQlLZ/RJQ3CMOS+hx7nvocep1ar8X9/7lNcc9XVrFoySrlSQucG0NhKImdby+sX4A0PpiRJcGwH13WJkpRde/axddsutFQYpbCNRIsicGameGiDyTW+P7fpSMYYyn6ZPM9pt9tEaYJybISlkLbFw48/TrPdYVGjjEYMByqBvoTa0QfT63XzjTF0teKbN97CDV/9Ort276NUqZJFMXknxEjFSH0EYwx+pUIny/nJQ4+w6Ovf4uP/8l8yWq/TjZvUGiNs2b6T//31b3DrbT9i5+79jIwsxPM8WlFEliXYlsKSDtPNNg899Ryhhp37p/mj3/005VKAVy6Dgpe27eNLX/0a9z/6KJu2bqNWX0CWZUXBIE/RWqM8B9u2sQOPP/uLv2LfvjE+9sEPsmikjFSCKExw/eMvEfeGB1OWpNjKQqi+IqyUdMMIg2JsfJpR30MYg4LhIR4hyIVAS4kO57ZIZTPukaQxrutiO1Yx4xWHWFbhct5rdoiynBTwEDNMoTX2MdiVXi+Q0jQlTVO+e8s9fOemO9i8eRsr15zM0qVL2bFjB72kx5IlS8ji4gGebrfwPIfW5ARf+srf4toB/+b3fofRYIQMuP3OH/Gtv/97mp2Q6ugCpO0yPtGkVPPIUk2eQ1CpsLhSodPp8NKucXbcdCsnLGrwiY99AuVAauCvv/JVbrv7bhKhWHHiGsJ2Z8iqGUDKYreamJgg7kzxvRtvZvHCRXz4n/8GSjJMY00h0n3U9/BI8YYHU1Aq0e228PwS9JVlcqPxy2W0Y1BZjOgHkW0XopTqoIrXsal6zRaWBEvp9XrFBLJjF4pMYYhOC9KlV60P2fWOa6OEROcZQqlXyVMdCQbny5nIsow4jkmShD/94v8iTRKWrjkFI2DH7l2kaWGgEIc9onbE6IIRmr02WW5YsmIl7f0T3HPv/Vx04SVcc9lZPPjQo3z9b79Ju9Ph1NPPYufOPUzu3c+SRUuxVIx2bZIkY2p6GqUspLLBVkS54Stf/xrvfPd7GBkZ5ZlnX+DOe+4myjVOucTu8TEarn+QSI+UcjidnSQJyxeu4YXnN3DHHXdy6fr1nLZmFY7rUvDrNMdzXO4ND6Zc55RK1aICZDRog+q7YVtS0RXgCkPSm+RLX/4rLl1/LhJRpHm/BHOFjiPRKO689yE+8bufRXkVpO1gjCHVhpQuFjkN2wajyYUkVw4yF1iIo87yckAKUZhP90/6yrJwymX+7At/gUrahFGKsF16iUEpm3K1TNhqEXZCRpcu4pWXt7J42XLSNKU11cK2JFu2vsg9993GlZedxW13/IT9+9qsXrmWFzZsolytsGz1IibH9+BENo1GjbA9Tr1RIwg8Jicn8b2CdrZLlvnG927k3376d/jGN77Ojr2TlBcsQucxVRPTaxqWL12CyWLaYQfLslDYdMKETAh2TzapLF7GA08/zQ/uuYcTT/kwFpCE8UHKwscDx78EcgiklChZpHQDupISEoQpDr9HOXMy+zi+BRJtwGjDoSJQYaR57rnnaHV72I6H63oolTM1MUkjWMT1v/Vezj/nbB567HHukYJON0JKsBwPk8WEacyzz7/InrE223buIIxjZLNZVPYQTI9PsLAxym+9/dc46aST2PjiJm69/TZeeeUVytUKvl8izQ1hGPLkk08yNj7FSy+9hO/7TE9PU6m42LZNya+xb+8uPv6RD3L55Zdx22238b3vfx87qCBk0aBF55g8YcuWLYSxJrAPKGAdT8zJYJJSQD/VU0oVO5MAgXlVdWoeB0P0/Ybpax4U5seFMOimTZvINThWMR5j2zaNis9lF5zDv/7Yb7Nq6QLOO/csjM647Ud3EadFqqqFhbAFm17ezva9u3nhpRexPIcojqk16mRxQmo01111Df/h338GAeybvAqjU75/yy1MTLfZvXcvtcYIyhi2bNnC9u3b2bdvH0IUnLg4jqnYNiXX5reu/yif/PhHWLKwzPrzz6bT6/LTBx4iKAc0uyFSKTCSLVu29IVNDbWSx/E+AvxSyavOB9IvxkzOZJokhXYhRR8mSRKEVYxzR1FElsSUPZfTTz2RE5YuwEJz0opFnHrSanSWkqQxeW7IDLheiW6ak0vYM7afSq2GcuxiXiiKqJXKrF1zCnGngwI8C3xX4XkuftknEwInCAiCAMuyCMOwuMY0pVKpDKu3O3Zs400Xr2fJwjLNTo962WP5skWM7d/DdHNyqH+nlKLdbuO6B8iraXJ82TFzLpgGTIeZ3ftD/3wu/5oLkPJAS2EQWEII6vU6Ukq0LrQNbdtmcnKSp59+monJKeIo4pXtO9m2bdvwYVdKDS2EPM9jyZIlw98bPNDdbpcwDHniiSdwfa84rUnBjt27mJyeol6vUyqV2L13D2maEgQBjUajMB9zHPI8p1KpEMcxCxcu5O6776Yb59TKAXvGJnhh40aWr1xBuVxMHAxkj4MgQIgBz64YDTqemHNpntaFXefrPZzzu9PPR5b3HfOg0DKUsm+tknPKKaews/10QXHSUF60iG67xT33Psh//pMvsHrFMp7e9BLPPL+RJMtxfB/Pc4h7XaKww9qTzmCkUuO0Nafw1IZNeKVqUWlzXDIMP73/Pj7zb/4dlWqdfWMT/PRnD/D/t3duQXJc9Rn/9enu09eZ2cvsrqWVJcuwkm2CsR3bkrDxDWSM7wZbBCrBcaUCJEBw8pDn5D1VqSTkKS+QmKIITqUqhJvB2BiH4KjA2ASDsTC+Iq+1s5e59PT1nDycmd0VEAtZu+xSzFelh1GpZ1uz8/U55////t/X7nSRUQMvkPhBwPLSEpOT+9m1y5BDVx6vHp9nbm4P84vHEbbiU5/+DGmesWt2hie//32+/sh/0ZiaZmllgVo8RlXkgMXc3BxpmhHEpvCw1XFE245MI5wZzHlJDJT6BkVREQQ+V111Fd9+6ocsLRVoyyHNC/x4jO7yIvf/51fwXYesUqRlhRfWyKsSVZRIGwLpcv21b0MCt990Cz946hiqqojG6mRZhrA1K8tLPPTfj4Ow6HQ6BHHEjsYEr7YWsGxBHMfUajWuuOIKGvWIw4cPc/8XH8a2bfp904vDljSaU3z5wQfpdTtEtZja5ASVJfDi+qrFV6MRc80115geE2a12og+3Zlg223z1q88v0wOs9XbuO2+zXOGIw2DJi0YgkkXDh48CFXJxMQEjfEx5l9doJNkTM7MImSNTlpR2S5hVKc+PkGa5iT9HrYFU+MN3nHt2/BsuPldNzI1Obmq7l9aWSbJM6JGjZcWVtBuQKoE3bSgn2fYtk09juj3uuzcuZPrrrsOgNtvv51ut8vU1BQLCwv4vk+r3cYNIrTlIqQEYaNwWGr3kH4wII3L5OQkBw4cIAxNFW+4Ld1KbDiZXAeEA7nOScnQQlFZBZoCIU5dbSmyHFc4qMrGcSNKbZFVispSZGSrBNuuf5TKsdBIzzFBcFrhWIJQBvju5m9D3IH63JU+0gsAge+5SOC8PWfx5x/5GHvOmub4T36Ch2LnzDRZoWmXYNVnyGXIfKfLfGue6eY4nqVpjtc5cue7OW/uDdg21CKPj//pBzlnuknrxZdp1sZo+BO0TqQ0mjO0Oj1sGSC9kEpZWDhUuWamuYO/+uARZkLztbvg/H3c++E/wEkXUUmbMGhQi0K63S69rCAtBO1eCdpmIq6j+ymit8LcTJMP/f772TEe4wJpVhLFdUBQAXlVUmQZuigRhellYgvs7ZZpeyrk/RRbCAIpkSgsFLZwKIsKpSts+7X7AeMTdaRlUfYFqixAgVAVltA4WMb8fxujVBoh9KpAN89zikqZ6llZEsZbe+a76YbD9LodsqTPcy8dp7N0Ao2Na2l0ntDvLzF3zl6EKnnpuZ+yoznBkXffxh233mKsriuYqPvceuM7abfb3PfZz/GT51/Aj+vsPqvJq60FXNfFdyWqzEm7HaQjeMOevVz4O2/mhuvfSS9JsbRCCsFtt9zK8nKb//jCl/nZiy9QeSGe5xH6HiIMqAZpKsVgJGf/3j3cdMNh3nHdtbiDVPXQc06St0opaTQapsihBZ2kR1EUqGJzq30bTqbAC/Ecj7JQlHlCzXMHsiEXEFTqtSsureUWtqoQeU6aJkgBZrJsYFJub7ud6Ulw7YAKYYblgoisAj/wELZFmRfkqr2l99dsBLzn1ndRDz0+/6Uv88STP6CXZsRRjSCU2Nqm9fJzWEqxf+8s77ntVt5/1xHOao5TlSVFluOFIc2xkNtvfieua/HFBx7kx88co7c0z3hg5EDCKsmylIbvcP7+fRx5753cetPN2LZFvSapSoVlC87dNcNffPSj7Jk9m3+9/994fmGBPM8ps4RyICnSWjM2NsbU1BR/+aF7uOyyy2jWjeBZK4VlmX9XFAWVcOmlOZ1Ox4SiYVNUJX7g4bublxoIm0CmpcVF0qSPjYXteGaSdBAymucZtv/aPzKIA0RV0mg01mZUKiiyjKIokPXaRt/yxkLYFECnm5KXFYsrbaIwxnVsqqpAbLG4WRc5O6cmuPt9d3Llwct58OGH+Z+j3+HYsz9lYWGB8/bsZKY5xTVXX8Udt9zM5NgYNpD0Okhb4IUelAWWsNm76yz+5I8+wNsOHeChR7/J008/zdM/fpYTJ+YRWBw6dCk3XH89bz1wkB07Z7CB3tISUaOB7Th0Oz3CKGK85nH37x3hTfv38cC3vsUzzzzDsWPH6PV61Ot1zj//fA4fPswVV1zBbOwODCTNiuUOBgIdYeEEPpXlgCNPUkRobaafdbm5u5oNJ1NjbIIwirFdC1HaDMeKsUEG9ilNKHu9Hp6w8GpjdHoJuTKlXjeMcIF8m1fGFbDcSym0ZmbHLFq4+L5PVRboSpDprY0B8VzjfaCwOHfPLOfe8wE+eM8HBiPmsNRpE0gPX7qgFGmvg60hjAYe3MbOYzXUzkZw4QX7edMF++kmCe2VLo1Ggzgc6OS0ot/rorM+tucS1cdQeYFwHeI4AiDpZgShx1svv4jfPXAReWlS0gNPoIBOJ0UpRRh4qLyH8DywxIBI0Ot2yfOc8YkmldL0ej2yzJyvPemZ3YylKfLNHSzdcDJ104zWSpulTkZgQyP0TMTMwH/gVAE7jXicIu1z/JUF/umT9/GlLz5AmvWN5KRIcYPNXarPFLXYJy80r7SW+Onzz5GkGfUoJs8SbEvjRltbvk3S/moci+uYL7xG0x8o3SfrDQSgdIkQFm4UgTYGMIuLizRqdbwoBGGRpSl5UeAFPq7j0QhDamGIwEzRWiiiKCCOw7XfvbCwXMeM8Q0ejFIK8ixFSoljCzQaXRVQeUgbJmtrM2xlZeFYZqufpjnS8wnjOj5GFWkLizAMsW3bqCXIqbTClQ6et7lC2A0nU9ioYfsSO/TwbXPSUVioUuM41innIC0cpBuQ5Zon/vdpnnKOkRU5jrRJ8xzX3Vpl8Kmg+ivkSiGDGpWGOK5TiyP6NkSBRydb2dL78/zopNdZngGKODQrT5L2sCwb3/NXf1f9JCUIA6Z3zK5daIHnh3i+4UhRFihVkqUa35dEUTC4XoGyUGVutlquh+uYLViaZ3iugyNtHGwWFhZoNqexHQt/QPS1CWs9uP+QPM/RCCzXp9BrpGz3SsYikw8WhiFxHJMWin4/Q6OwTxmVdmbY+GpeVXH08e/xd3//j7zy4rPoIsN1HM4/701cdMklXHnJRa95fdLtE/g+vheTZ32ySqEta/DBWVTb3HdvvFZDdfs4jqTuRZRlSZ6bAzFlsblpW78C0rzCk7ZpdCpttkGARtHrdgclZrNapf0cx3EIQrMy9HoZUeTR7xcoNGG49p+xbBvXcXGl6beYxNUSgcaRNsL1EE5FKczIuynfe5RVbhqxjk2zOUGWJnj+2kqkqoHd1zoZfF5UBJFEA98++gRf+/pDtBaXsRyHpPUys3v28uijj5IpQX28ia99LMGmR8CeftiZcGktd/CjGtPj4xRJD0e46MrCC2pU3WVCP+SfP/UZM+RlKUqt+OrRJ6g++S985MP38JG77yEAim7J7uYu9u5+A1//7nfZ+cY57NY85DnasnDlOq+3fht/ndZsuyIrwfUcVJmgC40AKq2JQ4lGsSeImG7UqQRkucaTNgJj/9bLSrwzTGI4FbyB1khjNHxrJ1iBH9fXvbZwB/NBw6+gF3uUgDtolK4//VqWWH3uV+btEAPNXGneDqx1zknD62yJte69bN/hpK+867F+JLQzP8/4zAw58Nd/8wm+8a3HePrZY1S6xPclIRH5Yz9E2yG+L0j7XYoqw3VtI7ItuqvejFlWGFOfqsK2zRAlZ2DMcvrG/cDkWI0KaC0u0lpu0ZyeRQlBq71I7Ap0pagUFFpRVSbBrRzEIX76vs9y3jlz3Hz1lfiRRPqSyy9+My+8epwTrVfw7F/u8aAHhm+n3ihuLbRSJEmCEGK1IpkkialESsn7jtzF1EQDMC5ZAiP3cV2b0Bupu06F8ekZ0PCFrzzEAw88wLMv/gxlW4RxQBT6JEslSiuCKEINaChKm+WVRZIkxXGcVRXF+vRLezD1fSY47as7K22iWh0E7N6zi7P37CJTFllVgQQlXZTS2K6HKwSeDoz3mTADXCdaLR56+BHe8sZ97GpOIlybD/3h+8Euue/+z6FkY62UuU6iYw3n/LeBZOe14DgOfmDU1krDiYUWaZoyNzfHpZdeynvvugMLRZamg+2MQlcZlru9jWK2C7qdHoVl89UHv8ZCawnXk8ggpCgyFk4sEnkT5P0MV2ra7RU8XxJFEZ4MmJ6eZnZ2dpVEQ/JslAHoaZOpVq9TVgpLCM499xz27t3NI0ePkpUVe+f20VvukpU5ni3I0xRLGZlNv5ca+b+V8cJLx6mPNYyBYNFn99ln8bE/vptDl13Eff/+1VXJ/5BQsBYSsN3JlGXm6RcMmpdFUdBsNrn66qu59tprmfbWrMuGGG5dVVWZwbcR/l+4foAvHVpLKzjSQyd9yrIcjJVIyjJf9WT0PQ9hWaTdDu3FJXbvnOXiiy9eJdHwcx+OpZzpEeJ1rWtlnuE6AQcPXMrL86/Q7nY4+uSTLL36M1zhIbQiDCTdPEfYgvHxSXoyMfZNRZeiVASR2bl2+wmxV+es6WluPPwObrr+RgCUNq6uw6GxoQPNdh/BGIwSkeWZyQKyLIIgQLoDO2DMVnBoEgJr4t7t/qDYDkjyglA6nFhokZelUb4LG2E7uMLC0jau41OmCWWaEIcR9XqdC8/bx5G77mL//rWQ6CGBpJQb8tmfNpmyJGHgv08sXd535x2cvWsnjzz6TZ597gXjV205BFHEd777PeZPtPCkpN3tIqVEVTmLrRYvzy+xe2acaGwSUORlQZKkjNXM08FWCqGVOStpsIY+etu8ANHvdQmiCF86+Ha46iUOFWWWYbmxWWEHf9vtJsaBCYFw5CYXb3/zEcYBqQbtCFzPxy9NxJEuC9I0pVmPmZuboywyin7K1MQE05MTvPXAQe6444bVL/xwwND3/Q17SJ82mbzIBy1Ml7nIGWuM8/aDB3j7wQMsr3RRWmNLl35a8Lf/8Ak+/5UHEK7LSqKxpCAmZOfOnShMBSct1UA2UiOse2TD3Y9lgg5+Htt7XQIl65TWwJpMuPS6puEspcR1Y4pqUHiwIOlXlNoGHIrC8G6Lh0W3PRwXFlorxipOL9LPUrTWhJ7Elz43Hr6We++9l4lGgNBGRZ92TUkfxaAoYc5L633Y4RfTQk773k73giRJCMOQKIyIGDQAB93tyVqMrkos16EKfYSqWGq1kHGEUiV+6FOu9Hjsscf46J99nLLo04gj0jSnKi2yssSV4UkjDUMMl+HtvhVyHBP1qLUmCAJs2zaKZaWMXqwwczfD85RJobBpt9tIKbd96X+rkRQ9osYEjz/+BDIeM6PrWlBVmixN6XWWmGqYhnGRl/ieQyAFKOgttZCN+qp//frt3dAu4Uzcr06bTOEw+e/nCTx4XQiHNC+NfKPWoFI2nqzjOILuUkZgWSjt8NSPnn/dNz3Cby9KacFLi2jp00+TwYpvHky5LqmJtYwvZ5CQkVUlgXSJmpO/8H7DB7Y1CIk4E2x4Y8PREEmHCmOFrJRx5Sy0otNr4zVGMZwjvH4IIVarcXmekyTJ6i5gYmKCMAzJsmy1GTusAv86sOFkGt62UjDZqDPWqJGmPYQfsHvvLCutrdWmjfCbDVFVJEmCZRlB69jYGFmWUZYl/X6fvXv3AqYRuxqjs85eezOJtfEtdwVVXuD6LocOXM7RJx7na9/4JssnjnPu3L4tN70Y4Tcboe9hDdIZLaXJ+ylpv2+ma+Mal1xyCZ7nnZSi8uvqT26SfsVUTA5ceiF3vnob7V6Xxx5/nHZrHl2OyDTC60fZWzIqEykpi4TuygpxHHPVlQe47rrr2LdvH7DWiB32KDd7VQKw9EZTVjEQNZrS90qS8qNnnuF733+Sl14+Tr+3vSNhRtjeKPqm6OB53qq8bHp6mkOHDnHxWy5YLT4opVZNLuHMy96/CjaeTIOMnDQ3k46Ou9aITLMST47EnCO8fjiWSVLJ8xzLsnBdF1us7XbW06UYpLX/usIeNpxMmcpxhENZKeRgnKDdaSMdz0R+bO820QjbHda6AQ29bjIQyNIU6UUnrUDD7d2qYHoTV6dNWJlGGOG3E6N2+wgjbBBGZBphhA3CiEwjjLBBGJFphBE2CCMyjTDCBmFEphFG2CCMyDTCCBuEEZlGGGGDMCLTCCNsEEZkGmGEDcKITCOMsEH4PwGKeAsVKp93AAAAAElFTkSuQmCC;" parent="YkDLoqTf-xVgrHszZ3nV-14" vertex="1">
          <mxGeometry x="430" y="-30" width="47.95" height="65" as="geometry" />
        </mxCell>
        <mxCell id="YkDLoqTf-xVgrHszZ3nV-144" value="DNS Resolver" style="text;html=1;resizable=0;autosize=1;align=center;verticalAlign=middle;points=[];fillColor=none;strokeColor=none;rounded=0;" parent="YkDLoqTf-xVgrHszZ3nV-14" vertex="1">
          <mxGeometry x="410" y="30" width="90" height="20" as="geometry" />
        </mxCell>
        <mxCell id="Pz8LiEah0ui76L6h4vfG-3" value="" style="endArrow=classic;html=1;rounded=0;" parent="YkDLoqTf-xVgrHszZ3nV-14" edge="1">
          <mxGeometry width="50" height="50" relative="1" as="geometry">
            <mxPoint x="430" y="-10" as="sourcePoint" />
            <mxPoint x="330" y="-10" as="targetPoint" />
            <Array as="points">
              <mxPoint x="370" y="-10" />
            </Array>
          </mxGeometry>
        </mxCell>
        <mxCell id="YkDLoqTf-xVgrHszZ3nV-94" value="Users" style="strokeColor=#dddddd;shadow=1;strokeWidth=1;rounded=1;absoluteArcSize=1;arcSize=2;labelPosition=center;verticalLabelPosition=middle;align=center;verticalAlign=bottom;spacingLeft=0;fontColor=#999999;fontSize=12;whiteSpace=wrap;spacingBottom=2;fillColor=none;" parent="YkDLoqTf-xVgrHszZ3nV-13" vertex="1">
          <mxGeometry x="759.29" y="11.001872155992476" width="50.71" height="77.01310509194734" as="geometry" />
        </mxCell>
        <mxCell id="YkDLoqTf-xVgrHszZ3nV-95" value="" style="sketch=0;dashed=0;connectable=0;html=1;fillColor=#757575;strokeColor=none;shape=mxgraph.gcp2.users;part=1;" parent="YkDLoqTf-xVgrHszZ3nV-94" vertex="1">
          <mxGeometry x="0.5" width="50" height="31.5" relative="1" as="geometry">
            <mxPoint x="-25" y="19.25" as="offset" />
          </mxGeometry>
        </mxCell>
        <mxCell id="YkDLoqTf-xVgrHszZ3nV-101" value="" style="edgeStyle=orthogonalEdgeStyle;fontSize=12;html=1;endArrow=blockThin;endFill=1;rounded=0;strokeWidth=2;endSize=4;startSize=4;strokeColor=#EA4335;dashed=0;curved=1;exitX=0;exitY=0.5;exitDx=0;exitDy=0;entryX=0.34;entryY=0.17;entryDx=0;entryDy=0;entryPerimeter=0;" parent="YkDLoqTf-xVgrHszZ3nV-13" source="YkDLoqTf-xVgrHszZ3nV-94" target="YkDLoqTf-xVgrHszZ3nV-129" edge="1">
          <mxGeometry width="100" relative="1" as="geometry">
            <mxPoint x="460" y="367.03467942630454" as="sourcePoint" />
            <mxPoint x="490" y="400" as="targetPoint" />
            <Array as="points">
              <mxPoint x="759" y="59" />
              <mxPoint x="490" y="59" />
              <mxPoint x="490" y="422" />
            </Array>
          </mxGeometry>
        </mxCell>
        <mxCell id="Pz8LiEah0ui76L6h4vfG-1" value="" style="sketch=0;pointerEvents=1;shadow=0;dashed=0;html=1;strokeColor=none;fillColor=#505050;labelPosition=center;verticalLabelPosition=bottom;verticalAlign=top;outlineConnect=0;align=center;shape=mxgraph.office.devices.laptop;" parent="YkDLoqTf-xVgrHszZ3nV-13" vertex="1">
          <mxGeometry x="280" y="20" width="58" height="34" as="geometry" />
        </mxCell>
        <mxCell id="Pz8LiEah0ui76L6h4vfG-2" value="" style="endArrow=classic;html=1;rounded=0;" parent="YkDLoqTf-xVgrHszZ3nV-13" edge="1">
          <mxGeometry width="50" height="50" relative="1" as="geometry">
            <mxPoint x="340" y="20" as="sourcePoint" />
            <mxPoint x="450" y="20" as="targetPoint" />
            <Array as="points">
              <mxPoint x="400" y="20" />
            </Array>
          </mxGeometry>
        </mxCell>
        <mxCell id="Pz8LiEah0ui76L6h4vfG-4" value="" style="curved=1;endArrow=classic;html=1;rounded=0;fillColor=#dae8fc;strokeColor=#6c8ebf;entryX=1;entryY=0.75;entryDx=0;entryDy=0;" parent="YkDLoqTf-xVgrHszZ3nV-13" source="Pz8LiEah0ui76L6h4vfG-1" target="YkDLoqTf-xVgrHszZ3nV-141" edge="1">
          <mxGeometry width="50" height="50" relative="1" as="geometry">
            <mxPoint x="550" y="360" as="sourcePoint" />
            <mxPoint x="600" y="310" as="targetPoint" />
            <Array as="points">
              <mxPoint x="410" y="130" />
              <mxPoint x="440" y="180" />
              <mxPoint x="380" y="240" />
            </Array>
          </mxGeometry>
        </mxCell>
      </root>
    </mxGraphModel>
  </diagram>
</mxfile>
